<?xml version="1.0" encoding="utf-8"?>
<!-- Generator: Adobe Illustrator 16.0.0, SVG Export Plug-In . SVG Version: 6.00 Build 0)  -->
<!DOCTYPE svg PUBLIC "-//W3C//DTD SVG 1.1//EN" "http://www.w3.org/Graphics/SVG/1.1/DTD/svg11.dtd">
<svg version="1.1" id="Layer_1" xmlns="http://www.w3.org/2000/svg" xmlns:xlink="http://www.w3.org/1999/xlink" x="0px" y="0px"
	 width="274.581px" height="44.023px" viewBox="0 0 274.581 44.023" enable-background="new 0 0 274.581 44.023"
	 xml:space="preserve">
<g>
	<defs>
		<rect id="SVGID_1_" y="0" width="274.581" height="44.023"/>
	</defs>
	<clipPath id="SVGID_2_">
		<use xlink:href="#SVGID_1_"  overflow="visible"/>
	</clipPath>
	<path clip-path="url(#SVGID_2_)" fill="#2B2C2C" d="M163.03,11.098l1.171-3.173c0.439-1.246,0.682-1.954,0.83-2.515h0.047
		c0.149,0.537,0.368,1.269,0.808,2.491l1.123,3.197H163.03z M166.18,1.357h-2.345l-6.226,16.162h3.051l1.514-4.029h5.737
		l1.563,4.029h3.175L166.18,1.357z"/>
	<path clip-path="url(#SVGID_2_)" fill="#2B2C2C" d="M194.869,10.512c0.023-1.392,0.804-2.612,2.244-2.612
		c1.54,0,2.198,1.293,2.222,2.612H194.869z M197.164,5.679c-3.298,0-5.201,2.612-5.201,6.078c0,3.125,1.709,6.005,5.909,6.005
		c1.415,0,2.854-0.317,4.075-1.074l-0.877-2.001c-0.831,0.463-1.759,0.78-2.907,0.78c-1.927,0-3.196-1.145-3.271-2.93h7.397v-0.682
		C202.29,8.022,200.411,5.679,197.164,5.679"/>
	<path clip-path="url(#SVGID_2_)" fill="#2B2C2C" d="M245.266,10.512c0.024-1.392,0.806-2.612,2.245-2.612
		c1.54,0,2.198,1.293,2.225,2.612H245.266z M247.562,5.679c-3.298,0-5.201,2.612-5.201,6.078c0,3.125,1.708,6.005,5.907,6.005
		c1.417,0,2.857-0.317,4.077-1.074l-0.877-2.001c-0.831,0.463-1.759,0.78-2.907,0.78c-1.927,0-3.196-1.145-3.271-2.93h7.397v-0.682
		C252.688,8.022,250.808,5.679,247.562,5.679"/>
	<path clip-path="url(#SVGID_2_)" fill="#2B2C2C" d="M270.822,2.431l-2.905,0.857V5.97h-2.075v2.272h2.075v6.42
		c0,1.93,1.248,3.1,3.295,3.1c1.148,0,2.54-0.341,3.37-0.901l-0.877-2.004c-0.439,0.293-1.076,0.562-1.76,0.562
		c-0.756,0-1.123-0.393-1.123-1.467v-5.71h0.122V8.237h0.94c1.307,0,1.678-0.686,1.855-1.015l0.572-1.142l0.023-0.043l-0.023-0.046
		h-3.368V5.97h-0.122V2.431z"/>
	<path clip-path="url(#SVGID_2_)" fill="#2B2C2C" d="M186.796,5.679c-2.709,0-4.37,1.44-4.37,3.49c0,3.857,5.42,3.125,5.42,5.08
		c0,0.877-0.854,1.218-2.025,1.218c-1.174,0-2.271-0.389-3.148-0.95l-0.132,0.307l-0.516,1.963c0.956,0.527,2.336,0.975,3.989,0.975
		c2.491,0,4.688-1.047,4.688-3.588c0-4.027-5.419-3.319-5.419-5.15c0-0.756,0.658-1.05,1.634-1.05c1.002,0,1.9,0.218,2.729,0.522
		l0.544-2.068V6.242C189.239,5.897,188.091,5.679,186.796,5.679"/>
	<path clip-path="url(#SVGID_2_)" fill="#2B2C2C" d="M208.053,5.679c-2.711,0-4.37,1.44-4.37,3.49c0,3.857,5.42,3.125,5.42,5.08
		c0,0.877-0.854,1.218-2.028,1.218c-1.119,0-2.17-0.357-3.028-0.879l-0.6,2.288c0.945,0.486,2.266,0.886,3.823,0.886
		c2.491,0,4.689-1.047,4.689-3.588c0-4.027-5.419-3.319-5.419-5.15c0-0.756,0.658-1.05,1.635-1.05c0.994,0,1.886,0.215,2.71,0.516
		l0.56-2.134V6.242C210.494,5.897,209.346,5.679,208.053,5.679"/>
	<path clip-path="url(#SVGID_2_)" fill="#2B2C2C" d="M217.696,5.679c-2.709,0-4.37,1.44-4.37,3.49c0,3.857,5.42,3.125,5.42,5.08
		c0,0.877-0.854,1.218-2.027,1.218c-1.135,0-2.199-0.366-3.064-0.901l-0.6,2.294c0.945,0.493,2.282,0.902,3.858,0.902
		c2.491,0,4.689-1.047,4.689-3.588c0-4.027-5.419-3.319-5.419-5.15c0-0.756,0.658-1.05,1.634-1.05c0.987,0,1.876,0.211,2.696,0.51
		l0.575-2.198V6.242C220.138,5.897,218.991,5.679,217.696,5.679"/>
	<path clip-path="url(#SVGID_2_)" fill="#2B2C2C" d="M177.203,5.679c-2.709,0-4.369,1.44-4.369,3.49c0,3.857,5.42,3.125,5.42,5.08
		c0,0.877-0.854,1.218-2.025,1.218c-1.172,0-2.271-0.389-3.149-0.95l-0.007,0.013l1.112,2.942c0.669,0.179,1.418,0.29,2.239,0.29
		c2.489,0,4.685-1.047,4.685-3.588c0-4.027-5.418-3.319-5.418-5.15c0-0.756,0.659-1.05,1.634-1.05c0.992,0,1.885,0.212,2.711,0.514
		l0.563-2.151V6.242C179.646,5.897,178.498,5.679,177.203,5.679"/>
	<path clip-path="url(#SVGID_2_)" fill="#2B2C2C" d="M223.166,5.474l-0.056,0.031v6.604v5.409h2.903V9.366
		c0.854-0.684,1.832-1.148,2.76-1.148c1.489,0,1.708,1.122,1.708,2.466v6.834h2.93V9.804l-0.022-0.438
		c0.83-0.684,1.806-1.148,2.733-1.148c1.489,0,1.755,1.075,1.755,2.44v6.86h2.908V9.853c0-3.051-1.806-4.174-3.833-4.174
		c-1.294,0-2.76,0.609-4.151,1.783c-0.561-1.149-1.661-1.783-3.075-1.783s-2.734,0.684-3.88,1.586h-0.111
		c-0.296-0.615-0.758-0.871-1.034-1.021l-1.479-0.739L223.166,5.474z"/>
	<path clip-path="url(#SVGID_2_)" fill="#2B2C2C" d="M254.351,5.474l-0.057,0.031v6.604v5.409h2.903v-8.08
		c0.855-0.707,1.88-1.22,2.833-1.22c1.49,0,1.782,1.148,1.782,2.562v6.738h2.931V9.879c0-3.297-1.882-4.2-3.711-4.2
		c-1.438,0-2.732,0.634-3.955,1.586h-0.158c-0.296-0.615-0.759-0.871-1.034-1.021l-1.479-0.739L254.351,5.474z"/>
	<path clip-path="url(#SVGID_2_)" fill="#2B2C2C" d="M53.608,1.173c-5.176,0-8.498,3.712-8.498,8.374
		c0,4.713,2.859,8.107,8.131,8.107c1.572,0,3.235-0.284,4.969-1.204c-0.424-0.66-0.669-1.465-0.677-2.384
		c-1.145,0.66-2.366,1.121-3.952,1.121c-3.295,0-5.345-2.343-5.345-5.712c0-3.151,1.879-5.836,5.445-5.836
		c1.561,0,2.904,0.392,4.15,1.05V1.955C56.828,1.514,55.365,1.173,53.608,1.173"/>
	<path clip-path="url(#SVGID_2_)" fill="#2B2C2C" d="M94.611,15.112c-0.415,0-0.88-0.049-1.342-0.195V8.229
		c0.364-0.147,0.877-0.368,1.757-0.368c1.902,0,3.025,1.416,3.025,3.444C98.051,13.574,96.709,15.112,94.611,15.112 M93.269,0
		h-2.907v16.722c0.976,0.514,2.296,0.807,3.784,0.807c3.932,0,6.909-2.345,6.909-6.395c0-3.663-2.465-5.69-5.543-5.69
		c-0.901,0-1.585,0.148-2.243,0.343V0z"/>
	<path clip-path="url(#SVGID_2_)" fill="#2B2C2C" d="M123.036,15.236c-2.1,0-3.54-1.292-3.54-3.539c0-2.369,1.489-3.736,3.515-3.736
		c0.588,0,0.953,0.073,1.392,0.171v6.91C124.012,15.188,123.428,15.236,123.036,15.236 M127.332,0.125h-2.929v5.59
		c-0.463-0.098-1.123-0.146-1.563-0.146c-3.662,0-6.322,2.514-6.322,6.177c0,3.809,2.808,5.908,6.568,5.908
		c1.415,0,3.098-0.293,4.246-0.856V0.125z"/>
	<path clip-path="url(#SVGID_2_)" fill="#2B2C2C" d="M143.25,10.402c0.023-1.392,0.805-2.613,2.244-2.613
		c1.54,0,2.198,1.293,2.225,2.613H143.25z M145.546,5.568c-3.299,0-5.202,2.613-5.202,6.079c0,3.125,1.709,6.007,5.91,6.007
		c1.415,0,2.854-0.32,4.074-1.076l-0.878-1.999c-0.83,0.462-1.758,0.779-2.905,0.779c-1.928,0-3.197-1.146-3.271-2.93h7.398v-0.683
		C150.672,7.913,148.791,5.568,145.546,5.568"/>
	<path clip-path="url(#SVGID_2_)" fill="#2B2C2C" d="M63.315,15.357c-1.05,0-1.709-0.585-1.709-1.587
		c0-0.585,0.221-1.049,0.706-1.317c0.392-0.221,0.929-0.344,1.686-0.367l1.494-0.047v2.42l0.007,0.091
		C65.091,14.872,64.336,15.357,63.315,15.357 M63.827,5.57c-1.61,0-3.101,0.388-4.468,1.146l0.954,1.881
		c0.828-0.441,1.878-0.807,3.027-0.807c1.342,0,2.221,0.585,2.221,1.928v0.367l-1.978,0.072c-1.173,0.051-2.173,0.246-2.979,0.661
		c-1.194,0.611-1.953,1.586-1.953,3.149c0,2.221,1.636,3.686,3.834,3.686c1.441,0,2.49-0.585,3.32-1.342h0.243
		c0.274,0.335,0.588,0.512,0.798,0.627l1.521,0.76l0.058,0.031l0.06-0.031v-6.801h-0.018V9.768
		C68.467,6.983,66.928,5.57,63.827,5.57"/>
	<path clip-path="url(#SVGID_2_)" fill="#2B2C2C" d="M70.659,5.316l-0.055,0.03v1.76V17.36h2.903v-5.434V9.206
		c0.854-0.681,1.832-1.145,2.761-1.145c1.488,0,1.707,1.122,1.707,2.465v6.835h2.93V9.646l-0.023-0.438
		c0.83-0.684,1.807-1.148,2.735-1.148c1.489,0,1.755,1.073,1.755,2.44v6.86h2.907V9.695c0-3.053-1.806-4.174-3.831-4.174
		c-1.297,0-2.76,0.609-4.152,1.781c-0.562-1.148-1.662-1.781-3.077-1.781c-1.415,0-2.734,0.684-3.88,1.585h-0.108
		c-0.298-0.614-0.76-0.873-1.034-1.02l-1.48-0.74L70.659,5.316z"/>
	<path clip-path="url(#SVGID_2_)" fill="#2B2C2C" d="M108.721,5.626c-1.316,0-2.47,0.709-3.173,1.531l-0.32-1.297h-2.464v11.549
		h2.906V9.253c0.896-1.097,1.779-1.422,2.511-1.422c1.05,0,1.786,0.666,1.786,0.666V5.844
		C109.543,5.693,109.125,5.626,108.721,5.626"/>
	<path clip-path="url(#SVGID_2_)" fill="#2B2C2C" d="M114.639,5.862h-2.929V17.41h2.929V5.862z M113.174,0.49
		c-1.025,0-1.782,0.782-1.782,1.757c0,0.977,0.757,1.733,1.782,1.733c1.026,0,1.808-0.781,1.808-1.733
		C114.982,1.246,114.2,0.49,113.174,0.49"/>
	<path clip-path="url(#SVGID_2_)" fill="#2B2C2C" d="M134.212,20.702c-1.928,0-3.149-0.707-3.149-1.856
		c0-0.756,0.563-1.243,0.928-1.512c1.562,0.61,5.151,0.269,5.151,1.929C137.143,20.117,135.97,20.702,134.212,20.702 M134.017,11.62
		c-1.294,0-2.026-1-2.026-2.148c0-1.39,0.854-2.149,2.001-2.149c1.294,0,2.075,1.027,2.075,2.174
		C136.067,10.888,135.188,11.62,134.017,11.62 M140.239,5.122h-2.196h-2.283h-0.049v0.004h-1.766c-3.149,0-4.712,2.125-4.712,4.248
		c0,1.54,0.709,2.881,1.927,3.589c-0.951,0.66-1.392,1.488-1.392,2.172c0,0.613,0.269,1.148,0.759,1.442
		c-1.195,0.513-2.076,1.513-2.076,2.784c0,2.001,1.975,3.392,5.37,3.392c4.005,0,6.104-1.71,6.104-3.809
		c0-4.32-7.592-2.393-7.592-4.467c0-0.245,0.073-0.488,0.292-0.854c0.392,0.122,0.879,0.196,1.417,0.196
		c2.806,0,4.784-1.684,4.784-4.275c0-0.902-0.283-1.756-0.814-2.449h0.095h0.239V7.079c0.95-0.08,1.247-0.61,1.396-0.876
		l0.498-1.003l0.021-0.04L140.239,5.122z"/>
	<rect x="45.811" y="25.241" clip-path="url(#SVGID_2_)" fill="#2B2C2C" width="2.165" height="16.037"/>
	<path clip-path="url(#SVGID_2_)" fill="#2B2C2C" d="M51.092,29.767h1.801l0.268,1.411c1.24-1.022,2.529-1.702,3.991-1.702
		c1.824,0,3.503,1.071,3.503,4.089v7.713h-2.139V34.27c0-1.631-0.39-2.896-1.973-2.896c-1.17,0-2.288,0.681-3.309,1.557v8.347
		h-2.142V29.767z"/>
	<path clip-path="url(#SVGID_2_)" fill="#2B2C2C" d="M64.16,38.698v-7.205h-1.971v-1.728h1.971v-2.627l2.142-0.68v3.307h3.455
		l-0.585,1.728h-2.87v6.79c0,1.022,0.414,1.462,1.167,1.462c0.732,0,1.387-0.317,1.85-0.61l0.705,1.486
		c-0.754,0.535-1.897,0.898-3.041,0.898C65.206,41.52,64.16,40.5,64.16,38.698"/>
	<path clip-path="url(#SVGID_2_)" fill="#2B2C2C" d="M78.371,34.39c-0.026-1.605-0.802-3.211-2.532-3.211
		c-1.655,0-2.65,1.459-2.676,3.211H78.371z M73.163,35.997c0.026,2.167,1.364,3.771,3.627,3.771c1.119,0,2.068-0.34,2.87-0.777
		l0.657,1.483c-1.071,0.682-2.458,1.046-3.773,1.046c-3.817,0-5.571-2.798-5.571-6.083c0-3.504,1.921-5.961,4.866-5.961
		c3.019,0,4.748,2.311,4.748,5.984v0.537H73.163z"/>
	<path clip-path="url(#SVGID_2_)" fill="#2B2C2C" d="M82.605,29.767h1.801l0.244,1.411c1.217-1.29,2.165-1.702,3.235-1.702
		c0.488,0,1.024,0.121,1.365,0.341l-0.755,1.897c-0.365-0.193-0.729-0.291-1.119-0.291c-0.804,0-1.56,0.436-2.628,1.481v8.373
		h-2.143V29.767z"/>
	<path clip-path="url(#SVGID_2_)" fill="#2B2C2C" d="M90.271,29.767h1.801l0.268,1.411c1.24-1.022,2.532-1.702,3.991-1.702
		c1.827,0,3.503,1.071,3.503,4.089v7.713h-2.139V34.27c0-1.631-0.39-2.896-1.973-2.896c-1.169,0-2.287,0.681-3.308,1.557v8.347
		h-2.143V29.767z"/>
	<path clip-path="url(#SVGID_2_)" fill="#2B2C2C" d="M106.869,35.753c-0.927,0.024-1.534,0.171-2.02,0.414
		c-0.61,0.341-0.901,0.925-0.901,1.63c0,1.194,0.777,1.971,1.994,1.971c1.34,0,2.288-0.803,2.8-1.313v-2.775L106.869,35.753z
		 M108.887,40.037c-0.876,0.827-1.994,1.483-3.431,1.483c-2.115,0-3.697-1.387-3.697-3.602c0-1.532,0.777-2.555,1.946-3.114
		c0.803-0.389,1.728-0.536,2.898-0.585l2.139-0.072V33.54c0-1.632-0.999-2.338-2.385-2.338c-1.315,0-2.311,0.414-3.14,0.901
		l-0.754-1.484c1.34-0.804,2.8-1.143,4.161-1.143c2.605,0,4.26,1.239,4.26,4.013v4.187c0,1.973,0.072,3.02,0.219,3.603h-1.852
		L108.887,40.037z"/>
	<path clip-path="url(#SVGID_2_)" fill="#2B2C2C" d="M114.363,38.698v-7.205h-1.971v-1.728h1.971v-2.627l2.143-0.68v3.307h3.454
		l-0.583,1.728h-2.871v6.79c0,1.022,0.413,1.462,1.166,1.462c0.733,0,1.39-0.317,1.852-0.61l0.703,1.486
		c-0.754,0.535-1.897,0.898-3.041,0.898C115.409,41.52,114.363,40.5,114.363,38.698"/>
	<path clip-path="url(#SVGID_2_)" fill="#2B2C2C" d="M121.932,29.768h2.142v11.511h-2.142V29.768z M121.638,26.021
		c0-0.757,0.56-1.364,1.364-1.364c0.826,0,1.41,0.584,1.41,1.364c0,0.777-0.607,1.387-1.41,1.387
		C122.198,27.407,121.638,26.798,121.638,26.021"/>
	<path clip-path="url(#SVGID_2_)" fill="#2B2C2C" d="M134.998,35.51c0-2.48-1.216-4.259-3.235-4.259
		c-2.045,0-3.262,1.778-3.262,4.259c0,2.458,1.217,4.233,3.237,4.233C133.782,39.743,134.998,37.968,134.998,35.51 M126.287,35.51
		c0-3.406,2.167-6.035,5.476-6.035c3.261,0,5.451,2.629,5.451,6.035c0,3.384-2.167,6.011-5.476,6.011
		C128.454,41.521,126.287,38.894,126.287,35.51"/>
	<path clip-path="url(#SVGID_2_)" fill="#2B2C2C" d="M139.185,29.767h1.801l0.268,1.411c1.243-1.022,2.532-1.702,3.991-1.702
		c1.825,0,3.503,1.071,3.503,4.089v7.713h-2.139V34.27c0-1.631-0.391-2.896-1.973-2.896c-1.17,0-2.287,0.681-3.309,1.557v8.347
		h-2.143V29.767z"/>
	<path clip-path="url(#SVGID_2_)" fill="#2B2C2C" d="M155.782,35.753c-0.927,0.024-1.534,0.171-2.021,0.414
		c-0.609,0.341-0.9,0.925-0.9,1.63c0,1.194,0.776,1.971,1.994,1.971c1.34,0,2.287-0.803,2.8-1.313v-2.775L155.782,35.753z
		 M157.8,40.037c-0.876,0.827-1.994,1.483-3.431,1.483c-2.115,0-3.697-1.387-3.697-3.602c0-1.532,0.776-2.555,1.946-3.114
		c0.801-0.389,1.728-0.536,2.895-0.585l2.143-0.072V33.54c0-1.632-0.999-2.338-2.386-2.338c-1.314,0-2.313,0.414-3.14,0.901
		l-0.754-1.484c1.34-0.804,2.8-1.143,4.161-1.143c2.604,0,4.26,1.239,4.26,4.013v4.187c0,1.973,0.072,3.02,0.219,3.603h-1.852
		L157.8,40.037z"/>
	<path clip-path="url(#SVGID_2_)" fill="#2B2C2C" d="M162.449,24.048h2.143v14.357c0,0.876,0.268,1.145,0.85,1.145
		c0.196,0,0.536-0.072,0.732-0.147l0.438,1.681c-0.535,0.219-1.218,0.342-1.777,0.342c-1.605,0-2.385-0.877-2.385-2.412V24.048z"/>
	<polygon clip-path="url(#SVGID_2_)" fill="#2B2C2C" points="173.619,25.24 181.723,25.24 181.064,27.089 175.784,27.089 
		175.784,32.177 181.017,32.177 181.017,34.025 175.784,34.025 175.784,39.429 181.819,39.429 181.819,41.277 173.619,41.277 	"/>
	<path clip-path="url(#SVGID_2_)" fill="#2B2C2C" d="M191.602,39.429v-7.885c-0.534-0.169-0.948-0.268-1.679-0.268
		c-2.214,0-3.991,1.558-3.991,4.332c0,2.531,1.534,4.087,4.017,4.087C190.482,39.695,191.166,39.623,191.602,39.429 M183.718,35.656
		c0-3.7,2.651-6.181,6.06-6.181c0.607,0,1.243,0.048,1.824,0.219v-5.646h2.143v16.67c-0.9,0.488-2.386,0.803-3.844,0.803
		C186.468,41.521,183.718,39.502,183.718,35.656"/>
	<path clip-path="url(#SVGID_2_)" fill="#2B2C2C" d="M196.762,39.331c-0.219-0.632-0.316-1.242-0.316-2.189v-7.373h2.143v6.984
		c0,0.729,0.047,1.239,0.218,1.702c0.291,0.804,0.901,1.192,1.85,1.192c1.217,0,2.359-0.705,2.944-1.436v-8.443h2.143v7.957
		c0,1.922,0.071,2.969,0.243,3.553h-1.899l-0.365-1.29c-0.974,0.877-2.236,1.533-3.748,1.533
		C198.853,41.521,197.369,41.034,196.762,39.331"/>
	<path clip-path="url(#SVGID_2_)" fill="#2B2C2C" d="M207.932,35.632c0-3.431,2.336-6.156,5.841-6.156
		c1.24,0,2.264,0.339,2.944,0.729v1.875c-0.778-0.513-1.655-0.828-2.775-0.828c-2.359,0-3.795,1.825-3.795,4.258
		c0,2.702,1.436,4.235,3.647,4.235c1.169,0,1.997-0.391,2.751-0.805l0.634,1.51c-0.851,0.584-2.216,1.071-3.674,1.071
		C209.903,41.521,207.932,38.893,207.932,35.632"/>
	<path clip-path="url(#SVGID_2_)" fill="#2B2C2C" d="M223.067,35.753c-0.925,0.024-1.535,0.171-2.019,0.414
		c-0.609,0.341-0.9,0.925-0.9,1.63c0,1.194,0.777,1.971,1.994,1.971c1.34,0,2.288-0.803,2.799-1.313v-2.775L223.067,35.753z
		 M225.087,40.037c-0.876,0.827-1.993,1.483-3.431,1.483c-2.117,0-3.698-1.387-3.698-3.602c0-1.532,0.777-2.555,1.947-3.114
		c0.801-0.389,1.728-0.536,2.896-0.585l2.141-0.072V33.54c0-1.632-0.998-2.338-2.385-2.338c-1.314,0-2.313,0.414-3.14,0.901
		l-0.754-1.484c1.337-0.804,2.797-1.143,4.161-1.143c2.604,0,4.26,1.239,4.26,4.013v4.187c0,1.973,0.072,3.02,0.22,3.603h-1.853
		L225.087,40.037z"/>
	<path clip-path="url(#SVGID_2_)" fill="#2B2C2C" d="M230.563,38.698v-7.205h-1.972v-1.728h1.972v-2.627l2.142-0.68v3.307h3.455
		l-0.583,1.728h-2.872v6.79c0,1.022,0.414,1.462,1.167,1.462c0.732,0,1.387-0.317,1.85-0.61l0.705,1.486
		c-0.754,0.535-1.896,0.898-3.041,0.898C231.609,41.52,230.563,40.5,230.563,38.698"/>
	<path clip-path="url(#SVGID_2_)" fill="#2B2C2C" d="M238.133,29.768h2.142v11.511h-2.142V29.768z M237.839,26.021
		c0-0.757,0.56-1.364,1.363-1.364c0.826,0,1.412,0.584,1.412,1.364c0,0.777-0.608,1.387-1.412,1.387S237.839,26.798,237.839,26.021"
		/>
	<path clip-path="url(#SVGID_2_)" fill="#2B2C2C" d="M251.198,35.51c0-2.48-1.216-4.259-3.234-4.259
		c-2.046,0-3.263,1.778-3.263,4.259c0,2.458,1.217,4.233,3.237,4.233C249.982,39.743,251.198,37.968,251.198,35.51 M242.487,35.51
		c0-3.406,2.167-6.035,5.477-6.035c3.261,0,5.45,2.629,5.45,6.035c0,3.384-2.167,6.011-5.476,6.011
		C244.654,41.521,242.487,38.894,242.487,35.51"/>
	<path clip-path="url(#SVGID_2_)" fill="#2B2C2C" d="M255.385,29.767h1.801l0.269,1.411c1.239-1.022,2.531-1.702,3.99-1.702
		c1.825,0,3.503,1.071,3.503,4.089v7.713h-2.139V34.27c0-1.631-0.39-2.896-1.973-2.896c-1.169,0-2.287,0.681-3.309,1.557v8.347
		h-2.143V29.767z"/>
	<path clip-path="url(#SVGID_2_)" fill="#FFDE26" d="M36.105,24.038c-0.079,1.975-0.368,3.768-0.863,5.335
		c-0.475,1.519-1.155,2.865-2.024,4.011c-1.613,2.135-3.578,3.202-4.884,3.912c-0.112,0.063-0.891,0.458-4.625,2.318l0.041,0.085
		h0.096V24.138h12.353v-0.188H23.656v15.903l0.137-0.067c3.736-1.863,4.511-2.256,4.629-2.321c1.31-0.711,3.305-1.795,4.946-3.965
		c0.882-1.165,1.573-2.533,2.057-4.07c0.495-1.586,0.79-3.393,0.868-5.384L36.105,24.038z"/>
	<path clip-path="url(#SVGID_2_)" fill="#FFDE26" d="M14.112,24.043v15.656h0.093l0.043-0.085c-3.732-1.859-4.514-2.257-4.624-2.315
		c-1.307-0.713-3.269-1.78-4.885-3.913c-0.867-1.146-1.549-2.495-2.024-4.012c-0.494-1.568-0.784-3.36-0.862-5.335L1.76,24.043
		v0.094h12.445v-0.188H1.658l0.005,0.099c0.081,1.988,0.372,3.796,0.869,5.384c0.482,1.536,1.175,2.904,2.055,4.069
		c1.642,2.17,3.638,3.252,4.948,3.965c0.119,0.063,0.895,0.46,4.628,2.318l0.138,0.069v-15.81H14.112z"/>
	<polygon clip-path="url(#SVGID_2_)" fill="#262626" points="36.224,1.73 36.224,1.637 23.656,1.637 23.656,14.592 36.318,14.592 
		36.318,1.637 36.224,1.637 36.224,1.73 36.13,1.73 36.13,14.402 23.847,14.402 23.847,1.828 36.224,1.828 36.224,1.73 36.13,1.73 	
		"/>
	<polygon clip-path="url(#SVGID_2_)" fill="#262626" points="14.206,1.73 14.206,1.637 1.638,1.637 1.638,14.592 14.299,14.592 
		14.299,1.637 14.206,1.637 14.206,1.73 14.111,1.73 14.111,14.402 1.829,14.402 1.829,1.828 14.206,1.828 14.206,1.73 14.111,1.73 
			"/>
	<path clip-path="url(#SVGID_2_)" fill="#2B2C2C" d="M18.978,44.023l-0.377-0.201c-0.562-0.28-9.328-4.636-9.85-4.919
		C5.912,37.357,0,34.146,0,22.892V0h37.956v22.891c0,11.255-5.912,14.466-8.751,16.012c-0.522,0.284-9.342,4.666-9.85,4.919
		L18.978,44.023z"/>
	<path clip-path="url(#SVGID_2_)" fill="#FFFFFF" d="M22.84,15.408V0.82h-7.723v14.588H0.821v7.483l0.002,0.239h14.294v18.04
		c2.06,1.028,3.858,1.921,3.858,1.921l0.003,0.001l0.001-0.001c0,0,1.8-0.893,3.861-1.921v-18.04h14.294v-0.239v-7.483H22.84z"/>
	<rect x="0.822" y="0.817" clip-path="url(#SVGID_2_)" fill="#E53E33" width="14.296" height="14.588"/>
	<rect x="22.841" y="0.82" clip-path="url(#SVGID_2_)" fill="#E53E33" width="14.296" height="14.588"/>
	<path clip-path="url(#SVGID_2_)" fill="#E53E33" d="M15.118,23.131H0.824c0.081,10.46,5.446,13.487,8.321,15.051
		c0.293,0.159,3.345,1.683,5.973,2.991V23.131z"/>
	<path clip-path="url(#SVGID_2_)" fill="#E53E33" d="M22.84,23.131v18.042c2.628-1.309,5.68-2.832,5.973-2.991
		c2.875-1.563,8.24-4.591,8.321-15.051H22.84z"/>
	<path clip-path="url(#SVGID_2_)" fill="#2B2C2C" d="M27.75,19.383l0.294-0.35l-0.372-0.442l-0.373,0.442l0.295,0.35
		c0.006,0.177,0.016,1.723-0.895,2.278c0,0,0.304,0.057,0.711-0.021c0,0,0.071,0.403,0.262,0.864
		c0.191-0.461,0.263-0.864,0.263-0.864c0.409,0.078,0.711,0.021,0.711,0.021C27.734,21.105,27.746,19.56,27.75,19.383"/>
	<path clip-path="url(#SVGID_2_)" fill="#2B2C2C" d="M30.077,16.755l0.295-0.35L30,15.963l-0.372,0.442l0.296,0.35
		c0.004,0.177,0.016,1.724-0.896,2.278c0,0,0.303,0.057,0.71-0.021c0,0,0.071,0.401,0.262,0.861c0.192-0.46,0.265-0.861,0.265-0.861
		c0.407,0.078,0.71,0.021,0.71,0.021C30.063,18.479,30.073,16.932,30.077,16.755"/>
	<path clip-path="url(#SVGID_2_)" fill="#2B2C2C" d="M32.406,19.383l0.295-0.35l-0.373-0.442l-0.372,0.442l0.294,0.35
		c0.006,0.177,0.018,1.723-0.895,2.278c0,0,0.304,0.057,0.713-0.021c0,0,0.069,0.403,0.26,0.864
		c0.191-0.461,0.265-0.864,0.265-0.864c0.407,0.078,0.71,0.021,0.71,0.021C32.39,21.105,32.401,19.56,32.406,19.383"/>
	<path clip-path="url(#SVGID_2_)" fill="#2B2C2C" d="M34.734,16.755l0.294-0.35l-0.372-0.442l-0.373,0.442l0.295,0.35
		c0.006,0.177,0.016,1.724-0.895,2.278c0,0,0.304,0.057,0.71-0.021c0,0,0.072,0.401,0.263,0.861c0.191-0.46,0.263-0.861,0.263-0.861
		c0.409,0.078,0.711,0.021,0.711,0.021C34.719,18.479,34.729,16.932,34.734,16.755"/>
	<path clip-path="url(#SVGID_2_)" fill="#2B2C2C" d="M25.422,16.755l0.295-0.35l-0.373-0.442l-0.373,0.442l0.295,0.35
		c0.006,0.177,0.018,1.724-0.895,2.278c0,0,0.304,0.057,0.713-0.021c0,0,0.069,0.401,0.26,0.861c0.192-0.46,0.265-0.861,0.265-0.861
		c0.407,0.078,0.71,0.021,0.71,0.021C25.407,18.479,25.417,16.932,25.422,16.755"/>
	<path clip-path="url(#SVGID_2_)" fill="#2B2C2C" d="M5.706,19.383L6,19.033l-0.373-0.442l-0.372,0.442l0.294,0.35
		c0.006,0.177,0.018,1.723-0.895,2.278c0,0,0.304,0.057,0.713-0.021c0,0,0.069,0.403,0.26,0.864
		c0.191-0.461,0.265-0.864,0.265-0.864c0.407,0.078,0.711,0.021,0.711,0.021C5.69,21.105,5.701,19.56,5.706,19.383"/>
	<path clip-path="url(#SVGID_2_)" fill="#2B2C2C" d="M8.034,16.755l0.295-0.35l-0.373-0.442l-0.373,0.442l0.295,0.35
		c0.006,0.177,0.018,1.724-0.897,2.278c0,0,0.306,0.057,0.715-0.021c0,0,0.069,0.401,0.26,0.861c0.192-0.46,0.263-0.861,0.263-0.861
		c0.409,0.078,0.711,0.021,0.711,0.021C8.02,18.479,8.029,16.932,8.034,16.755"/>
	<path clip-path="url(#SVGID_2_)" fill="#2B2C2C" d="M10.363,19.383l0.294-0.35l-0.373-0.442l-0.372,0.442l0.295,0.35
		c0.004,0.177,0.016,1.723-0.895,2.278c0,0,0.302,0.057,0.71-0.021c0,0,0.072,0.403,0.262,0.864
		c0.192-0.461,0.264-0.864,0.264-0.864c0.406,0.078,0.711,0.021,0.711,0.021C10.346,21.105,10.358,19.56,10.363,19.383"/>
	<path clip-path="url(#SVGID_2_)" fill="#2B2C2C" d="M12.69,16.755l0.295-0.35l-0.373-0.442l-0.372,0.442l0.296,0.35
		c0.004,0.177,0.016,1.724-0.896,2.278c0,0,0.303,0.057,0.71-0.021c0,0,0.071,0.401,0.262,0.861c0.192-0.46,0.265-0.861,0.265-0.861
		c0.407,0.078,0.71,0.021,0.71,0.021C12.675,18.479,12.686,16.932,12.69,16.755"/>
	<path clip-path="url(#SVGID_2_)" fill="#2B2C2C" d="M3.379,16.755l0.294-0.35L3.3,15.963l-0.372,0.442l0.293,0.35
		c0.005,0.177,0.018,1.724-0.893,2.278c0,0,0.302,0.057,0.711-0.021c0,0,0.071,0.401,0.261,0.861
		c0.192-0.46,0.264-0.861,0.264-0.861c0.406,0.078,0.711,0.021,0.711,0.021C3.363,18.479,3.374,16.932,3.379,16.755"/>
	<path clip-path="url(#SVGID_2_)" fill="#2B2C2C" d="M19.075,25.308l0.294-0.35l-0.372-0.442l-0.373,0.442l0.295,0.35
		c0.004,0.178,0.016,1.724-0.897,2.276c0,0,0.304,0.058,0.712-0.02c0,0,0.072,0.402,0.263,0.861
		c0.191-0.459,0.263-0.861,0.263-0.861c0.406,0.077,0.711,0.02,0.711,0.02C19.059,27.031,19.07,25.485,19.075,25.308"/>
	<path clip-path="url(#SVGID_2_)" fill="#2B2C2C" d="M19.075,33.213l0.294-0.353l-0.372-0.439l-0.373,0.439l0.295,0.353
		c0.004,0.176,0.016,1.724-0.897,2.277c0,0,0.304,0.058,0.712-0.021c0,0,0.072,0.402,0.263,0.864
		c0.191-0.462,0.263-0.864,0.263-0.864c0.406,0.079,0.711,0.021,0.711,0.021C19.059,34.937,19.07,33.389,19.075,33.213"/>
	<path clip-path="url(#SVGID_2_)" fill="#2B2C2C" d="M21.232,29.26l0.295-0.35l-0.373-0.442l-0.372,0.442l0.296,0.35
		c0.004,0.177,0.016,1.725-0.896,2.278c0,0,0.303,0.057,0.712-0.021c0,0,0.069,0.403,0.26,0.863c0.192-0.46,0.265-0.863,0.265-0.863
		c0.407,0.078,0.71,0.021,0.71,0.021C21.217,30.984,21.228,29.437,21.232,29.26"/>
	<path clip-path="url(#SVGID_2_)" fill="#2B2C2C" d="M16.892,29.26l0.294-0.35l-0.372-0.442l-0.373,0.442l0.295,0.35
		c0.004,0.177,0.016,1.725-0.895,2.278c0,0,0.304,0.057,0.713-0.021c0,0,0.069,0.403,0.26,0.863c0.191-0.46,0.263-0.863,0.263-0.863
		c0.406,0.078,0.711,0.021,0.711,0.021C16.876,30.984,16.888,29.437,16.892,29.26"/>
	<path clip-path="url(#SVGID_2_)" fill="#2B2C2C" d="M21.232,37.164l0.295-0.35l-0.373-0.442l-0.372,0.442l0.296,0.35
		c0.004,0.177,0.016,1.724-0.896,2.278c0,0,0.303,0.057,0.712-0.021c0,0,0.069,0.403,0.26,0.864
		c0.192-0.461,0.265-0.864,0.265-0.864c0.407,0.078,0.71,0.021,0.71,0.021C21.217,38.888,21.228,37.341,21.232,37.164"/>
	<path clip-path="url(#SVGID_2_)" fill="#2B2C2C" d="M16.892,37.164l0.294-0.35l-0.372-0.442l-0.373,0.442l0.295,0.35
		c0.004,0.177,0.016,1.724-0.895,2.278c0,0,0.304,0.057,0.713-0.021c0,0,0.069,0.403,0.26,0.864
		c0.191-0.461,0.263-0.864,0.263-0.864c0.406,0.078,0.711,0.021,0.711,0.021C16.876,38.888,16.888,37.341,16.892,37.164"/>
	<path clip-path="url(#SVGID_2_)" fill="#2B2C2C" d="M19.075,7.306l0.294-0.352l-0.372-0.44l-0.373,0.44l0.295,0.352
		c0.004,0.176,0.016,1.723-0.897,2.276c0,0,0.304,0.059,0.712-0.02c0,0,0.072,0.403,0.263,0.865
		c0.191-0.462,0.263-0.865,0.263-0.865c0.406,0.079,0.711,0.02,0.711,0.02C19.059,9.029,19.07,7.482,19.075,7.306"/>
	<path clip-path="url(#SVGID_2_)" fill="#2B2C2C" d="M21.232,3.353l0.295-0.35l-0.373-0.442l-0.372,0.442l0.296,0.35
		c0.004,0.177,0.016,1.723-0.896,2.278c0,0,0.303,0.057,0.712-0.022c0,0,0.069,0.403,0.26,0.864
		c0.192-0.461,0.265-0.864,0.265-0.864c0.407,0.079,0.71,0.022,0.71,0.022C21.217,5.076,21.228,3.53,21.232,3.353"/>
	<path clip-path="url(#SVGID_2_)" fill="#2B2C2C" d="M16.892,3.353l0.294-0.35l-0.372-0.442l-0.373,0.442l0.295,0.35
		c0.004,0.177,0.016,1.723-0.895,2.278c0,0,0.304,0.057,0.713-0.022c0,0,0.069,0.403,0.26,0.864
		c0.191-0.461,0.263-0.864,0.263-0.864c0.406,0.079,0.711,0.022,0.711,0.022C16.876,5.076,16.888,3.53,16.892,3.353"/>
	<path clip-path="url(#SVGID_2_)" fill="#2B2C2C" d="M21.232,11.258l0.295-0.349l-0.373-0.443l-0.372,0.443l0.296,0.349
		c0.004,0.179,0.016,1.723-0.896,2.278c0,0,0.303,0.057,0.712-0.022c0,0,0.069,0.404,0.26,0.865
		c0.192-0.461,0.265-0.865,0.265-0.865c0.407,0.079,0.71,0.022,0.71,0.022C21.217,12.981,21.228,11.437,21.232,11.258"/>
	<path clip-path="url(#SVGID_2_)" fill="#2B2C2C" d="M16.892,11.258l0.294-0.349l-0.372-0.443l-0.373,0.443l0.295,0.349
		c0.004,0.179,0.016,1.723-0.895,2.278c0,0,0.304,0.057,0.713-0.022c0,0,0.069,0.404,0.26,0.865
		c0.191-0.461,0.263-0.865,0.263-0.865c0.406,0.079,0.711,0.022,0.711,0.022C16.876,12.981,16.888,11.437,16.892,11.258"/>
	<path clip-path="url(#SVGID_2_)" fill="#2B2C2C" d="M12.029,8.023l0.048,0.181l0.097,0.388c0.152,0.691,0.281,0.875,0.618,0.875
		c0.19,0,0.352-0.108,0.401-0.269l0.073-0.242l0.115-0.09c0.132,0,0.195,0.139,0.196,0.443c0.004,0.085,0.033,0.284,0.088,0.591
		c0.032,0.183,0.048,0.359,0.048,0.53l-0.073,0.378c0.043,0.239,0.073,0.56,0.073,0.744c0,0.3-0.055,0.578-0.145,0.725
		c0.051,0.2,0.062,0.28,0.062,0.456l-0.038,0.402c-0.052,0.292-0.066,0.366-0.066,0.419l0.031,0.163l0.035,0.145l-0.035,0.062
		l-0.243-0.098l-0.266-0.144l-0.279-0.218c-0.236,0.211-0.306,0.244-0.923,0.413l-0.264,0.11l-0.163,0.082
		c-0.104,0-0.153-0.167-0.153-0.515c0-0.255,0.027-0.494,0.073-0.674c-0.18-0.068-0.333-0.109-0.433-0.109l-0.186,0.025L10.677,12.8
		l-0.067-0.117l0.073-0.262l0.123-0.291l0.29-0.35l0.317-0.184l0.433-0.084c0.261-0.051,0.417-0.188,0.417-0.368
		c0-0.175-0.119-0.29-0.379-0.383l-0.521-0.181l-0.473-0.231c-0.289-0.172-0.337-0.193-0.408-0.193l-0.161,0.213
		c0,0.218,0.139,0.368,0.338,0.368l0.122-0.024l0.125-0.036l0.086,0.091l-0.004,0.054l-0.025,0.205
		c-0.022,0.177-0.135,0.391-0.388,0.728L10.467,11.9c-0.096,0.389-0.342,0.745-0.655,0.957l-0.134,0.097l-0.097,0.168l-0.239,0.294
		l-0.305,0.277L8.794,13.91l-0.121,0.207l-0.097,0.06c-0.107,0-0.206-0.11-0.265-0.3l-0.176-0.184l-0.213,0.035l-0.169,0.025H7.314
		c-0.216,0-0.524,0.057-0.665,0.124l-0.125,0.037l-0.08-0.076l-0.027-0.096c0-0.221,0.16-0.637,0.364-0.971
		c0.134-0.209,0.176-0.256,0.329-0.385c-0.05-0.207-0.181-0.367-0.338-0.414l-0.209-0.06l-0.048-0.058
		c0-0.064,0.101-0.149,0.279-0.244c0.238-0.125,0.477-0.195,0.668-0.195c0.201,0,0.395,0.081,0.616,0.257
		c0.329,0.255,0.419,0.302,0.58,0.302c0.258,0,0.504-0.236,0.504-0.486c0-0.167-0.089-0.344-0.318-0.642
		c-0.339-0.438-0.442-0.665-0.442-0.985c0-0.198,0.062-0.452,0.138-0.566l0.121-0.18l0.04-0.118l-0.219-0.14
		c-0.192,0-0.56,0.138-0.852,0.316L7.385,9.432l0.053,0.094L7.571,9.61l0.026,0.05L7.546,9.755l-0.241,0.316
		c-0.125,0.162-0.319,0.364-0.511,0.533l-0.119,0.121l-0.097,0.181c-0.087,0.164-0.317,0.398-0.534,0.547l-0.169,0.131l-0.096,0.171
		l-0.158,0.254l-0.29,0.377L4.99,12.725c-0.104,0.103-0.197,0.304-0.339,0.749C4.565,13.742,4.487,13.9,4.442,13.9l-0.094-0.074
		c-0.239-0.274-0.446-0.437-0.555-0.437L3.659,13.45l-0.328,0.123l-0.45,0.085c-0.336,0.063-0.474,0.137-0.663,0.364l-0.109,0.083
		l-0.064-0.141l0.013-0.113l0.062-0.326c0.063-0.352,0.145-0.61,0.243-0.788l0.203-0.376l0.059-0.196
		c0-0.281-0.286-0.535-0.638-0.569l-0.124-0.079l0.231-0.282c0.243-0.185,0.56-0.315,0.763-0.315c0.124,0,0.312,0.049,0.547,0.143
		l0.265,0.11l0.27,0.062c0.282,0,0.556-0.258,0.893-0.836C4.984,10.135,5.05,9.947,5.05,9.777c0-0.306-0.145-0.494-0.385-0.494
		c-0.179,0-0.379,0.087-0.524,0.229L3.957,9.887l0.003,0.136l0.004,0.032l-0.108,0.173c-0.115,0-0.281-0.164-0.756-0.74
		c-0.356-0.43-0.435-0.612-0.447-1.042C2.241,7.924,2.139,7.701,2.139,7.327l0.014-0.248c-0.282-0.344-0.362-0.53-0.362-0.843
		l0.086-0.321C1.732,5.703,1.685,5.607,1.646,5.443L1.587,5.187l-0.195-0.45l-0.124-0.23c0-0.142,0.098-0.196,0.523-0.3L1.768,3.938
		l0.034-0.29l0.085-0.449C1.924,3.018,1.94,2.889,1.94,2.811c0-0.083-0.012-0.142-0.087-0.385L1.744,2.147L1.67,1.979l0.083-0.066
		c0.118,0,0.437,0.191,0.766,0.462C3.213,2.951,3.358,3.182,3.452,3.88l0.035,0.243c0.336,0.242,0.509,0.54,0.509,0.857
		c0,0.251-0.09,0.543-0.241,0.776L3.512,6.134L3.404,6.532c0,0.231,0.064,0.44,0.228,0.728c0.187,0.327,0.346,0.461,0.54,0.461
		c0.319,0,0.6-0.557,0.6-1.189V6.448L4.768,6.229l0.028-0.399c0.022-0.189,0.034-0.307,0.036-0.35l0.013-0.294l0.004-0.192
		l-0.125-0.23L4.459,4.472C4.07,4.053,3.86,3.656,3.86,3.36c0-0.365,0.266-0.643,0.618-0.643l0.258,0.047V2.681
		c0-0.534,0.109-0.928,0.256-0.928L5.05,1.771l0.218,0.194l0.265,0.168l0.076,0.073l0.157-0.339l0.17-0.231l0.12-0.178l0.06-0.112
		l0.101-0.09l0.106,0.176c0.028,0.083,0.047,0.105,0.255,0.29l0.144,0.16l0.098,0.24L6.856,2.22l0.242-0.221l0.183-0.106L7.413,1.83
		l0.061,0.074l0.097,0.182C7.7,2.312,7.742,2.418,7.742,2.524L7.741,2.643v0.145C8.137,2.913,8.288,3.12,8.288,3.547
		c0,0.308-0.161,0.662-0.474,1.037C7.604,4.83,7.581,4.879,7.581,5.051c0,0.896,0.623,1.418,1.722,1.433l0.811,0.012
		c0.522,0.01,0.834,0.061,1.321,0.218c0.578,0.186,0.744,0.231,0.911,0.231l0.156-0.05l0.072-0.106c0-0.169-0.297-0.308-1.273-0.583
		C9.303,5.641,8.456,4.835,8.456,3.512c0-1.023,0.851-1.815,1.948-1.815c0.357,0,0.901,0.092,1.211,0.207l0.499,0.182l0.26,0.05
		c0.168,0,0.255-0.14,0.261-0.425l0.138-0.206c0.14,0,0.354,0.173,0.552,0.447c0.2,0.278,0.329,0.589,0.329,0.795
		c0,0.276-0.13,0.467-0.424,0.636c-0.273,0.413-0.607,0.603-1.057,0.603c-0.351,0-0.849-0.196-1.671-0.664
		c-0.286-0.162-0.431-0.217-0.584-0.217c-0.214,0-0.352,0.124-0.352,0.312c0,0.176,0.134,0.29,0.489,0.414
		c0.524,0.183,0.653,0.255,0.861,0.474c0.617,0.104,0.885,0.212,1.273,0.507c1.062,0.337,1.72,1.061,1.72,1.895
		c0,0.807-0.547,1.389-1.307,1.389C12.421,8.096,12.308,8.085,12.029,8.023"/>
	<path clip-path="url(#SVGID_2_)" fill="#FFDE26" d="M13.23,13.33l-0.046-0.291l0.008-0.097l0.038-0.193l0.013-0.158l-0.087-0.363
		l-0.145-0.194l-0.121-0.232l-0.024-0.1l0.086-0.091l0.158,0.071l0.116,0.042c0.072,0,0.113-0.117,0.113-0.324
		c0-0.233-0.022-0.362-0.071-0.421l-0.184-0.206l-0.159-0.131l-0.063-0.108l0.102-0.087l0.266,0.06l0.055,0.011l0.069-0.098
		l-0.004-0.047l-0.035-0.254l-0.072-0.266l-0.092-0.1L13.12,9.757l-0.302,0.059L12.769,9.82c-0.397,0-0.816-0.336-0.944-0.755
		l-0.241-0.787c-0.077-0.244-0.26-0.475-0.585-0.741l-0.24-0.13l-0.22-0.026l-0.067-0.06l0.153-0.073l0.399,0.035
		c0.145,0.015,0.365,0.07,0.655,0.171c0.364,0.124,0.607,0.177,0.812,0.177c0.606,0,0.97-0.328,0.97-0.876
		c0-0.376-0.199-0.797-0.496-1.071l-0.401-0.268L12.502,5.48l0.012,0.154V5.65l-0.08,0.106l-0.213-0.242
		c-0.228-0.476-0.59-0.758-0.968-0.758l-0.107,0.063l0.06,0.176l0.098,0.217l0.037,0.11l-0.049,0.03l-0.209-0.114l-0.179-0.196
		L10.746,4.8c-0.125-0.193-0.229-0.281-0.499-0.424L9.959,4.219l-0.152-0.05L9.743,4.233L9.79,4.364l0.123,0.243L9.85,4.679
		c-0.093,0-0.286-0.191-0.461-0.448C9.246,4.017,9.17,3.779,9.17,3.548c0-0.519,0.38-0.907,0.896-0.907
		c0.262,0,0.6,0.114,0.911,0.304l0.566,0.352c0.2,0.124,0.492,0.219,0.666,0.219l0.355-0.062l0.144-0.059l0.057-0.069l-0.032-0.053
		L12.661,3.25l-0.268-0.051L12.066,3.08c-0.317-0.145-0.523-0.25-0.606-0.304c-0.199-0.131-0.332-0.208-0.399-0.229l-0.16-0.117
		l0.055-0.053l0.127,0.047l0.448,0.17l0.524,0.182c0.258,0.089,0.635,0.169,0.806,0.169c0.219,0,0.399-0.179,0.399-0.401
		l-0.213-0.53l-0.082-0.062L12.89,2.05l0.012,0.098l0.02,0.142l-0.241,0.282l-0.19-0.039l-0.788-0.254
		C11.044,2.067,10.736,2,10.407,2C9.466,2.003,8.746,2.65,8.746,3.5c0,0.963,0.676,1.587,2.35,2.159
		c1.647,0.567,1.879,0.703,1.879,1.128c0,0.244-0.247,0.461-0.523,0.461l-0.29-0.025c-0.055-0.012-0.33-0.076-0.823-0.194
		C10.842,6.91,10.39,6.86,9.832,6.86c-1.189,0-1.85,0.207-2.419,0.764l-0.354,0.16L6.977,7.78l-0.17-0.011H6.785L6.444,7.987
		C6.315,8.191,6.247,8.302,6.24,8.314L6.101,8.386c-0.109,0-0.174-0.081-0.3-0.374L5.549,7.646L5.306,7.428l-0.06-0.093l0.045-0.112
		l0.173-0.316l0.101-0.168c0.076,0,0.098,0.074,0.103,0.352l0.098,0.326L5.9,7.707L6.009,7.77c0.125,0,0.285-0.295,0.327-0.607
		c0.035-0.261,0.06-0.341,0.116-0.341l0.053,0.026l0.11,0.217l0.156,0.183l0.147,0.086L6.93,7.335c0.099,0,0.135-0.063,0.156-0.295
		L7.1,6.92L7.074,6.75L7.058,6.633l0.07-0.125l0.093,0.05L7.34,6.679l0.242,0.119l0.161-0.106L7.63,6.413L7.547,6.254
		C7.449,6.072,7.374,5.999,7.282,5.999L7.157,6.011L7.014,6.072L6.937,6.1L6.879,6.052c0-0.109,0.072-0.28,0.207-0.496
		C7.183,5.404,7.25,5.077,7.282,4.607c0.041-0.633,0.124-1.044,0.212-1.044l0.084,0.186L7.571,3.915L7.567,4.033l0.055,0.203
		c0.103,0,0.226-0.156,0.324-0.404l0.061-0.249L7.995,3.527L7.752,3.08L7.511,3.007L7.426,2.952V2.79V2.655L7.402,2.51L7.353,2.388
		l-0.06-0.131C7.027,2.399,6.901,2.494,6.807,2.619L6.614,2.792L6.552,2.729l0.037-0.196l0.01-0.068c0-0.26-0.16-0.517-0.421-0.683
		L6.103,1.881L6.02,2L5.874,2.171l-0.12,0.241l-0.025,0.14v0.017L5.73,2.614L5.674,2.743L5.643,2.728L5.559,2.606L5.425,2.463
		L5.221,2.329L5.11,2.243L5.065,2.352L5.003,2.547L4.989,2.74L4.978,2.945l0.001,0.037l-0.09,0.146L4.747,3.069L4.574,3.018
		c-0.19,0-0.311,0.13-0.311,0.336c0,0.241,0.07,0.472,0.197,0.634l0.153,0.206l0.129,0.071l0.03-0.253L4.735,3.806L4.729,3.714
		l0.07-0.127c0.07,0,0.112,0.077,0.157,0.28l0.094,0.45l0.098,0.569l0.143,0.482c0.098,0.23,0.168,0.369,0.207,0.426l0.149,0.233
		L5.596,6.084l-0.11-0.036L5.341,5.999L5.248,5.984c-0.196,0-0.237,0.17-0.237,0.978c0,0.493,0.104,1.162,0.235,1.487l0.252,0.64
		l0.061,0.302c0,0.883-1.172,2.268-2.46,2.909c-0.479,0.238-0.631,0.466-0.663,0.992l-0.014,0.159
		c0.195-0.101,0.274-0.133,0.413-0.168c0.36-0.097,0.429-0.141,0.483-0.317l0.05-0.158c0.017-0.058,0.048-0.08,0.326-0.23
		l0.193-0.157l0.146-0.157l0.045,0.04l-0.011,0.043l-0.119,0.346l-0.015,0.086c0,0.256,0.14,0.466,0.404,0.598
		c0.042-0.279,0.073-0.375,0.159-0.508l0.217-0.339c0.08-0.127,0.112-0.278,0.112-0.52l-0.028-0.377l-0.008-0.096l0.086-0.096
		l0.081,0.036l0.047,0.228l0.116,0.086c0.118,0,0.27-0.153,0.43-0.424l0.088-0.32L5.62,10.882l-0.036-0.181l-0.003-0.037
		l0.107-0.131l0.053,0.021l0.072,0.281l0.156,0.158l0.305-0.304c0.072-0.144,0.111-0.309,0.111-0.495c0-0.26,0.026-0.333,0.12-0.333
		l0.062,0.03l0.048,0.156l0.083,0.098l0.279-0.304l0.037-0.114L6.905,9.562L6.769,9.283c0-0.151,0.027-0.233,0.136-0.422
		l0.158-0.293c0.152-0.301,0.209-0.377,0.262-0.377l0.09,0.107l-0.028,0.1L7.34,8.541L7.429,8.63l0.215-0.073
		C7.676,8.536,7.79,8.494,7.982,8.422l0.402-0.144L8.627,8.24l0.214,0.026l0.28,0.048l0.208-0.201L9.134,7.744L9.072,7.632
		l0.015-0.047l0.065-0.048c0.08,0,0.27,0.205,0.443,0.475c1.042,1.643,1.418,2.04,2.122,2.254c0.711,0.216,0.897,0.382,0.897,0.807
		c0,0.229-0.119,0.501-0.378,0.863c-0.526,0.737-0.654,1.035-0.654,1.523l0.002,0.089l0.133-0.059l0.192-0.086l0.302-0.061
		l0.172-0.247l-0.002-0.031l-0.036-0.267l-0.001-0.035l0.11-0.256l0.062-0.026l0.098,0.074l0.192,0.412
		C12.885,13.134,12.978,13.216,13.23,13.33"/>
	<path clip-path="url(#SVGID_2_)" fill="#FFDE26" d="M3.46,4.545L3.316,4.788l-0.023,0.23C3.265,5.233,3.264,5.255,3.264,5.31
		l0.119,0.301l0.264-0.315l0.052-0.284L3.647,4.74L3.46,4.545z"/>
	<path clip-path="url(#SVGID_2_)" fill="#FFDE26" d="M2.458,2.776l0.171,0.169c0.275,0.277,0.41,0.736,0.41,1.387
		c0,0.143-0.006,0.241-0.036,0.625C2.987,5.158,2.978,5.326,2.978,5.458c0,1.501,0.49,2.637,1.136,2.637
		c0.203,0,0.336-0.096,0.525-0.388L4.75,7.62l0.058,0.101l0.026,0.267l0.022,0.228l0.025,0.255l0.036,0.231l0.001,0.03L4.834,8.846
		L4.613,8.884L4.276,9.016C4.092,9.127,3.982,9.211,3.961,9.258l-0.132,0.28l-0.078,0.06c-0.07,0-0.184-0.122-0.313-0.34
		C3.327,9.074,3.261,8.924,3.261,8.863l0.105-0.052h0.025l0.157,0.011l0.096-0.011L3.754,8.8l0.075-0.087L3.778,8.64L3.234,8.411
		C3.068,8.34,2.92,8.2,2.821,8.011C2.672,7.725,2.602,7.553,2.602,7.465l0.099-0.123l0.085,0.027L2.94,7.418l0.087-0.076L2.931,7.21
		C2.475,6.88,2.214,6.501,2.214,6.172l0.069-0.134l0.09,0.009l0.158,0.025h0.006l0.106-0.093L2.541,5.866L2.347,5.757L2.18,5.587
		c-0.021-0.033-0.089-0.16-0.207-0.388l-0.17-0.327L1.694,4.667L1.62,4.57l0.377-0.098c0.167,0,0.272,0.106,0.39,0.4
		C2.459,5.058,2.54,5.183,2.584,5.183l0.034-0.142L2.567,4.68L2.531,4.412l-0.025-0.17L2.36,4.169l-0.107-0.12L2.155,3.771
		l0.038-0.219C2.314,3.09,2.349,2.91,2.349,2.76L2.347,2.656L2.458,2.776z"/>
	<path clip-path="url(#SVGID_2_)" fill="#FFDE26" d="M3.912,11.512L3.56,11.427l-0.229-0.096c-0.197-0.084-0.344-0.121-0.464-0.121
		c-0.185,0-0.333,0.06-0.503,0.205L2.471,11.5l0.24,0.171l0.233,0.181l0.199,0.074C3.38,11.926,3.586,11.815,3.912,11.512"/>
	<path clip-path="url(#SVGID_2_)" fill="#FFDE26" d="M8.576,13.718l0.243-0.314c0.337-0.292,0.496-0.508,0.496-0.68v-0.121v-0.145
		l0.11-0.206l0.072,0.036l0.061,0.145l0.102,0.055l0.176-0.14l0.123-0.169l0.087-0.236l-0.026-0.14L9.934,11.61l-0.049-0.191
		l0.108-0.125l0.087,0.036l0.095,0.121l0.093,0.042l0.126-0.104l0.098-0.192l0.037-0.108l-0.111-0.109l-0.155-0.074
		c-0.211-0.097-0.366-0.428-0.366-0.776L9.92,9.998l0.086-0.205l0.036-0.195L9.92,9.223L9.764,8.967
		C9.693,8.776,9.657,8.722,9.595,8.722L9.533,8.739L9.449,8.786L9.315,8.858L9.157,9.054L8.99,9.137L8.792,9.582
		c0,0.316,0.034,0.403,0.45,1.119c0.163,0.278,0.249,0.517,0.249,0.693c0,0.496-0.448,0.852-1.338,1.064L7.597,12.59
		c-0.412,0.099-0.653,0.381-0.741,0.864c0.17-0.089,0.237-0.103,0.538-0.103l0.176,0.003h0.031l0.285-0.158l0.4-0.337l0.193-0.085
		l0.157-0.086l0.05-0.015l0.067,0.051l-0.117,0.207c-0.138,0.155-0.193,0.285-0.193,0.467L8.576,13.718z"/>
	<path clip-path="url(#SVGID_2_)" fill="#FFDE26" d="M7.05,11.84l0.364,0.326l0.247,0.171l0.177-0.026l0.109-0.022
		c0.199-0.039,0.267-0.07,0.267-0.119l-0.061-0.099l-0.132-0.122l-0.134-0.121l-0.399-0.137C7.343,11.691,7.257,11.722,7.05,11.84"
		/>
	<path clip-path="url(#SVGID_2_)" fill="#FFDE26" d="M10.976,12.494l0.073-0.012l0.11-0.013l0.108,0.013l0.051,0.003
		c0.27,0,0.528-0.229,0.528-0.468l-0.212-0.129C11.31,11.888,11.102,12.075,10.976,12.494"/>
	<path clip-path="url(#SVGID_2_)" fill="#2F2F27" d="M6.457,4.122l0.13,0.205c0.053,0,0.113-0.132,0.238-0.346
		c0.17-0.293,0.336-0.577,0.336-0.729L7.099,3.161L7.087,3.165L6.953,3.284c-0.096,0.089-0.174,0.129-0.411,0.22L6.354,3.708
		l0.018,0.098l0.059,0.171L6.457,4.122z"/>
	<path clip-path="url(#SVGID_2_)" fill="#2F2F27" d="M5.718,3.491l0.203,0.109l0.088,0.118L5.996,3.794L5.987,4.051
		c-0.01,0.216-0.175,0.215-0.239,0.215L5.631,4.133L5.366,3.832C5.284,3.738,5.212,3.526,5.184,3.285V3.253l0.072-0.09L5.39,3.226
		L5.718,3.491z"/>
	<path clip-path="url(#SVGID_2_)" fill="#2F2F27" d="M6.189,4.764H6.123L5.984,4.752L5.838,4.666L5.665,4.618L5.484,4.769
		c0,0.102,0.048,0.266,0.16,0.54l0.157,0.387c0.14,0.341,0.274,0.486,0.451,0.486c0.16,0,0.181-0.156,0.287-0.424
		c0.244-0.61,0.376-0.699,0.376-0.915L6.752,4.655L6.636,4.628L6.444,4.752L6.189,4.764z"/>
	<polygon clip-path="url(#SVGID_2_)" fill="#FFDE26" points="6.372,5.067 6.177,5.103 6.022,5.103 5.958,5.14 5.937,5.199 
		5.995,5.489 6.043,5.745 6.228,5.939 6.431,5.709 6.457,5.442 6.481,5.165 6.445,5.09 6.384,5.064 	"/>
	<path clip-path="url(#SVGID_2_)" fill="#2B2C2C" d="M34.639,8.023l0.047,0.181l0.099,0.388c0.151,0.691,0.28,0.875,0.617,0.875
		c0.19,0,0.352-0.108,0.401-0.269l0.073-0.242l0.114-0.088c0.13,0,0.201,0.145,0.212,0.441c0.004,0.112,0.027,0.308,0.071,0.591
		c0.034,0.203,0.05,0.391,0.05,0.562l-0.073,0.346l0.023,0.147c0.043,0.237,0.053,0.333,0.053,0.444c0,0.52-0.026,0.673-0.149,0.878
		c0.051,0.196,0.065,0.29,0.065,0.431c0,0.093-0.014,0.223-0.04,0.427l-0.05,0.364l0.014,0.218l0.047,0.145l-0.047,0.062
		l-0.243-0.098l-0.265-0.144l-0.279-0.218c-0.236,0.206-0.269,0.226-0.548,0.303c-0.399,0.111-0.548,0.161-0.628,0.22l-0.168,0.082
		c-0.094,0-0.159-0.183-0.159-0.449c0-0.387,0.023-0.588,0.085-0.74c-0.238-0.079-0.356-0.109-0.441-0.109l-0.18,0.025l-0.052,0.005
		l-0.055-0.115c0-0.119,0.085-0.356,0.195-0.556c0.151-0.27,0.403-0.495,0.593-0.534l0.435-0.084
		c0.261-0.051,0.415-0.188,0.415-0.368c0-0.175-0.114-0.289-0.377-0.383l-0.508-0.181l-0.487-0.231l-0.263-0.159l-0.135-0.034
		l-0.172,0.208c0,0.204,0.159,0.373,0.352,0.373l0.12-0.024l0.114-0.036l0.095,0.129c0,0.214-0.137,0.588-0.28,0.768l-0.145,0.181
		L33.076,11.9c-0.04,0.314-0.348,0.76-0.654,0.957l-0.133,0.097l-0.098,0.168l-0.24,0.294l-0.304,0.277l-0.243,0.217l-0.124,0.207
		l-0.092,0.065c-0.109,0-0.208-0.115-0.27-0.305l-0.175-0.184l-0.213,0.035l-0.167,0.025h-0.425c-0.23,0-0.536,0.054-0.679,0.124
		l-0.123,0.037l-0.097-0.186c0-0.383,0.296-0.965,0.681-1.342c-0.056-0.223-0.176-0.373-0.326-0.414l-0.221-0.06l-0.033-0.058
		c0-0.078,0.084-0.154,0.276-0.244c0.347-0.164,0.445-0.195,0.638-0.195c0.221,0,0.406,0.075,0.634,0.257
		c0.329,0.253,0.419,0.302,0.578,0.302c0.257,0,0.506-0.235,0.506-0.486c0-0.167-0.093-0.352-0.321-0.642
		c-0.322-0.412-0.435-0.681-0.435-1.03c0-0.235,0.046-0.363,0.255-0.701l0.05-0.13l-0.233-0.128c-0.129,0-0.29,0.047-0.507,0.148
		c-0.364,0.168-0.584,0.322-0.584,0.417l0.061,0.104l0.123,0.084l0.026,0.05l-0.052,0.095c-0.021,0.027-0.106,0.132-0.242,0.316
		c-0.169,0.224-0.33,0.395-0.507,0.533l-0.124,0.121l-0.095,0.181c-0.082,0.152-0.321,0.403-0.523,0.547l-0.169,0.131l-0.109,0.171
		c-0.124,0.223-0.318,0.495-0.447,0.631l-0.326,0.339c-0.095,0.096-0.227,0.377-0.352,0.749C27.16,13.768,27.097,13.9,27.05,13.9
		l-0.092-0.074c-0.234-0.269-0.446-0.437-0.551-0.437l-0.14,0.061l-0.329,0.123l-0.435,0.085c-0.364,0.07-0.509,0.148-0.678,0.364
		l-0.098,0.083l-0.072-0.149l0.01-0.105c0.004-0.011,0.026-0.122,0.062-0.326c0.062-0.347,0.151-0.631,0.243-0.788l0.22-0.376
		l0.059-0.196c0-0.28-0.26-0.507-0.656-0.569l-0.12-0.088l0.242-0.273c0.259-0.195,0.54-0.315,0.743-0.315
		c0.134,0,0.314,0.047,0.553,0.143l0.267,0.11l0.27,0.062c0.281,0,0.557-0.258,0.892-0.836c0.154-0.264,0.22-0.45,0.22-0.625
		c0-0.306-0.142-0.491-0.383-0.491c-0.186,0-0.366,0.08-0.515,0.229L26.563,9.9l0.005,0.123l0.007,0.064l-0.106,0.141
		c-0.091,0-0.199-0.089-0.407-0.338l-0.341-0.402c-0.368-0.43-0.445-0.602-0.461-1.042c-0.409-0.522-0.513-0.815-0.513-1.119
		l0.016-0.248c-0.294-0.355-0.353-0.492-0.353-0.838l0.074-0.326c-0.142-0.212-0.188-0.308-0.23-0.472l-0.06-0.256l-0.192-0.45
		l-0.124-0.224c0-0.125,0.123-0.207,0.427-0.281l0.096-0.025l-0.023-0.269l0.034-0.29l0.085-0.449l0.05-0.396
		c0-0.106-0.016-0.188-0.074-0.377l-0.121-0.279l-0.072-0.16l0.095-0.073l0.122,0.038c0.41,0.223,0.856,0.579,1.175,0.934
		c0.274,0.303,0.363,0.558,0.425,1.237c0.372,0.276,0.509,0.525,0.509,0.919c0,0.232-0.077,0.459-0.241,0.714
		c-0.151,0.227-0.229,0.352-0.243,0.378l-0.111,0.409c0,0.22,0.066,0.425,0.232,0.717c0.18,0.319,0.343,0.461,0.535,0.461
		c0.318,0,0.605-0.551,0.605-1.154l-0.002-0.119V6.119l0.04-0.288l0.019-0.35l0.025-0.294l0.01-0.163
		c0-0.118-0.026-0.153-0.395-0.552c-0.412-0.44-0.608-0.812-0.608-1.158c0-0.324,0.279-0.597,0.616-0.597l0.258,0.047V2.619
		l0.01-0.255l0.073-0.314c0.058-0.251,0.083-0.297,0.173-0.297l0.058,0.018l0.218,0.194l0.268,0.168l0.07,0.073l0.158-0.339
		l0.171-0.231l0.119-0.178l0.074-0.112l0.102-0.09l0.093,0.176l0.109,0.157l0.157,0.133c0.128,0.109,0.212,0.269,0.264,0.498
		l0.244-0.221l0.196-0.106l0.127-0.062l0.054,0.073l0.097,0.182c0.155,0.251,0.17,0.287,0.17,0.457l-0.003,0.1v0.145
		c0.395,0.109,0.548,0.319,0.548,0.756c0,0.325-0.149,0.663-0.462,1.04c-0.209,0.246-0.241,0.324-0.241,0.51
		c0,0.857,0.642,1.375,1.732,1.39l0.798,0.012c0.523,0.01,0.843,0.061,1.322,0.218c0.559,0.182,0.744,0.231,0.914,0.231l0.225-0.151
		c0-0.174-0.293-0.313-1.27-0.588c-1.998-0.564-2.848-1.372-2.848-2.694c0-1.024,0.852-1.814,1.957-1.814
		c0.35,0,0.896,0.093,1.204,0.206l0.497,0.182l0.259,0.05c0.17,0,0.236-0.108,0.262-0.425l0.149-0.206
		c0.126,0,0.373,0.198,0.554,0.447c0.183,0.254,0.313,0.593,0.313,0.812c0,0.259-0.133,0.456-0.423,0.619
		c-0.271,0.413-0.605,0.603-1.055,0.603c-0.345,0-0.932-0.231-1.671-0.664c-0.29-0.17-0.418-0.217-0.579-0.217
		c-0.219,0-0.358,0.12-0.358,0.312c0,0.178,0.129,0.287,0.487,0.414c0.578,0.204,0.699,0.269,0.862,0.474
		c0.618,0.104,0.884,0.212,1.272,0.507c1.107,0.355,1.722,1.038,1.722,1.912c0,0.797-0.54,1.37-1.292,1.37
		C35.027,8.094,34.924,8.085,34.639,8.023"/>
	<path clip-path="url(#SVGID_2_)" fill="#FFDE26" d="M35.838,13.33L35.8,13.107l0.014-0.165c0.029-0.227,0.04-0.333,0.04-0.471
		l-0.089-0.243l-0.145-0.194l-0.132-0.33l0.065-0.094l0.054,0.012l0.111,0.06l0.12,0.042c0.074,0,0.11-0.114,0.11-0.341
		c0-0.316-0.062-0.466-0.243-0.61l-0.169-0.131l-0.048-0.101l0.087-0.095l0.143,0.022l0.135,0.039l0.048,0.011l0.061-0.102
		l-0.004-0.043l-0.033-0.254c-0.041-0.266-0.083-0.365-0.161-0.365l-0.023,0.003l-0.315,0.059L35.373,9.82
		c-0.377,0-0.824-0.357-0.938-0.755l-0.231-0.787c-0.069-0.238-0.276-0.497-0.583-0.741l-0.253-0.13l-0.217-0.026l-0.069-0.059
		l0.132-0.075c0.309,0,0.635,0.063,1.073,0.207c0.397,0.131,0.615,0.177,0.811,0.177c0.606,0,0.972-0.316,0.972-0.839
		c0-0.264-0.096-0.595-0.232-0.806c-0.115-0.179-0.317-0.368-0.568-0.531l-0.098-0.039l-0.059,0.062l0.011,0.156V5.65l-0.078,0.106
		l-0.214-0.242c-0.221-0.472-0.583-0.758-0.952-0.758l-0.128,0.078l0.064,0.161l0.108,0.217l0.03,0.105L33.9,5.352l-0.205-0.114
		l-0.182-0.195L33.354,4.8c-0.121-0.188-0.256-0.306-0.484-0.424l-0.303-0.157l-0.156-0.05l-0.055,0.055l0.054,0.14l0.111,0.24
		l-0.059,0.075c-0.086,0-0.238-0.153-0.453-0.448c-0.151-0.213-0.231-0.445-0.231-0.683c0-0.506,0.394-0.907,0.902-0.907
		c0.256,0,0.584,0.11,0.905,0.304l0.581,0.352c0.207,0.127,0.49,0.219,0.663,0.219c0.099,0,0.128-0.007,0.343-0.062l0.158-0.059
		l0.043-0.072L35.27,3.25c-0.271-0.023-0.83-0.241-1.202-0.474c-0.213-0.137-0.346-0.212-0.399-0.229l-0.165-0.129l0.051-0.03
		l0.071,0.014l0.527,0.192l0.511,0.182c0.249,0.089,0.636,0.169,0.813,0.169c0.231,0,0.391-0.158,0.391-0.388L35.791,2.22
		l-0.212-0.268l-0.075,0.129l0.005,0.067l0.017,0.154l-0.228,0.27l-0.199-0.039l-0.788-0.254C33.628,2.059,33.363,2,33.026,2
		c-0.952,0-1.672,0.642-1.672,1.5c0,0.964,0.665,1.57,2.365,2.159c1.648,0.573,1.865,0.703,1.865,1.138
		c0,0.25-0.236,0.451-0.528,0.451l-0.284-0.025c-0.071-0.012-0.345-0.08-0.823-0.194c-0.507-0.122-0.936-0.169-1.507-0.169
		c-1.201,0-1.78,0.183-2.408,0.764l-0.365,0.16L29.587,7.78l-0.192-0.011l-0.341,0.218l-0.195,0.327l-0.138,0.072
		c-0.125,0-0.192-0.082-0.311-0.374l-0.24-0.366l-0.256-0.218l-0.06-0.089l0.06-0.116l0.108-0.168l0.062-0.148l0.011-0.109
		l0.086-0.059c0.08,0,0.095,0.054,0.098,0.352l0.097,0.326l0.133,0.29l0.11,0.063c0.126,0,0.283-0.295,0.325-0.607
		c0.036-0.257,0.061-0.341,0.116-0.341c0.049,0,0.073,0.031,0.174,0.243l0.145,0.183l0.147,0.086h0.012
		c0.1,0,0.136-0.062,0.156-0.294l0.014-0.12l-0.026-0.17l-0.015-0.117l0.072-0.125l0.091,0.05l0.121,0.121l0.244,0.119l0.167-0.118
		l-0.12-0.267l-0.084-0.159c-0.111-0.204-0.16-0.255-0.253-0.255L29.78,6.011l-0.158,0.061L29.528,6.1L29.49,6.052
		c0-0.111,0.07-0.281,0.204-0.496c0.084-0.129,0.155-0.455,0.207-0.949l0.062-0.57c0.036-0.35,0.074-0.474,0.146-0.474l0.049,0.026
		l0.036,0.181v0.145l0.039,0.321l0.203-0.162l0.12-0.242l0.061-0.319c0-0.281-0.117-0.401-0.498-0.506l-0.072-0.039l-0.013-0.109
		V2.655L30.01,2.51l-0.047-0.122l-0.062-0.131l-0.097,0.059c-0.247,0.154-0.307,0.201-0.389,0.303l-0.192,0.172L29.161,2.74
		l0.05-0.207l0.005-0.036c0-0.265-0.149-0.52-0.417-0.715l-0.085,0.099L28.628,2l-0.145,0.171L28.349,2.53v0.039l0.002,0.041
		l-0.059,0.13l-0.027-0.012L28.17,2.606l-0.122-0.143l-0.219-0.134L27.72,2.243c-0.117,0.254-0.122,0.282-0.122,0.608v0.101
		l-0.094,0.176l-0.146-0.059l-0.18-0.051c-0.176,0-0.305,0.15-0.305,0.353c0,0.223,0.047,0.374,0.195,0.617l0.275,0.284l0.039-0.26
		l-0.039-0.206l-0.006-0.092l0.073-0.127c0.068,0,0.11,0.077,0.154,0.28l0.096,0.45l0.096,0.569l0.147,0.482
		c0.097,0.23,0.165,0.369,0.205,0.426l0.151,0.233l-0.053,0.057l-0.111-0.036L27.95,5.999l-0.087-0.015
		c-0.202,0-0.244,0.163-0.244,0.969c0,0.501,0.104,1.169,0.235,1.496l0.254,0.64l0.062,0.302c0,0.887-1.199,2.302-2.461,2.909
		c-0.492,0.236-0.637,0.482-0.679,1.151c0.209-0.099,0.296-0.132,0.425-0.168c0.357-0.102,0.434-0.15,0.485-0.317l0.048-0.158
		c0.02-0.067,0.066-0.1,0.314-0.23l0.194-0.157l0.145-0.156l0.052,0.065l-0.003,0.017l-0.134,0.346l-0.014,0.086
		c0,0.254,0.143,0.466,0.403,0.598l0.035-0.144c0.043-0.186,0.085-0.307,0.121-0.364l0.232-0.339
		c0.082-0.123,0.098-0.203,0.098-0.516l-0.014-0.381l-0.006-0.096l0.082-0.098l0.082,0.038l0.038,0.228l0.115,0.086
		c0.118,0,0.269-0.149,0.429-0.424l0.087-0.289l-0.04-0.377l-0.003-0.073l0.091-0.095l0.057,0.021l0.087,0.281l0.16,0.158
		c0.185,0,0.377-0.384,0.399-0.789c0.009-0.255,0.041-0.344,0.119-0.344l0.061,0.031l0.049,0.156l0.085,0.098l0.168-0.147
		l0.11-0.157l0.035-0.129l-0.109-0.15l-0.134-0.254c0-0.176,0.076-0.364,0.294-0.74c0.196-0.341,0.223-0.379,0.27-0.379l0.082,0.104
		l-0.027,0.105l-0.047,0.145l0.094,0.087l0.22-0.073l0.328-0.135c0.224-0.078,0.364-0.129,0.411-0.144l0.248-0.038l0.212,0.026
		l0.28,0.048l0.196-0.192l-0.076-0.208l-0.108-0.17l-0.074-0.108l0.015-0.051l0.067-0.048c0.094,0,0.283,0.196,0.451,0.475
		c0.948,1.55,1.411,2.04,2.108,2.254c0.729,0.218,0.9,0.373,0.9,0.807c0,0.229-0.121,0.507-0.379,0.863
		c-0.483,0.674-0.654,1.066-0.654,1.512l0.002,0.1l0.131-0.059l0.195-0.086l0.301-0.061l0.172-0.255l-0.002-0.023l-0.021-0.267
		l-0.003-0.042l0.163-0.274l0.094,0.073l0.193,0.412C35.493,13.134,35.586,13.216,35.838,13.33"/>
	<path clip-path="url(#SVGID_2_)" fill="#FFDE26" d="M25.904,5.018l-0.012,0.195L25.888,5.33c0,0.197,0.031,0.283,0.105,0.283
		l0.261-0.317l0.064-0.326l-0.064-0.231l-0.178-0.194C25.972,4.545,25.925,4.68,25.904,5.018"/>
	<path clip-path="url(#SVGID_2_)" fill="#FFDE26" d="M25.066,2.776l0.172,0.169c0.246,0.249,0.415,0.752,0.415,1.242l-0.006,0.202
		l-0.036,0.568l-0.012,0.475c0,1.586,0.461,2.665,1.139,2.665c0.172,0,0.379-0.156,0.522-0.39l0.098-0.087l0.059,0.101l0.026,0.267
		l0.021,0.228l0.039,0.255l0.034,0.237c0,0.123-0.023,0.138-0.316,0.176l-0.337,0.132c-0.188,0.121-0.298,0.205-0.315,0.242
		l-0.132,0.28l-0.078,0.06c-0.071,0-0.165-0.108-0.299-0.34c-0.124-0.213-0.178-0.337-0.178-0.393l0.105-0.055l0.026,0.001
		l0.145,0.011l0.109-0.011L26.365,8.8l0.072-0.092l-0.05-0.068l-0.545-0.229c-0.133-0.055-0.272-0.196-0.4-0.4
		c-0.138-0.223-0.22-0.417-0.22-0.528l0.094-0.141l0.09,0.027l0.142,0.049l0.063-0.025l0.039-0.058L25.553,7.21
		c-0.455-0.321-0.729-0.711-0.729-1.034l0.067-0.135l0.09,0.006l0.172,0.025l0.109-0.093l-0.109-0.113
		c-0.303-0.15-0.377-0.238-0.57-0.667c-0.15-0.328-0.226-0.466-0.354-0.629l0.378-0.098c0.168,0,0.27,0.106,0.386,0.4
		c0.074,0.186,0.156,0.311,0.202,0.311l0.032-0.14L25.176,4.68L25.14,4.412l-0.026-0.17l-0.133-0.073l-0.205-0.398L24.8,3.552
		l0.074-0.279c0.052-0.196,0.083-0.403,0.083-0.513V2.656L25.066,2.776z"/>
	<path clip-path="url(#SVGID_2_)" fill="#FFDE26" d="M26.52,11.512c-0.254-0.043-0.291-0.054-0.579-0.181
		c-0.201-0.088-0.327-0.121-0.456-0.121c-0.191,0-0.341,0.059-0.516,0.205l0.11,0.085l0.242,0.171l0.232,0.181l0.204,0.074
		C25.994,11.926,26.194,11.817,26.52,11.512"/>
	<path clip-path="url(#SVGID_2_)" fill="#FFDE26" d="M31.186,13.718l0.243-0.314c0.337-0.292,0.496-0.508,0.496-0.68v-0.121v-0.145
		l0.106-0.206l0.076,0.036l0.059,0.145l0.104,0.054c0.087,0,0.149-0.062,0.298-0.308l0.088-0.24l-0.029-0.136l-0.085-0.193
		l-0.048-0.191l0.106-0.125l0.09,0.036l0.095,0.121l0.064,0.042l0.154-0.104l0.098-0.192l0.036-0.11l-0.098-0.107l-0.169-0.074
		c-0.199-0.086-0.364-0.427-0.364-0.751l0.036-0.157l0.074-0.205l0.036-0.202l-0.12-0.368l-0.147-0.256
		c-0.071-0.18-0.111-0.239-0.173-0.239l-0.153,0.058l-0.122,0.072l-0.171,0.196l-0.168,0.083C31.496,9.188,31.4,9.41,31.4,9.591
		c0,0.261,0.056,0.402,0.452,1.11c0.168,0.299,0.246,0.521,0.246,0.688c0,0.496-0.502,0.902-1.326,1.069
		c-0.983,0.203-1.195,0.363-1.306,0.996c0.169-0.089,0.237-0.103,0.538-0.103l0.176,0.003h0.028l0.288-0.158l0.4-0.337l0.192-0.085
		l0.158-0.086l0.05-0.015l0.066,0.053l-0.116,0.205l-0.184,0.399L31.186,13.718z"/>
	<path clip-path="url(#SVGID_2_)" fill="#FFDE26" d="M29.659,11.84l0.363,0.326l0.248,0.171l0.176-0.026l0.109-0.022
		c0.205-0.041,0.27-0.07,0.27-0.124l-0.053-0.094l-0.145-0.122l-0.131-0.121l-0.383-0.134C29.961,11.694,29.84,11.733,29.659,11.84"
		/>
	<path clip-path="url(#SVGID_2_)" fill="#FFDE26" d="M33.583,12.494l0.073-0.012l0.12-0.013l0.098,0.013l0.066,0.003l0.238-0.053
		l0.23-0.279l0.048-0.136l-0.208-0.129C33.917,11.888,33.712,12.074,33.583,12.494"/>
	<path clip-path="url(#SVGID_2_)" fill="#2F2F27" d="M29.064,4.122l0.133,0.205c0.052,0,0.132-0.174,0.259-0.386
		c0.171-0.294,0.313-0.537,0.313-0.689l-0.062-0.091l-0.012,0.004l-0.134,0.122l-0.399,0.217l-0.201,0.204l0.018,0.098l0.104,0.211
		L29.064,4.122z"/>
	<path clip-path="url(#SVGID_2_)" fill="#2F2F27" d="M28,3.225l-0.136-0.059l-0.072,0.085l0.001,0.034l0.047,0.206
		C27.901,3.684,27.97,3.8,28,3.829l0.185,0.307l0.261,0.167h0.009l0.062-0.048l0.042-0.24l0.057-0.221l0.007-0.052l-0.091-0.141
		l-0.206-0.11L28,3.225z"/>
	<path clip-path="url(#SVGID_2_)" fill="#2F2F27" d="M28.799,4.764h-0.063l-0.141-0.012l-0.148-0.086l-0.17-0.048l-0.179,0.184
		c0,0.092,0.055,0.268,0.156,0.507l0.157,0.387c0.133,0.34,0.273,0.486,0.454,0.486c0.157,0,0.284-0.13,0.383-0.388l0.134-0.546
		l0.223-0.359l-0.289-0.274l-0.068,0.013l-0.184,0.124L28.799,4.764z"/>
	<polygon clip-path="url(#SVGID_2_)" fill="#FFDE26" points="28.981,5.067 28.789,5.103 28.641,5.103 28.578,5.14 28.543,5.199 
		28.604,5.489 28.652,5.745 28.806,5.939 29.041,5.709 29.066,5.442 29.09,5.165 29.054,5.09 28.99,5.064 	"/>
	<path clip-path="url(#SVGID_2_)" fill="#2B2C2C" d="M12.259,30.898c0.107,0.266,0.144,0.399,0.158,0.569l0.025,0.509
		c0.018,0.511,0.188,0.764,0.507,0.764l0.267-0.085l0.135-0.132l0.052-0.016l0.13,0.156l-0.014,0.197
		c-0.008,0.088,0.006,0.277,0.051,0.559l0.035,0.487c0,0.262-0.021,0.356-0.108,0.59c0.083,0.238,0.133,0.509,0.133,0.733
		c0,0.263-0.046,0.441-0.148,0.587c0.049,0.211,0.061,0.294,0.061,0.414c0,0.119-0.016,0.274-0.046,0.46
		c-0.044,0.253-0.063,0.449-0.05,0.58v0.031l-0.071,0.114l-0.149-0.096l-0.176-0.129c-0.083,0-0.11,0.043-0.233,0.408
		c-0.041,0.111-0.139,0.262-0.293,0.448l-0.219,0.351l-0.071,0.254l-0.074,0.062l-0.015,0.001c-0.201,0-0.427-0.429-0.663-1.237
		c-0.066-0.228-0.149-0.33-0.273-0.33L11,37.285l-0.071,0.17l-0.066,0.05c-0.095,0-0.244-0.179-0.335-0.4
		c-0.076-0.186-0.12-0.387-0.12-0.559c0-0.379,0.282-0.662,1.127-1.14c0.366-0.207,0.509-0.469,0.509-0.942
		c0-0.377-0.114-0.594-0.437-0.838c-0.257-0.194-0.404-0.268-0.539-0.268l-0.206,0.173l0.224,0.239
		c0.184,0.068,0.268,0.131,0.268,0.217c0,0.075-0.081,0.24-0.207,0.438c-0.139,0.21-0.198,0.271-0.388,0.401
		c-0.058,0.333-0.214,0.545-0.58,0.787c-0.074,0.208-0.119,0.281-0.244,0.447L9.679,36.39l-0.181,0.375
		c-0.027,0.184-0.045,0.217-0.116,0.217c-0.095,0-0.294-0.17-0.49-0.421l-0.157-0.403c-0.126,0.1-0.165,0.113-0.412,0.146
		L7.995,36.39c-0.187,0.098-0.246,0.124-0.279,0.124l-0.073-0.112L7.63,36.134c0-0.367,0.145-0.793,0.364-1.079
		C7.783,34.869,7.572,34.76,7.4,34.739l-0.09-0.042l0.115-0.226l0.217-0.24c0.172-0.147,0.47-0.256,0.704-0.256
		c0.157,0,0.389,0.059,0.691,0.173l0.29,0.06l0.206-0.239c0-0.223-0.106-0.565-0.351-1.119c-0.165-0.373-0.24-0.625-0.24-0.8
		c0-0.42,0.196-0.856,0.446-0.98l-0.267-0.074l-0.375,0.122l-0.278,0.259l0.097,0.104l0.107,0.179c0,0.301-0.244,0.7-0.592,0.962
		c-0.077,0.425-0.273,0.682-0.655,0.857c-0.049,0.232-0.082,0.299-0.266,0.561c-0.316,0.443-0.391,0.583-0.449,0.835l-0.099,0.185
		L6.333,34.85l-0.192-0.232c-0.051-0.078-0.078-0.155-0.132-0.386L5.835,34.26l-0.179-0.002l-0.121-0.004
		c-0.264,0-0.548,0.06-0.693,0.148l-0.103,0.047c-0.078,0-0.141-0.164-0.141-0.368c0-0.435,0.121-0.798,0.404-1.193l-0.232-0.219
		l-0.096-0.086L4.542,32.51L4.47,32.431c0-0.063,0.176-0.233,0.388-0.368c0.232-0.15,0.415-0.22,0.585-0.22
		c0.201,0,0.305,0.054,0.552,0.269l0.374,0.22l0.172-0.111l0.063-0.182c0-0.231-0.276-0.621-0.582-0.823
		c-0.231-0.149-0.48-0.231-0.724-0.231c-0.337,0-0.627,0.169-0.756,0.438l-0.131,0.276l-0.118,0.102
		c-0.077,0-0.119-0.035-0.393-0.355l-0.315-0.362l-0.196-0.313l-0.059-0.16l-0.12-0.098c-0.243-0.171-0.421-0.514-0.522-1.005
		l-0.036-0.158c-0.296-0.364-0.474-0.814-0.474-1.203l0.028-0.165c-0.175-0.176-0.194-0.217-0.329-0.68
		c-0.096-0.33-0.157-0.471-0.28-0.63l-0.048-0.093l0.279-0.148l0.245-0.029l0.242,0.017l-0.018-0.331
		c0-0.195,0.018-0.321,0.066-0.553l0.036-0.254L2.374,25.07l-0.037-0.18l-0.025-0.105l0.072-0.059l0.16,0.053
		c0.211,0.104,0.384,0.209,0.521,0.315c0.417,0.328,0.746,0.83,0.746,1.144l-0.006,0.093L3.776,26.51l0.087,0.196l0.133,0.183
		l0.196,0.476c0,0.112-0.025,0.163-0.22,0.445c-0.146,0.213-0.208,0.368-0.208,0.542c0,0.218,0.087,0.496,0.244,0.766
		c0.141,0.253,0.309,0.391,0.465,0.391c0.271,0,0.389-0.239,0.431-0.888c0.021-0.337,0.056-0.64,0.098-0.919l0.013-0.166L4.894,27.3
		l-0.364-0.423c-0.346-0.404-0.452-0.612-0.452-0.902c0-0.335,0.22-0.567,0.537-0.567l0.145,0.016v-0.095L4.819,25
		c0.076-0.262,0.172-0.462,0.225-0.462L5.161,24.6l0.218,0.084l0.24,0.121c0.061-0.21,0.104-0.305,0.195-0.424
		c0.156-0.202,0.334-0.363,0.396-0.363l0.196,0.145l0.231,0.243l0.136,0.23l0.047,0.108l0.145-0.084l0.195-0.109l0.229-0.109
		l0.125-0.063c0.041,0,0.065,0.074,0.155,0.475c0.061,0.274,0.071,0.333,0.086,0.535c0.386,0.054,0.568,0.275,0.568,0.689
		c0,0.392-0.192,0.779-0.606,1.223l-0.138,0.292c0,1.072,0.37,1.408,1.713,1.552c0.825,0.087,1.069,0.137,2.059,0.435
		c0.521,0.156,0.82,0.223,1.014,0.223c0.228,0,0.357-0.084,0.357-0.231c0-0.225-0.163-0.296-1.125-0.501
		c-2.247-0.473-3.128-1.238-3.128-2.72c0-1.057,0.788-1.848,1.844-1.848c0.463,0,0.879,0.141,1.535,0.521
		c0.609,0.354,0.737,0.413,0.877,0.413c0.162,0,0.228-0.106,0.228-0.366l0.156-0.253l0.374,0.254c0.202,0.238,0.28,0.358,0.28,0.689
		c0,0.438-0.234,0.724-0.691,0.851l-0.107,0.121c-0.25,0.281-0.469,0.376-0.866,0.376c-0.345,0-0.778-0.14-1.077-0.353l-0.579-0.411
		c-0.252-0.177-0.434-0.254-0.611-0.254c-0.248,0-0.395,0.148-0.395,0.397c0,0.243,0.161,0.441,0.426,0.522l0.544,0.169
		c0.195,0.062,0.286,0.098,0.522,0.218l0.27-0.024c0.341,0,0.705,0.091,1.023,0.256l0.221,0.098l0.303,0.084
		c0.688,0.194,1.248,0.963,1.248,1.714c0,0.858-0.555,1.387-1.453,1.387L12.259,30.898z"/>
	<path clip-path="url(#SVGID_2_)" fill="#FFDE26" d="M12.054,38.097l0.073-0.146l0.17-0.183c0.144-0.154,0.222-0.372,0.222-0.625
		l-0.066-0.393l-0.051-0.214l0.118-0.148l0.093,0.06l0.18,0.204l0.29,0.183l0.013-0.167l0.012-0.199c0-0.291-0.107-0.615-0.266-0.82
		l-0.142-0.24l0.068-0.088l0.049,0.026l0.209,0.123l0.112-0.308c0-0.229-0.096-0.492-0.249-0.678l-0.145-0.179l-0.025-0.071
		l0.106-0.087l0.15,0.061l0.093,0.035c0.094,0,0.13-0.133,0.13-0.493l-0.004-0.148l-0.013-0.22
		c-0.015-0.255-0.037-0.302-0.147-0.302h-0.096c-0.59,0-0.867-0.374-1.018-1.382c-0.11-0.729-0.382-1.244-0.716-1.356
		c-0.199-0.066-0.269-0.109-0.269-0.164l0.115-0.067l0.228,0.063c0.485,0.193,0.89,0.29,1.246,0.29c0.58,0,1.038-0.427,1.038-0.969
		c0-0.415-0.197-0.836-0.552-1.177l-0.302-0.181l-0.023-0.002l-0.063,0.019l0.027,0.176l0.047,0.124l0.012,0.05L12.65,28.55
		l-0.088-0.049l-0.218-0.328c-0.172-0.26-0.553-0.476-0.83-0.476l-0.164,0.116l0.073,0.142l0.11,0.192l-0.012,0.049l-0.048,0.049
		l-0.013,0.001c-0.057,0-0.086-0.027-0.35-0.327c-0.216-0.247-0.657-0.486-0.894-0.486l-0.088,0.038l-0.025,0.047l0.084,0.134
		l0.137,0.186l-0.068,0.046c-0.071,0-0.226-0.1-0.516-0.328c-0.451-0.354-0.654-0.69-0.654-1.079c0-0.468,0.335-0.837,0.762-0.837
		c0.253,0,0.582,0.122,0.812,0.294l0.595,0.446c0.271,0.207,0.604,0.315,0.953,0.315l0.209-0.047l0.084-0.081l-0.109-0.055
		c-0.214-0.051-0.385-0.125-0.509-0.216l-0.605-0.461c-0.224-0.171-0.382-0.281-0.472-0.328c-0.319-0.169-0.382-0.206-0.382-0.244
		l0.068-0.035l0.106,0.026l0.317,0.134c0.102,0.042,0.27,0.142,0.508,0.302c0.648,0.432,0.977,0.573,1.359,0.573
		c0.364,0,0.63-0.257,0.63-0.607l-0.05-0.21l-0.062-0.12l-0.071-0.062l-0.035,0.049l-0.037,0.255l-0.037,0.086l-0.086,0.119
		l-0.223,0.086c-0.186,0-0.396-0.099-0.964-0.46c-0.575-0.367-1.092-0.558-1.501-0.558c-0.873,0-1.575,0.703-1.575,1.572
		c0,1.213,0.738,1.764,3.065,2.269c0.883,0.192,1.272,0.453,1.272,0.843c0,0.362-0.289,0.586-0.749,0.586l-0.329-0.022
		c-0.079-0.017-0.494-0.129-1.248-0.341c-0.519-0.145-1.104-0.225-1.618-0.225c-0.913,0-1.527,0.271-1.944,0.855l-0.129,0.109
		L6.99,30.439l-0.171-0.134L6.386,30.14l-0.258,0.104l-0.124,0.083c-0.067,0-0.192-0.15-0.286-0.349
		c-0.135-0.283-0.207-0.565-0.207-0.826L5.6,28.948l0.093,0.097l0.098,0.351c0.052,0.199,0.164,0.352,0.247,0.352l0.173-0.145
		l0.101-0.17c0.075-0.221,0.094-0.254,0.153-0.254c0.071,0,0.107,0.044,0.154,0.266L6.7,29.652l0.145,0.217l0.125,0.064
		c0.106,0,0.204-0.18,0.204-0.376l-0.001-0.05l-0.017-0.227l0.064-0.113l0.083,0.058l0.207,0.17l0.174,0.063L7.8,29.396l0.052-0.094
		L7.68,29.08c-0.068-0.068-0.152-0.233-0.243-0.481l-0.113-0.161l-0.08,0.026l-0.159,0.061l-0.108,0.048L6.936,28.58l-0.094-0.081
		l0.243-0.29l0.159-0.326c0.008-0.203,0.044-0.365,0.086-0.365l0.035-0.422c0.018-0.212,0.107-0.616,0.181-0.837l0.035-0.072
		l0.078,0.191L7.656,26.44l-0.008,0.122l0.072,0.234l0.167-0.211l0.109-0.28l0.047-0.225c0-0.237-0.14-0.407-0.336-0.407
		L7.62,25.689l-0.075,0.024l-0.129-0.152l0.009-0.174l-0.011-0.243l-0.049-0.254l-0.012-0.122l-0.109,0.06l-0.135,0.109
		l-0.192,0.156l-0.159,0.134l-0.089,0.036c-0.093,0-0.103-0.023-0.103-0.212v-0.047c0-0.152-0.066-0.272-0.315-0.564L6.19,24.368
		l-0.049,0.084l-0.133,0.219l-0.134,0.34l-0.023,0.217l-0.055,0.11l-0.115-0.084c-0.184-0.213-0.243-0.25-0.521-0.352l-0.023,0.083
		L5.064,25.24l-0.013,0.23v0.097v0.079L4.985,25.75H4.978l-0.072-0.061l-0.147-0.038c-0.225,0-0.37,0.121-0.37,0.317
		c0,0.144,0.051,0.253,0.274,0.591l0.258,0.271l0.056-0.174l-0.024-0.145l-0.034-0.186l0.058-0.104c0.109,0,0.222,0.313,0.269,0.749
		l0.047,0.45l0.146,0.483c0.11,0.228,0.22,0.381,0.314,0.448l0.188,0.207l-0.064,0.073l-0.246-0.086L5.53,28.533
		c-0.242,0-0.323,0.138-0.323,0.556c0,0.504,0.339,1.229,0.717,1.531l0.556,0.45c0.283,0.225,0.497,0.604,0.497,0.87
		c0,0.356-0.389,0.704-1.053,0.947l-0.402,0.142c-0.307,0.114-0.435,0.315-0.556,0.899l0.333-0.063l0.055,0.001l0.179,0.004
		l0.282-0.232v-0.109l0.109-0.111l0.168-0.083l0.134-0.109l0.067-0.026l0.067,0.073l-0.025,0.109L6.271,33.8
		c0,0.297,0.047,0.456,0.198,0.674l0.035-0.157l0.208-0.327c0.181-0.257,0.317-0.568,0.317-0.737L7.026,33.2L6.99,32.922
		l0.059-0.133l0.083-0.035l0.124,0.121l0.086,0.107l0.18-0.243l0.06-0.255l-0.036-0.156L7.508,32.19l0.051-0.079l0.061-0.023
		l0.071,0.023L7.8,32.184l0.098,0.038l0.17-0.134l0.171-0.348l-0.086-0.103c-0.24-0.168-0.4-0.426-0.4-0.648l0.035-0.175
		l0.122-0.327l0.098-0.255l0.035-0.015l0.066,0.094l-0.027,0.14L8.028,30.68l0.128,0.135l0.202-0.047
		c0.367-0.16,0.657-0.245,0.833-0.245l0.44,0.157l0.113,0.051l0.07-0.051l0.023-0.06l-0.073-0.157l-0.086-0.172l0.068-0.06
		c0.189,0,0.486,0.599,0.77,1.553c0.222,0.752,0.286,0.829,1.005,1.237c0.607,0.343,0.839,0.684,0.839,1.236
		c0,0.545-0.15,1.242-0.464,2.154c-0.1,0.287-0.143,0.483-0.143,0.646c0,0.129,0.027,0.252,0.12,0.578l0.083,0.28L12.054,38.097z"/>
	<path clip-path="url(#SVGID_2_)" fill="#FFDE26" d="M9.244,36.4c0.071-0.166,0.094-0.207,0.231-0.414
		c0.193-0.295,0.265-0.451,0.265-0.593v-0.194c0-0.182,0.032-0.266,0.104-0.266l0.063,0.037l0.062,0.098l0.087,0.048l0.136-0.103
		l0.142-0.431l-0.013-0.136l-0.011-0.134l0.1-0.106l0.106,0.109l0.092,0.097l0.101-0.073l0.097-0.145l0.074-0.11l0.016-0.061
		l-0.09-0.108c-0.226-0.161-0.321-0.411-0.339-0.861c-0.013-0.341-0.032-0.563-0.059-0.666c-0.006-0.023-0.08-0.197-0.22-0.52
		l-0.146-0.438L9.89,31.286c-0.326,0-0.578,0.28-0.578,0.653c0,0.22,0.092,0.563,0.26,0.983c0.232,0.587,0.294,0.797,0.294,1.005
		c0,0.444-0.178,0.64-0.793,0.859c-0.694,0.25-1.019,0.606-1.14,1.249l0.124-0.05l0.168-0.06l0.194-0.049l0.328-0.229l0.05-0.169
		l0.071-0.087l0.11-0.048l0.109-0.048l0.023,0.048l-0.049,0.158l-0.024,0.281C9.037,36.052,9.088,36.208,9.244,36.4"/>
	<path clip-path="url(#SVGID_2_)" fill="#FFDE26" d="M2.736,25.191l0.026,0.137l-0.05,0.313L2.69,25.886
		c0,0.217,0.039,0.449,0.108,0.64l0.076,0.276l-0.005,0.051l-0.046,0.087L2.7,26.863l-0.447-0.183l-0.207,0.026l0.059,0.131
		l0.184,0.45l0.255,0.388l0.263,0.183l0.074,0.071l0.038,0.079l-0.05,0.045l-0.242,0.009l-0.067,0.05
		c0,0.044,0.036,0.165,0.103,0.362l0.121,0.353l0.21,0.193l0.215,0.158l0.102,0.137l-0.042,0.069L3.15,29.396l-0.064,0.099
		c0,0.09,0.085,0.253,0.245,0.471c0.188,0.254,0.32,0.34,0.532,0.34h0.182l0.14,0.11l-0.116,0.108L3.851,30.67l0.06,0.133
		l0.098,0.131l0.23,0.187l0.176-0.111l0.393-0.267c0.419-0.106,0.51-0.15,0.51-0.25l-0.051-0.139c-0.133-0.24-0.18-0.395-0.18-0.592
		l-0.095-0.257l-0.101,0.097L4.47,29.859c-0.419,0-0.927-0.657-1.175-1.529c-0.058-0.2-0.089-0.432-0.089-0.654
		c0-0.227,0.031-0.482,0.089-0.74c0.082-0.354,0.125-0.553,0.133-0.594l0.016-0.163C3.444,25.878,3.166,25.493,2.736,25.191"/>
	<path clip-path="url(#SVGID_2_)" fill="#FFDE26" d="M3.609,26.876c-0.089,0.171-0.172,0.549-0.172,0.791l0.106,0.251l0.066-0.059
		l0.133-0.243l0.086-0.149l0.086-0.179L3.609,26.876z"/>
	<path clip-path="url(#SVGID_2_)" fill="#FFDE26" d="M4.942,32.342l0.06,0.06l0.096,0.098c0.237,0.246,0.272,0.269,0.387,0.269
		l0.449-0.124l0.085-0.083l-0.121-0.134l-0.133-0.121l-0.322-0.178C5.306,32.128,5.162,32.189,4.942,32.342"/>
	<path clip-path="url(#SVGID_2_)" fill="#FFDE26" d="M7.753,34.533l0.243,0.121l0.193,0.122l0.194,0.024l0.146-0.024l0.254-0.097
		l0.243-0.087l0.11-0.091L9,34.437l-0.18-0.061c-0.299-0.119-0.344-0.137-0.45-0.137C8.134,34.239,7.894,34.354,7.753,34.533"/>
	<path clip-path="url(#SVGID_2_)" fill="#FFDE26" d="M10.818,36.97c0.082-0.193,0.138-0.228,0.414-0.24
		c0.307-0.02,0.605-0.578,0.605-0.952l-0.029-0.072l-0.081,0.042l-0.181,0.107l-0.353,0.158c-0.234,0.103-0.441,0.417-0.441,0.663
		L10.818,36.97z"/>
	<path clip-path="url(#SVGID_2_)" fill="#2F2F27" d="M5.585,26.44l0.12,0.169l0.263,0.19l0.076-0.103l0.047-0.186l0.014-0.201
		c0-0.16-0.07-0.221-0.4-0.307l-0.17-0.061l-0.145-0.074l-0.049,0.033l0.012,0.055l0.06,0.182L5.585,26.44z"/>
	<polygon clip-path="url(#SVGID_2_)" fill="#2F2F27" points="7.158,25.87 6.965,26.004 6.723,26.077 6.493,26.247 6.516,26.485 
		6.649,26.787 6.665,26.785 6.723,26.72 6.88,26.438 7.146,26.148 7.23,25.944 7.236,25.925 7.182,25.866 	"/>
	<path clip-path="url(#SVGID_2_)" fill="#2F2F27" d="M6.564,27.265l0.192-0.097l0.094-0.027l0.165,0.198
		c0,0.138-0.11,0.324-0.259,0.592c-0.157,0.29-0.279,0.485-0.403,0.485c-0.173,0-0.42-0.277-0.659-0.739l-0.093-0.338l0.194-0.234
		l0.139,0.039l0.109,0.074l0.309,0.094L6.564,27.265z"/>
	<path clip-path="url(#SVGID_2_)" fill="#FFDE26" d="M6.287,27.555L6.152,27.53l-0.02-0.001l-0.115,0.132l0.222,0.524l0.09,0.051
		c0.078,0,0.134-0.149,0.175-0.391l0.036-0.182l0.005-0.033l-0.084-0.102L6.433,27.53"/>
	<path clip-path="url(#SVGID_2_)" fill="#2B2C2C" d="M33.343,30.718c0.211,0.279,0.506,0.461,0.751,0.461l0.326-0.049l0.161-0.024
		l0.083,0.077l-0.063,0.229l-0.071,0.215l-0.048,0.256l-0.12,0.218l-0.172,0.156l-0.048,0.051v0.108v0.053
		c0,0.297-0.086,0.464-0.326,0.626l-0.085,0.06l-0.025,0.098c-0.054,0.225-0.094,0.366-0.12,0.423l-0.231,0.338
		c-0.146,0.194-0.243,0.349-0.302,0.5l-0.167,0.154l-0.259-0.325l-0.062,0.074l-0.143,0.097l-0.233,0.154l-0.192,0.146l-0.133,0.136
		l-0.069,0.035c-0.062,0-0.125-0.104-0.184-0.303l-0.121-0.4l-0.051-0.39c0-0.201,0.015-0.272,0.086-0.434
		c-0.242,0.023-0.31,0.04-0.435,0.085l-0.106,0.023l-0.064-0.073l0.046-0.181l0.16-0.412c0.122-0.317,0.516-0.61,0.828-0.61
		l0.311,0.065l0.184,0.037l0.252-0.229l-0.097-0.16c-0.021-0.01-0.166-0.052-0.436-0.133c-0.205-0.06-0.305-0.137-0.533-0.4
		c-0.167-0.192-0.23-0.247-0.292-0.247l-0.072,0.086l0.012,0.161l0.004,0.076c0,0.335-0.099,0.654-0.342,1.099l-0.34,0.617
		c-0.164,0.293-0.23,0.516-0.23,0.74c0,0.243,0.104,0.46,0.241,0.497l0.184,0.047l0.059,0.039l0.036,0.069l-0.062,0.112
		l-0.217,0.276c-0.209,0.273-0.339,0.372-0.593,0.45c-0.147,0.355-0.386,0.561-0.811,0.701l-0.051,0.085
		c-0.145,0.255-0.464,0.485-0.667,0.485h-0.047c-0.027,0.221-0.186,0.452-0.425,0.617l-0.276,0.206l-0.061,0.109l-0.174,0.17
		c-0.128,0-0.235-0.119-0.312-0.351l-0.107,0.071l-0.231,0.157c-0.055,0.027-0.198,0.069-0.425,0.122
		c-0.298,0.068-0.553,0.195-0.619,0.302l-0.108,0.182l-0.049,0.023l-0.155-0.191c-0.068-0.25-0.113-0.513-0.113-0.68
		c0-0.431,0.143-0.711,0.584-1.151v-0.104c0-0.668,0.51-1.12,1.261-1.12l0.121,0.001l0.411,0.026l0.039,0.001
		c0.223,0,0.431-0.085,0.654-0.271c0.294-0.242,0.381-0.389,0.381-0.662c0-0.087-0.024-0.185-0.117-0.488
		c-0.059-0.2-0.09-0.388-0.09-0.568c0-0.501,0.365-1.122,0.866-1.465l0.225-0.275l-0.035-0.051l-0.155,0.094l-0.29,0.181
		l-0.195,0.099l-0.214,0.085l-0.102,0.106l0.028,0.11l0.023,0.09l-0.061,0.142l-0.17,0.278c-0.166,0.272-0.286,0.39-0.497,0.484
		c-0.136,0.398-0.332,0.6-0.617,0.642c-0.228,0.463-0.429,0.62-0.835,0.666c-0.056,0.181-0.154,0.325-0.365,0.56l-0.156,0.192
		l-0.149,0.182l-0.275-0.182l-0.11-0.146l-0.108-0.192l-0.119-0.092l-0.077,0.006l-0.266,0.036l-0.485,0.279l-0.145,0.218
		l-0.057,0.036c-0.111,0-0.176-0.239-0.176-0.637c0-0.347,0.052-0.577,0.174-0.745l0.337-0.472l0.073-0.184l-0.061-0.157
		l-0.192-0.146l-0.255-0.033l-0.063-0.039l0.038-0.082l0.302-0.267c0.302-0.185,0.499-0.258,0.701-0.258
		c0.204,0,0.427,0.075,0.634,0.208l0.35,0.231l0.171,0.051c0.162,0,0.284-0.098,0.4-0.318c0.11-0.212,0.158-0.383,0.158-0.561
		c0-0.457-0.325-0.783-0.779-0.783c-0.208,0-0.424,0.08-0.627,0.242l-0.121,0.132l-0.098,0.218l-0.087,0.085
		c-0.062,0-0.197-0.176-0.314-0.4l-0.168-0.436c-0.072-0.236-0.102-0.415-0.102-0.604l0.019-0.329
		c-0.168-0.256-0.222-0.445-0.222-0.749c0-0.11,0.016-0.196,0.085-0.425c-0.1-0.17-0.132-0.298-0.132-0.54l0.012-0.153l0.037-0.167
		l0.024-0.146c-0.117-0.154-0.151-0.256-0.267-0.788c-0.064-0.302-0.105-0.433-0.156-0.51l-0.038-0.071
		c0-0.071,0.168-0.135,0.363-0.135l0.172,0.014l-0.053-0.247l0.089-0.481c0.062-0.185,0.076-0.237,0.076-0.297l-0.055-0.37
		l-0.094-0.24l-0.032-0.125l0.059-0.033c0.238,0,0.693,0.256,1.049,0.593c0.357,0.335,0.471,0.606,0.471,1.104l-0.021,0.265
		c0.33,0.29,0.473,0.529,0.473,0.787c0,0.189-0.062,0.317-0.245,0.497c-0.325,0.325-0.399,0.495-0.399,0.914
		c0,0.643,0.192,0.989,0.55,0.989c0.31,0,0.55-0.337,0.59-0.837l0.035-0.459l0.062-0.437l0.036-0.316
		c0-0.163-0.107-0.37-0.423-0.737c-0.341-0.4-0.455-0.613-0.455-0.925c0-0.373,0.257-0.644,0.607-0.644l0.235,0.067
		c0.003-0.211,0.014-0.254,0.134-0.549c0.092-0.233,0.194-0.398,0.241-0.398l0.072,0.049l0.159,0.133l0.121,0.084l0.107,0.109
		c0.077-0.271,0.155-0.399,0.377-0.617l0.266-0.218l0.088,0.061l0.143,0.192l0.207,0.232c0.079,0.087,0.106,0.161,0.145,0.373
		l0.121-0.072l0.192-0.108l0.148-0.097l0.075-0.038l0.059,0.088l0.07,0.276l0.158,0.315l0.062,0.312l-0.003,0.076l0.082-0.004
		c0.239,0,0.446,0.283,0.446,0.61c0,0.431-0.344,0.988-0.792,1.283l-0.051,0.321c0,0.966,0.254,1.169,1.736,1.388
		c0.369,0.056,0.701,0.125,0.994,0.206c0.047,0.015,0.365,0.119,0.956,0.315c0.326,0.109,0.548,0.157,0.717,0.157l0.281-0.146
		c0-0.165-0.243-0.313-0.984-0.606l-1.056-0.411c-1.072-0.419-1.578-1.074-1.578-2.037c0-1.12,0.839-1.963,1.965-1.963
		c0.424,0,0.835,0.088,1.43,0.306c0.765,0.278,0.803,0.291,0.889,0.291c0.148,0,0.228-0.103,0.25-0.313
		c0.02-0.184,0.068-0.256,0.169-0.256c0.148,0,0.309,0.135,0.426,0.362c0.099,0.197,0.157,0.429,0.157,0.63
		c0,0.398-0.212,0.663-0.594,0.739c-0.256,0.334-0.583,0.499-0.976,0.499c-0.482,0-0.721-0.094-1.544-0.607
		c-0.295-0.186-0.422-0.231-0.637-0.231c-0.289,0-0.502,0.181-0.502,0.423c0,0.224,0.177,0.368,0.581,0.475
		c0.239,0.062,0.276,0.082,0.4,0.206l0.202-0.031c0.393,0,0.878,0.215,1.288,0.564c0.746,0.23,1.408,1.035,1.408,1.712
		c0,0.747-0.646,1.418-1.368,1.418C34.083,30.867,33.692,30.805,33.343,30.718"/>
	<path clip-path="url(#SVGID_2_)" fill="#FFDE26" d="M32.905,34.073l0.05-0.133l0.049-0.169l0.132-0.207
		c0.122-0.162,0.184-0.363,0.184-0.601l-0.063-0.236l-0.036-0.11l0.025-0.056l0.048-0.036l0.008-0.002l0.124,0.085l0.122,0.097
		l0.148-0.23l0.021-0.121l-0.107-0.341l-0.038-0.124l0.068-0.076l0.163,0.105l0.092,0.047c0.075,0,0.129-0.077,0.185-0.268
		l0.051-0.188l-0.044-0.056l-0.043,0.004l-0.141,0.013c-0.222,0-0.536-0.15-0.682-0.328l-0.339-0.412l-0.315-0.4l-0.268-0.181
		l-0.072-0.099l0.115-0.077c0.066,0,0.264,0.071,0.625,0.224c0.35,0.147,0.897,0.269,1.23,0.269c0.577,0,1.054-0.47,1.054-1.04
		c0-0.31-0.14-0.596-0.479-0.996l-0.225-0.148l-0.067,0.071l0.039,0.136l0.022,0.112l-0.058,0.086c-0.074,0-0.156-0.125-0.22-0.343
		c-0.081-0.271-0.239-0.431-0.607-0.615l-0.383-0.14l-0.039,0.055l0.047,0.142l0.099,0.231v0.012l-0.067,0.074
		c-0.079,0-0.096-0.021-0.274-0.291c-0.092-0.141-0.333-0.325-0.548-0.414l-0.202-0.047h-0.007l-0.078,0.046l0.054,0.112
		l0.017,0.067l-0.058,0.067c-0.072,0-0.296-0.186-0.476-0.392c-0.191-0.221-0.313-0.503-0.313-0.725
		c0-0.462,0.443-0.876,0.937-0.876l0.312,0.063l0.42,0.217l0.5,0.326c0.286,0.19,0.678,0.331,0.913,0.331
		c0.091,0,0.158-0.012,0.382-0.077l0.195-0.12L35.08,26.38l-0.042-0.024l-0.266-0.022c-0.148-0.015-0.484-0.167-0.751-0.343
		l-0.557-0.361l-0.497-0.207l-0.062-0.063l0.056-0.047l0.136,0.027l0.463,0.132c0.116,0.03,0.301,0.118,0.558,0.254
		c0.505,0.269,0.835,0.388,1.075,0.388c0.281,0,0.486-0.192,0.486-0.455l-0.047-0.346l-0.072-0.156l-0.061-0.047l-0.055,0.097
		l0.006,0.084l0.005,0.071c0,0.223-0.087,0.304-0.334,0.304c-0.203,0-0.472-0.085-1.088-0.325c-0.576-0.228-0.939-0.316-1.296-0.316
		c-0.914,0-1.712,0.744-1.712,1.593c0,0.734,0.486,1.294,1.481,1.702l1.03,0.425c0.85,0.35,1.164,0.601,1.164,0.934
		c0,0.276-0.257,0.452-0.658,0.452c-0.171,0-0.388-0.047-0.785-0.175c-0.964-0.306-1.59-0.435-2.142-0.435
		c-0.897,0-1.539,0.247-2.048,0.786l-0.169,0.094l-0.172-0.069l-0.266-0.087l-0.291,0.161l-0.121,0.158l-0.108,0.073l-0.342-0.33
		l-0.12-0.315l-0.025-0.331l0.012-0.228l0.039-0.238l0.033-0.207l0.061-0.048l0.09,0.187l-0.003,0.078l-0.004,0.055
		c0,0.345,0.138,0.66,0.286,0.66c0.12,0,0.223-0.212,0.31-0.631l0.093-0.132c0.048,0,0.078,0.062,0.114,0.243l0.18,0.386l0.14,0.098
		c0.099,0,0.162-0.149,0.212-0.497l0.106-0.219l0.051,0.027l0.086,0.133l0.134,0.119l0.141,0.051l0.113-0.051l0.085-0.099
		l-0.073-0.106c-0.079-0.085-0.141-0.199-0.219-0.401l-0.108-0.277l-0.062-0.084l-0.036-0.011l-0.072,0.011l-0.253,0.071
		l-0.08,0.013l-0.056-0.058l0.098-0.135c0.306-0.244,0.489-0.654,0.557-1.248c0.041-0.363,0.088-0.5,0.242-0.715l0.078-0.075
		l0.071,0.109l-0.04,0.17l-0.026,0.147l0.003,0.047l0.023,0.073l0.135-0.05l0.144-0.168l0.16-0.497l-0.098-0.278l-0.185-0.129
		l-0.084,0.008l-0.083,0.007l-0.118-0.073l0.02-0.093l0.015-0.133l-0.073-0.303l-0.062-0.146l-0.036-0.121l-0.086,0.061
		l-0.182,0.108l-0.145,0.135c-0.171,0.208-0.183,0.217-0.253,0.217l-0.068-0.046l0.006-0.051l0.035-0.251
		c0-0.211-0.151-0.53-0.337-0.706c-0.254,0.242-0.388,0.508-0.388,0.764v0.146l-0.058,0.084h-0.004L27.951,25.3l-0.146-0.191
		l-0.195-0.16l-0.095-0.083l-0.05,0.097c-0.12,0.239-0.161,0.386-0.168,0.581l-0.056,0.209l-0.078-0.027
		c-0.186-0.104-0.2-0.11-0.28-0.11c-0.217,0-0.366,0.159-0.366,0.387l0.15,0.404c0.109,0.198,0.278,0.376,0.348,0.376l0.028-0.074
		v-0.024l-0.013-0.204l-0.026-0.16l-0.001-0.021l0.054-0.066c0.111,0,0.207,0.32,0.288,0.961c0.072,0.563,0.227,0.949,0.472,1.176
		l0.098,0.129l-0.047,0.041l-0.16-0.062l-0.13-0.039l-0.281,0.293l-0.111,0.692l-0.084,0.969c-0.016,0.182,0.01,0.43,0.073,0.726
		c0.056,0.264,0.086,0.454,0.086,0.574c0,0.726-0.453,1.3-1.201,1.521l-0.776,0.23c-0.482,0.144-0.72,0.465-0.787,1.054
		c0.125-0.097,0.163-0.114,0.353-0.144l0.229-0.036l0.205-0.061l0.134-0.136l0.204-0.228l0.193-0.138l0.051,0.07l-0.085,0.2
		l-0.089,0.313c0,0.154,0.042,0.252,0.199,0.476l0.047-0.146l0.184-0.254c0.168-0.218,0.287-0.443,0.29-0.544
		c0.003-0.189,0.02-0.25,0.067-0.25l0.065,0.116l0.039,0.074l0.074,0.046l0.094-0.046l0.194-0.172l0.12-0.218l0.063-0.23
		l-0.001-0.157l0.038-0.074l0.132,0.135l0.078,0.063h0.007l0.108-0.052l0.242-0.453l-0.011-0.224l-0.051-0.183l-0.002-0.016
		l0.06-0.07l0.198,0.257l0.108,0.12l0.221-0.206l0.108-0.157l0.037-0.123l-0.037-0.121l-0.1-0.145l-0.022-0.122
		c0-0.165,0.061-0.349,0.181-0.566l0.159-0.305l0.067-0.076l0.042,0.065l-0.011,0.132v0.098v0.095l0.105,0.063l0.125-0.025
		l0.3-0.108l0.28-0.135c0.475-0.264,0.621-0.316,0.855-0.316c0.141,0,0.32,0.053,0.574,0.171l0.127,0.038l0.105-0.062l0.036-0.093
		l-0.051-0.15l-0.072-0.178l0.056-0.055l0.091,0.064c0.037,0.058,0.131,0.218,0.277,0.483c0.227,0.401,0.521,0.682,0.776,0.74
		l0.532,0.122c0.166,0.033,0.209,0.099,0.209,0.306c0,0.375-0.178,0.706-0.484,0.905l-0.438,0.28
		c-0.157,0.099-0.29,0.378-0.29,0.611c0,0.149,0.036,0.411,0.084,0.622l0.085-0.085l0.207-0.121l0.181-0.182l0.097-0.266
		l0.096-0.243l0.141-0.195l0.066,0.188l-0.001,0.029v0.047C32.748,33.735,32.771,33.813,32.905,34.073"/>
	<path clip-path="url(#SVGID_2_)" fill="#FFDE26" d="M25.732,37.53c0-0.576,0.207-0.828,1.042-1.249
		c1.646-0.836,2.537-1.604,2.537-2.186c0-0.118-0.042-0.29-0.147-0.652c-0.068-0.223-0.104-0.41-0.104-0.526
		c0-0.269,0.219-0.674,0.502-0.926l0.23-0.207l0.221-0.384l-0.004-0.056l-0.003-0.07l0.174-0.169l0.111-0.011l0.086-0.026
		l0.106,0.062l0.059,0.098l0.086,0.096l0.078,0.048l0.093-0.034l0.146-0.046l0.097,0.104c0,0.241-0.16,0.596-0.438,0.969
		c-0.466,0.631-0.616,0.971-0.616,1.371c0,0.316,0.088,0.595,0.264,0.822l0.051,0.089l-0.087,0.154l-0.07,0.097l-0.227,0.195
		l-0.114-0.1l-0.047-0.13l-0.07-0.064l-0.054,0.049l-0.047,0.135v0.206l-0.085,0.242l-0.171,0.18l-0.078,0.063l-0.103-0.098
		l-0.073-0.241l-0.059-0.062l-0.086,0.173c-0.025,0.272-0.072,0.439-0.145,0.507l-0.17,0.155l-0.154,0.091l-0.076-0.04l-0.086-0.183
		l-0.052-0.036c-0.051,0-0.085,0.095-0.105,0.277c-0.042,0.438-0.134,0.634-0.376,0.8c-0.187,0.137-0.228,0.177-0.301,0.341
		c-0.106-0.157-0.146-0.289-0.146-0.481l0.048-0.232l0.078-0.202l-0.043-0.055l-0.061,0.049l-0.157,0.122
		c-0.216,0.125-0.248,0.17-0.3,0.412c-0.072,0.326-0.227,0.479-0.559,0.544c-0.408,0.083-0.435,0.094-0.583,0.231L25.732,37.53z"/>
	<path clip-path="url(#SVGID_2_)" fill="#FFDE26" d="M24.946,25.034v0.122l0.001,0.182l-0.027,0.193l-0.047,0.274
		c0,0.231,0.033,0.346,0.171,0.587l0.124,0.406l-0.053,0.076l-0.059-0.035l-0.097-0.134c-0.079-0.106-0.151-0.134-0.35-0.134
		L24.4,26.585c0.084,0.207,0.111,0.286,0.145,0.424c0.099,0.396,0.114,0.426,0.327,0.619c0.217,0.195,0.237,0.222,0.237,0.289
		l-0.085,0.099l-0.079-0.013l-0.047-0.004l-0.128,0.254l0.078,0.308l0.085,0.145l0.122,0.12l0.048,0.126l-0.073,0.109l-0.111-0.04
		l-0.084-0.023l-0.078,0.1l0.017,0.182l0.074,0.312l0.135,0.231l0.18,0.144l0.244,0.11l0.034,0.096l-0.081,0.086l-0.125-0.024
		l-0.121-0.012l-0.131,0.102l0.022,0.188l0.05,0.194c0.051,0.205,0.117,0.315,0.189,0.315l0.089-0.048
		c0.176-0.133,0.528-0.255,0.749-0.255c0.227,0,0.488,0.027,0.583,0.062l0.117,0.029l0.04-0.139l0.027-0.216l0.047-0.378
		l0.036-0.278v-0.156l-0.098,0.083c-0.206,0.191-0.337,0.254-0.549,0.254c-0.554,0-0.875-0.626-0.875-1.72
		c0-0.449,0.067-1.087,0.19-1.817l0.038-0.336C25.639,25.705,25.385,25.315,24.946,25.034"/>
	<polygon clip-path="url(#SVGID_2_)" fill="#FFDE26" points="25.841,27.082 25.815,27.266 25.782,27.447 25.768,27.629 
		25.768,27.749 25.88,27.641 25.986,27.543 26.15,27.172 26.108,26.999 25.938,26.824 	"/>
	<path clip-path="url(#SVGID_2_)" fill="#FFDE26" d="M24.703,32.705l0.279,0.218c0.17,0.196,0.261,0.241,0.485,0.241l0.172-0.023
		l0.154-0.048l0.123-0.036l0.096-0.063l-0.243-0.206l-0.29-0.168L25.2,32.544L24.703,32.705z"/>
	<path clip-path="url(#SVGID_2_)" fill="#FFDE26" d="M26.339,36.115c0-0.389,0.384-0.713,0.854-0.713
		c0.234,0,0.369,0.047,0.369,0.128c0,0.061-0.102,0.145-0.327,0.264c-0.022,0.013-0.139,0.077-0.351,0.196
		c-0.244,0.134-0.321,0.171-0.532,0.265L26.339,36.115z"/>
	<path clip-path="url(#SVGID_2_)" fill="#FFDE26" d="M31.271,33.176l0.316-0.083l0.216,0.012l0.146-0.097l0.168-0.121
		c0.244-0.165,0.255-0.177,0.255-0.229c0-0.069-0.097-0.1-0.302-0.1C31.689,32.559,31.458,32.736,31.271,33.176"/>
	<path clip-path="url(#SVGID_2_)" fill="#2F2F27" d="M27.611,25.799l0.171,0.109l0.243,0.134c0.185,0.076,0.253,0.104,0.253,0.175
		l-0.024,0.139l-0.036,0.168l-0.184,0.208c-0.082,0-0.165-0.126-0.302-0.364l-0.192-0.483l-0.008-0.047l0.052-0.048"/>
	<polygon clip-path="url(#SVGID_2_)" fill="#2F2F27" points="29.222,25.918 28.957,26.052 28.698,26.125 28.594,26.259 
		28.594,26.271 28.606,26.479 28.616,26.684 28.744,26.804 28.764,26.804 28.847,26.768 28.968,26.502 29.248,26.22 29.367,26.017 
		29.395,25.94 29.325,25.871 	"/>
	<path clip-path="url(#SVGID_2_)" fill="#2F2F27" d="M28.023,27.045l0.183,0.135l0.159,0.042l0.289-0.078l0.157-0.071l0.093-0.027
		l0.175,0.231c0,0.179-0.129,0.361-0.317,0.63l-0.133,0.279l-0.264,0.207c-0.142,0-0.212-0.081-0.427-0.513
		c-0.157-0.306-0.217-0.492-0.217-0.643l0.162-0.216L28.023,27.045z"/>
	<path clip-path="url(#SVGID_2_)" fill="#FFDE26" d="M28.181,27.713l0.012,0.23l0.176,0.208c0.113,0,0.193-0.17,0.235-0.427
		l0.028-0.168l-0.145-0.113l-0.063,0.004h-0.086l-0.052-0.004l-0.106,0.214"/>
	<path clip-path="url(#SVGID_2_)" fill="#2B2C2C" d="M14.539,22.228h1.182v2.432h1.396v-2.407h3.516v2.407h1.395v-2.407h1.186
		v-6.281h-1.356l-0.05-0.072c-0.161-0.244-0.383-0.368-0.657-0.368c-0.264,0-0.488,0.157-0.637,0.44h-0.978
		c-0.094-0.255-0.369-0.44-0.654-0.44c-0.31,0-0.56,0.16-0.689,0.44h-1.05c-0.175-0.312-0.371-0.437-0.674-0.437
		c-0.305,0-0.503,0.131-0.648,0.437h-1.282V22.228z"/>
	<rect x="15.045" y="16.488" clip-path="url(#SVGID_2_)" fill="#E53E33" width="7.706" height="5.28"/>
	<path clip-path="url(#SVGID_2_)" fill="#FFDE26" d="M15.846,17.694c-0.201,0-0.367,0.165-0.367,0.367
		c0,0.201,0.166,0.366,0.367,0.366c0.201,0,0.367-0.165,0.367-0.366C16.212,17.859,16.046,17.694,15.846,17.694"/>
	<path clip-path="url(#SVGID_2_)" fill="#2B2C2C" d="M15.846,17.744l-0.317,0.315l0.317,0.32l0.317-0.32L15.846,17.744z
		 M15.846,18.477c-0.231,0-0.415-0.187-0.415-0.418c0-0.225,0.184-0.415,0.415-0.415c0.23,0,0.418,0.19,0.418,0.415
		C16.264,18.29,16.076,18.477,15.846,18.477"/>
	<path clip-path="url(#SVGID_2_)" fill="#FFDE26" d="M21.895,17.694c-0.203,0-0.368,0.165-0.368,0.367
		c0,0.201,0.165,0.366,0.368,0.366c0.201,0,0.367-0.165,0.367-0.366C22.261,17.859,22.095,17.694,21.895,17.694"/>
	<path clip-path="url(#SVGID_2_)" fill="#2B2C2C" d="M21.895,17.744l-0.32,0.315l0.32,0.32l0.317-0.32L21.895,17.744z
		 M21.895,18.477c-0.231,0-0.418-0.187-0.418-0.418c0-0.225,0.187-0.415,0.418-0.415c0.228,0,0.415,0.19,0.415,0.415
		C22.31,18.29,22.123,18.477,21.895,18.477"/>
	<path clip-path="url(#SVGID_2_)" fill="#FFDE26" d="M15.846,20.566c-0.201,0-0.367,0.165-0.367,0.367
		c0,0.202,0.171,0.366,0.382,0.366c0.193,0,0.352-0.164,0.352-0.366C16.212,20.731,16.046,20.566,15.846,20.566"/>
	<path clip-path="url(#SVGID_2_)" fill="#2B2C2C" d="M15.845,20.617l-0.317,0.317c0,0.173,0.149,0.316,0.332,0.316l0.302-0.316
		L15.845,20.617z M15.86,21.349c-0.239,0-0.43-0.187-0.43-0.415s0.186-0.415,0.415-0.415c0.231,0,0.415,0.187,0.415,0.415
		S16.082,21.349,15.86,21.349"/>
	<path clip-path="url(#SVGID_2_)" fill="#FFDE26" d="M21.895,20.566c-0.203,0-0.368,0.165-0.368,0.367
		c0,0.202,0.165,0.366,0.368,0.366c0.201,0,0.367-0.164,0.367-0.366C22.261,20.731,22.095,20.566,21.895,20.566"/>
	<path clip-path="url(#SVGID_2_)" fill="#2B2C2C" d="M21.895,20.617l-0.32,0.317l0.32,0.316l0.317-0.316L21.895,20.617z
		 M21.895,21.349c-0.231,0-0.418-0.187-0.418-0.415s0.187-0.415,0.418-0.415c0.228,0,0.415,0.187,0.415,0.415
		S22.123,21.349,21.895,21.349"/>
	<path clip-path="url(#SVGID_2_)" fill="#FFDE26" d="M16.995,19.454c0.496,0.622,1.123,0.931,1.899,0.931
		c0.714,0,1.208-0.258,1.791-0.931c-0.583-0.595-1.118-0.842-1.83-0.842C18.112,18.611,17.438,18.916,16.995,19.454"/>
	<path clip-path="url(#SVGID_2_)" fill="#2B2C2C" d="M17.359,19.454c0.513-0.397,0.944-0.563,1.477-0.563
		c0.539,0,0.944,0.159,1.468,0.574c-0.457,0.455-0.859,0.626-1.475,0.626C18.285,20.09,17.784,19.873,17.359,19.454"/>
	<path clip-path="url(#SVGID_2_)" fill="#FFDE26" d="M17.984,19.332c0.306,0.191,0.549,0.267,0.835,0.267
		c0.336,0,0.618-0.084,0.888-0.267c-0.287-0.138-0.584-0.208-0.876-0.208C18.528,19.124,18.24,19.194,17.984,19.332"/>
	<rect x="14.938" y="16.755" clip-path="url(#SVGID_2_)" fill="#2B2C2C" width="7.922" height="0.271"/>
	<path clip-path="url(#SVGID_2_)" fill="#2C2F2C" d="M14.952,16.774h7.889v0.235h-7.889V16.774z M14.919,17.042h7.954V16.74h-7.954
		V17.042z"/>
	<path clip-path="url(#SVGID_2_)" fill="#FFDE26" d="M16.152,16.411v0.624v0.132c0,0.181,0.14,0.32,0.325,0.32
		c0.213,0,0.334-0.114,0.334-0.32v-0.132v-0.611c0-0.287-0.116-0.467-0.306-0.467l-0.146,0.039l-0.087,0.047l-0.073,0.099
		l-0.047,0.135"/>
	<path clip-path="url(#SVGID_2_)" fill="#FFDE26" d="M18.533,17.035v0.134c0,0.18,0.141,0.317,0.326,0.317
		c0.212,0,0.335-0.114,0.335-0.317v-0.134v-0.611c0-0.285-0.118-0.466-0.305-0.466c-0.218,0-0.356,0.176-0.356,0.455"/>
	<path clip-path="url(#SVGID_2_)" fill="#FFDE26" d="M20.843,16.411v0.624v0.132c0,0.181,0.141,0.32,0.329,0.32
		c0.211,0,0.332-0.114,0.332-0.32v-0.132v-0.611c0-0.287-0.118-0.467-0.305-0.467l-0.148,0.039l-0.084,0.047l-0.076,0.099
		l-0.048,0.135"/>
	<rect x="15.98" y="22.8" clip-path="url(#SVGID_2_)" fill="#FFDE26" width="0.72" height="0.928"/>
	<rect x="15.98" y="23.938" clip-path="url(#SVGID_2_)" fill="#FFDE26" width="0.72" height="0.294"/>
	<rect x="20.892" y="22.8" clip-path="url(#SVGID_2_)" fill="#FFDE26" width="0.72" height="0.928"/>
	<rect x="20.892" y="23.938" clip-path="url(#SVGID_2_)" fill="#FFDE26" width="0.72" height="0.294"/>
</g>
</svg>
