<svg id="cam-logo-svg" xmlns="http://www.w3.org/2000/svg" xmlns:xlink="http://www.w3.org/1999/xlink" width="652" height="104.534" viewBox="0 0 652 104.534">
  <defs>
    <clipPath id="clip-path">
      <rect id="Rectangle_6" data-name="Rectangle 6" width="652" height="104.534"/>
    </clipPath>
  </defs>
  <g id="Group_1" data-name="Group 1" clip-path="url(#clip-path)">
    <path id="Path_1" data-name="Path 1" d="M170.481,24.487l2.781-7.534c1.042-2.959,1.619-4.64,1.971-5.972h.112c.354,1.275.874,3.013,1.919,5.915l2.667,7.591Zm7.48-23.13h-5.568L157.609,39.734h7.245l3.6-9.567h13.623l3.711,9.567h7.539Z" transform="translate(216.638 1.865)" fill="#2b2c2c"/>
  </g>
  <g id="Group_2" data-name="Group 2" clip-path="url(#clip-path)">
    <path id="Path_2" data-name="Path 2" d="M198.863,17.155c.055-3.305,1.909-6.2,5.328-6.2,3.657,0,5.219,3.07,5.276,6.2Zm5.45-11.476c-7.831,0-12.35,6.2-12.35,14.432,0,7.42,4.058,14.259,14.031,14.259a18.336,18.336,0,0,0,9.676-2.55l-2.082-4.751a13.753,13.753,0,0,1-6.9,1.852c-4.576,0-7.589-2.719-7.767-6.957h17.564V20.344c0-9.1-4.459-14.665-12.169-14.665" transform="translate(263.858 7.806)" fill="#2b2c2c"/>
  </g>
  <g id="Group_3" data-name="Group 3" clip-path="url(#clip-path)">
    <path id="Path_3" data-name="Path 3" d="M249.259,17.155c.057-3.305,1.914-6.2,5.331-6.2,3.657,0,5.219,3.07,5.283,6.2Zm5.452-11.476c-7.831,0-12.35,6.2-12.35,14.432,0,7.42,4.056,14.259,14.026,14.259a18.335,18.335,0,0,0,9.681-2.55l-2.082-4.751a13.753,13.753,0,0,1-6.9,1.852c-4.576,0-7.589-2.719-7.767-6.957H266.88V20.344c0-9.1-4.462-14.665-12.169-14.665" transform="translate(333.132 7.806)" fill="#2b2c2c"/>
  </g>
  <g id="Group_4" data-name="Group 4" clip-path="url(#clip-path)">
    <path id="Path_4" data-name="Path 4" d="M277.667,2.431l-6.9,2.035v6.368h-4.927v5.395h4.927V31.474c0,4.583,2.963,7.361,7.824,7.361a15.716,15.716,0,0,0,8-2.139l-2.083-4.759a7.772,7.772,0,0,1-4.179,1.334c-1.8,0-2.667-.933-2.667-3.483V16.229h.29v-.012h2.232c3.1,0,3.984-1.629,4.4-2.41l1.358-2.712.055-.1-.055-.109h-8v-.05h-.29v-8.4Z" transform="translate(365.407 3.341)" fill="#2b2c2c"/>
  </g>
  <g id="Group_5" data-name="Group 5" clip-path="url(#clip-path)">
    <path id="Path_5" data-name="Path 5" d="M193.354,5.679c-6.433,0-10.377,3.419-10.377,8.287,0,9.159,12.87,7.42,12.87,12.063,0,2.082-2.028,2.892-4.808,2.892a14.007,14.007,0,0,1-7.475-2.256l-.313.729-1.225,4.661A19.81,19.81,0,0,0,191.5,34.37c5.915,0,11.132-2.486,11.132-8.52,0-9.562-12.868-7.881-12.868-12.229,0-1.8,1.562-2.493,3.88-2.493a18.586,18.586,0,0,1,6.48,1.24l1.292-4.911V7.016a23.708,23.708,0,0,0-8.059-1.337" transform="translate(250.198 7.806)" fill="#2b2c2c"/>
  </g>
  <g id="Group_6" data-name="Group 6" clip-path="url(#clip-path)">
    <path id="Path_6" data-name="Path 6" d="M214.384,5.679c-6.437,0-10.377,3.419-10.377,8.287,0,9.159,12.87,7.42,12.87,12.063,0,2.082-2.028,2.892-4.816,2.892a13.954,13.954,0,0,1-7.19-2.087l-1.425,5.433a20.035,20.035,0,0,0,9.078,2.1c5.915,0,11.134-2.486,11.134-8.52,0-9.562-12.868-7.881-12.868-12.229,0-1.8,1.562-2.493,3.882-2.493a18.523,18.523,0,0,1,6.435,1.225l1.33-5.067V7.016a23.7,23.7,0,0,0-8.054-1.337" transform="translate(279.643 7.806)" fill="#2b2c2c"/>
  </g>
  <g id="Group_7" data-name="Group 7" clip-path="url(#clip-path)">
    <path id="Path_7" data-name="Path 7" d="M224.075,5.679c-6.433,0-10.377,3.419-10.377,8.287,0,9.159,12.87,7.42,12.87,12.063,0,2.082-2.028,2.892-4.813,2.892a13.951,13.951,0,0,1-7.276-2.139l-1.425,5.447a20.024,20.024,0,0,0,9.161,2.142c5.915,0,11.134-2.486,11.134-8.52,0-9.562-12.868-7.881-12.868-12.229,0-1.8,1.563-2.493,3.88-2.493a18.473,18.473,0,0,1,6.4,1.211L232.13,7.12v-.1a23.669,23.669,0,0,0-8.054-1.337" transform="translate(292.85 7.806)" fill="#2b2c2c"/>
  </g>
  <g id="Group_8" data-name="Group 8" clip-path="url(#clip-path)">
    <path id="Path_8" data-name="Path 8" d="M183.208,5.679c-6.433,0-10.374,3.419-10.374,8.287,0,9.159,12.87,7.42,12.87,12.063,0,2.082-2.028,2.892-4.808,2.892a14.034,14.034,0,0,1-7.477-2.256l-.017.031,2.64,6.986a20.527,20.527,0,0,0,5.317.689c5.91,0,11.125-2.486,11.125-8.52,0-9.562-12.865-7.881-12.865-12.229,0-1.8,1.565-2.493,3.88-2.493a18.524,18.524,0,0,1,6.437,1.221l1.337-5.108V7.016a23.757,23.757,0,0,0-8.064-1.337" transform="translate(237.565 7.806)" fill="#2b2c2c"/>
  </g>
  <g id="Group_9" data-name="Group 9" clip-path="url(#clip-path)">
    <path id="Path_9" data-name="Path 9" d="M223.243,5.474l-.133.074V34.073H230V14.716a10.986,10.986,0,0,1,6.554-2.726c3.536,0,4.056,2.664,4.056,5.856V34.073h6.957V15.756l-.052-1.04a10.687,10.687,0,0,1,6.49-2.726c3.536,0,4.167,2.553,4.167,5.794V34.073h6.905v-18.2c0-7.245-4.288-9.911-9.1-9.911-3.073,0-6.554,1.446-9.857,4.234a7.66,7.66,0,0,0-7.3-4.234c-3.358,0-6.492,1.624-9.213,3.766h-.264A5.262,5.262,0,0,0,226.888,7.3l-3.512-1.755Z" transform="translate(306.671 7.524)" fill="#2b2c2c"/>
  </g>
  <g id="Group_10" data-name="Group 10" clip-path="url(#clip-path)">
    <path id="Path_10" data-name="Path 10" d="M254.429,5.474l-.135.074V34.073h6.893V14.887a11.228,11.228,0,0,1,6.727-2.9c3.538,0,4.231,2.726,4.231,6.084v16h6.96V15.934c0-7.829-4.469-9.973-8.812-9.973-3.415,0-6.487,1.505-9.391,3.766h-.375A5.272,5.272,0,0,0,258.072,7.3L254.56,5.548Z" transform="translate(349.534 7.524)" fill="#2b2c2c"/>
  </g>
  <g id="Group_11" data-name="Group 11" clip-path="url(#clip-path)">
    <path id="Path_11" data-name="Path 11" d="M65.289,1.173C53,1.173,45.11,9.987,45.11,21.057c0,11.191,6.789,19.25,19.307,19.25a24.482,24.482,0,0,0,11.8-2.859,10.516,10.516,0,0,1-1.608-5.661,17.987,17.987,0,0,1-9.384,2.662c-7.824,0-12.692-5.564-12.692-13.563,0-7.482,4.462-13.858,12.929-13.858a20.587,20.587,0,0,1,9.854,2.493V3.03A25.492,25.492,0,0,0,65.289,1.173" transform="translate(62.005 1.612)" fill="#2b2c2c"/>
  </g>
  <g id="Group_12" data-name="Group 12" clip-path="url(#clip-path)">
    <path id="Path_12" data-name="Path 12" d="M100.451,35.884a10.616,10.616,0,0,1-3.187-.463V19.54a9.934,9.934,0,0,1,4.172-.874c4.516,0,7.183,3.362,7.183,8.178,0,5.388-3.187,9.04-8.168,9.04M97.265,0h-6.9V39.707a19.6,19.6,0,0,0,8.985,1.916c9.337,0,16.406-5.568,16.406-15.185,0-8.7-5.853-13.511-13.162-13.511a17.775,17.775,0,0,0-5.326.814Z" transform="translate(124.205)" fill="#2b2c2c"/>
  </g>
  <g id="Group_13" data-name="Group 13" clip-path="url(#clip-path)">
    <path id="Path_13" data-name="Path 13" d="M132,36.006c-4.987,0-8.406-3.068-8.406-8.4,0-5.625,3.536-8.871,8.346-8.871a13.467,13.467,0,0,1,3.305.406V35.546a10.491,10.491,0,0,1-3.246.461M142.2.125h-6.955V13.4a20.475,20.475,0,0,0-3.711-.347c-8.7,0-15.012,5.97-15.012,14.667,0,9.045,6.668,14.029,15.6,14.029A24.811,24.811,0,0,0,142.2,39.715Z" transform="translate(160.157 0.172)" fill="#2b2c2c"/>
  </g>
  <g id="Group_14" data-name="Group 14" clip-path="url(#clip-path)">
    <path id="Path_14" data-name="Path 14" d="M147.244,17.046c.055-3.305,1.911-6.2,5.328-6.2,3.657,0,5.219,3.07,5.283,6.2ZM152.7,5.568c-7.834,0-12.352,6.2-12.352,14.435,0,7.42,4.058,14.264,14.033,14.264a18.348,18.348,0,0,0,9.674-2.555l-2.085-4.747a13.759,13.759,0,0,1-6.9,1.85c-4.578,0-7.591-2.721-7.767-6.957h17.567V20.235c0-9.1-4.466-14.667-12.172-14.667" transform="translate(192.907 7.653)" fill="#2b2c2c"/>
  </g>
  <g id="Group_15" data-name="Group 15" clip-path="url(#clip-path)">
    <path id="Path_15" data-name="Path 15" d="M69.726,28.809c-2.493,0-4.058-1.389-4.058-3.768a3.317,3.317,0,0,1,1.676-3.127,8.655,8.655,0,0,1,4-.871l3.548-.112v5.746l.017.216a8.393,8.393,0,0,1-5.186,1.916M70.942,5.57A21.546,21.546,0,0,0,60.332,8.291L62.6,12.758a15.461,15.461,0,0,1,7.188-1.916c3.187,0,5.274,1.389,5.274,4.578v.871l-4.7.171a17.064,17.064,0,0,0-7.074,1.57,7.834,7.834,0,0,0-4.637,7.477c0,5.274,3.885,8.753,9.1,8.753a11.283,11.283,0,0,0,7.883-3.187h.577a6.055,6.055,0,0,0,1.895,1.489l3.612,1.8.138.074L82,34.368V18.219h-.043V15.538c0-6.613-3.654-9.968-11.018-9.968" transform="translate(80.617 7.656)" fill="#2b2c2c"/>
  </g>
  <g id="Group_16" data-name="Group 16" clip-path="url(#clip-path)">
    <path id="Path_16" data-name="Path 16" d="M70.735,5.316l-.131.071V33.915H77.5V14.553a11.02,11.02,0,0,1,6.556-2.719c3.533,0,4.053,2.664,4.053,5.853v16.23h6.957V15.6l-.055-1.04a10.694,10.694,0,0,1,6.494-2.726c3.536,0,4.167,2.548,4.167,5.794V33.915h6.9v-18.2c0-7.249-4.288-9.911-9.1-9.911-3.08,0-6.554,1.446-9.859,4.229A7.667,7.667,0,0,0,86.311,5.8c-3.36,0-6.492,1.624-9.213,3.764h-.256a5.272,5.272,0,0,0-2.455-2.422L70.872,5.387Z" transform="translate(97.047 7.307)" fill="#2b2c2c"/>
  </g>
  <g id="Group_17" data-name="Group 17" clip-path="url(#clip-path)">
    <path id="Path_17" data-name="Path 17" d="M116.909,5.626a10.191,10.191,0,0,0-7.534,3.635l-.76-3.08h-5.851V33.605h6.9V14.238c2.128-2.6,4.224-3.377,5.962-3.377a6.884,6.884,0,0,1,4.241,1.581v-6.3a8.775,8.775,0,0,0-2.959-.518" transform="translate(141.252 7.733)" fill="#2b2c2c"/>
  </g>
  <g id="Group_18" data-name="Group 18" clip-path="url(#clip-path)">
    <path id="Path_18" data-name="Path 18" d="M119.1,13.246h-6.955V40.667H119.1ZM115.623.49a4.135,4.135,0,0,0-4.231,4.172,4.086,4.086,0,0,0,4.231,4.115,4.146,4.146,0,1,0,0-8.287" transform="translate(153.111 0.674)" fill="#2b2c2c"/>
  </g>
  <g id="Group_19" data-name="Group 19" clip-path="url(#clip-path)">
    <path id="Path_19" data-name="Path 19" d="M142.131,42.117c-4.578,0-7.477-1.679-7.477-4.407a4.619,4.619,0,0,1,2.2-3.59c3.709,1.448,12.231.639,12.231,4.58,0,2.028-2.783,3.417-6.957,3.417m-.463-21.565c-3.073,0-4.811-2.375-4.811-5.1,0-3.3,2.028-5.1,4.751-5.1a4.906,4.906,0,0,1,4.927,5.162c0,3.3-2.087,5.041-4.868,5.041m14.774-15.43H145.69v.009H141.5c-7.477,0-11.189,5.046-11.189,10.087a9.6,9.6,0,0,0,4.576,8.522c-2.258,1.567-3.305,3.533-3.305,5.157a3.867,3.867,0,0,0,1.8,3.424c-2.838,1.218-4.93,3.593-4.93,6.611,0,4.751,4.69,8.054,12.751,8.054,9.51,0,14.494-4.06,14.494-9.045,0-10.258-18.027-5.682-18.027-10.607a3.823,3.823,0,0,1,.693-2.028,11.511,11.511,0,0,0,3.365.465c6.663,0,11.36-4,11.36-10.151a9.5,9.5,0,0,0-1.933-5.815h.793V9.769a3.725,3.725,0,0,0,3.315-2.08l1.182-2.382.05-.095Z" transform="translate(176.559 7.04)" fill="#2b2c2c"/>
  </g>
  <g id="Group_20" data-name="Group 20" clip-path="url(#clip-path)">
    <rect id="Rectangle_25" data-name="Rectangle 25" width="5.141" height="38.08" transform="translate(108.779 59.935)" fill="#2b2c2c"/>
  </g>
  <g id="Group_21" data-name="Group 21" clip-path="url(#clip-path)">
    <path id="Path_20" data-name="Path 20" d="M51.092,30.167h4.277L56,33.517c2.944-2.427,6.005-4.041,9.477-4.041,4.331,0,8.318,2.543,8.318,9.709V57.5H68.72V40.859c0-3.873-.926-6.877-4.685-6.877-2.778,0-5.433,1.617-7.857,3.7V57.5H51.092V30.167Z" transform="translate(70.227 40.516)" fill="#2b2c2c"/>
  </g>
  <g id="Group_22" data-name="Group 22" clip-path="url(#clip-path)">
    <path id="Path_21" data-name="Path 21" d="M66.869,55.522V38.414h-4.68v-4.1h4.68V28.073l5.086-1.615v7.853h8.2l-1.389,4.1H71.955V54.537c0,2.427.983,3.472,2.771,3.472a8.415,8.415,0,0,0,4.393-1.448l1.674,3.529a13.006,13.006,0,0,1-7.221,2.132c-4.22,0-6.7-2.42-6.7-6.7" transform="translate(85.48 36.367)" fill="#2b2c2c"/>
  </g>
  <g id="Group_23" data-name="Group 23" clip-path="url(#clip-path)">
    <path id="Path_22" data-name="Path 22" d="M88.54,41.144c-.062-3.811-1.9-7.625-6.012-7.625-3.93,0-6.292,3.464-6.354,7.625ZM76.173,44.96c.062,5.146,3.239,8.954,8.612,8.954A14.059,14.059,0,0,0,91.6,52.07l1.56,3.521A17.116,17.116,0,0,1,84.2,58.075c-9.064,0-13.228-6.644-13.228-14.444,0-8.32,4.561-14.155,11.554-14.155,7.169,0,11.274,5.488,11.274,14.209V44.96Z" transform="translate(97.554 40.516)" fill="#2b2c2c"/>
  </g>
  <g id="Group_24" data-name="Group 24" clip-path="url(#clip-path)">
    <path id="Path_23" data-name="Path 23" d="M82.6,30.167h4.277l.579,3.35c2.89-3.063,5.141-4.041,7.682-4.041a6.388,6.388,0,0,1,3.241.81l-1.793,4.5a5.565,5.565,0,0,0-2.657-.691c-1.909,0-3.7,1.035-6.24,3.517V57.5H82.605V30.167Z" transform="translate(113.543 40.516)" fill="#2b2c2c"/>
  </g>
  <g id="Group_25" data-name="Group 25" clip-path="url(#clip-path)">
    <path id="Path_24" data-name="Path 24" d="M90.271,30.167h4.277l.636,3.35c2.944-2.427,6.012-4.041,9.477-4.041,4.338,0,8.318,2.543,8.318,9.709V57.5H107.9V40.859c0-3.873-.926-6.877-4.685-6.877-2.776,0-5.431,1.617-7.855,3.7V57.5H90.271Z" transform="translate(124.08 40.516)" fill="#2b2c2c"/>
  </g>
  <g id="Group_26" data-name="Group 26" clip-path="url(#clip-path)">
    <path id="Path_25" data-name="Path 25" d="M113.893,44.381a11.023,11.023,0,0,0-4.8.983,4.183,4.183,0,0,0-2.139,3.87,4.409,4.409,0,0,0,4.735,4.68A9.526,9.526,0,0,0,118.34,50.8V44.208Zm4.792,10.172a11.687,11.687,0,0,1-8.147,3.521c-5.022,0-8.779-3.293-8.779-8.553a7.743,7.743,0,0,1,4.621-7.394,17.133,17.133,0,0,1,6.881-1.389l5.079-.171V39.126c0-3.875-2.372-5.552-5.663-5.552a14.216,14.216,0,0,0-7.456,2.139l-1.79-3.524a19.2,19.2,0,0,1,9.88-2.714c6.186,0,10.116,2.942,10.116,9.529v9.942c0,4.685.171,7.171.52,8.555h-4.4Z" transform="translate(139.87 40.516)" fill="#2b2c2c"/>
  </g>
  <g id="Group_27" data-name="Group 27" clip-path="url(#clip-path)">
    <path id="Path_26" data-name="Path 26" d="M117.072,55.522V38.414h-4.68v-4.1h4.68V28.073l5.089-1.615v7.853h8.2l-1.384,4.1h-6.817V54.537c0,2.427.981,3.472,2.769,3.472a8.418,8.418,0,0,0,4.4-1.448L131,60.088a13.006,13.006,0,0,1-7.221,2.132c-4.22,0-6.7-2.42-6.7-6.7" transform="translate(154.486 36.367)" fill="#2b2c2c"/>
  </g>
  <g id="Group_28" data-name="Group 28" clip-path="url(#clip-path)">
    <path id="Path_27" data-name="Path 27" d="M122.336,36.793h5.086V64.126h-5.086Zm-.7-8.9a3.294,3.294,0,0,1,6.587,0,3.269,3.269,0,0,1-3.348,3.293,3.178,3.178,0,0,1-3.239-3.293" transform="translate(167.195 33.892)" fill="#2b2c2c"/>
  </g>
  <g id="Group_29" data-name="Group 29" clip-path="url(#clip-path)">
    <path id="Path_28" data-name="Path 28" d="M146.971,43.805c0-5.889-2.887-10.113-7.682-10.113-4.856,0-7.746,4.222-7.746,10.113,0,5.837,2.89,10.051,7.686,10.051,4.854,0,7.741-4.215,7.741-10.051m-20.685,0c0-8.088,5.146-14.33,13-14.33,7.743,0,12.944,6.243,12.944,14.33,0,8.035-5.146,14.273-13,14.273-7.8,0-12.944-6.238-12.944-14.273" transform="translate(173.585 40.514)" fill="#2b2c2c"/>
  </g>
  <g id="Group_30" data-name="Group 30" clip-path="url(#clip-path)">
    <path id="Path_29" data-name="Path 29" d="M139.186,30.167h4.277l.636,3.35c2.952-2.427,6.012-4.041,9.477-4.041,4.333,0,8.318,2.543,8.318,9.709V57.5h-5.079V40.859c0-3.873-.928-6.877-4.685-6.877-2.778,0-5.431,1.617-7.857,3.7V57.5h-5.089V30.167Z" transform="translate(191.312 40.516)" fill="#2b2c2c"/>
  </g>
  <g id="Group_31" data-name="Group 31" clip-path="url(#clip-path)">
    <path id="Path_30" data-name="Path 30" d="M162.806,44.381a11.043,11.043,0,0,0-4.8.983,4.185,4.185,0,0,0-2.137,3.87,4.408,4.408,0,0,0,4.735,4.68,9.531,9.531,0,0,0,6.649-3.118V44.208ZM167.6,54.553a11.687,11.687,0,0,1-8.147,3.521c-5.022,0-8.779-3.293-8.779-8.553a7.739,7.739,0,0,1,4.621-7.394,17.106,17.106,0,0,1,6.874-1.389l5.089-.171V39.126c0-3.875-2.372-5.552-5.666-5.552a14.21,14.21,0,0,0-7.456,2.139l-1.79-3.524a19.2,19.2,0,0,1,9.88-2.714c6.183,0,10.115,2.942,10.115,9.529v9.942c0,4.685.171,7.171.52,8.555h-4.4Z" transform="translate(207.103 40.516)" fill="#2b2c2c"/>
  </g>
  <g id="Group_32" data-name="Group 32" clip-path="url(#clip-path)">
    <path id="Path_31" data-name="Path 31" d="M162.449,24.048h5.089V58.139c0,2.08.636,2.719,2.018,2.719a6.032,6.032,0,0,0,1.738-.349l1.04,3.992a11.9,11.9,0,0,1-4.22.812c-3.811,0-5.663-2.082-5.663-5.727V24.048Z" transform="translate(223.291 33.055)" fill="#2b2c2c"/>
  </g>
  <g id="Group_33" data-name="Group 33" clip-path="url(#clip-path)">
    <path id="Path_32" data-name="Path 32" d="M173.619,25.24h19.243L191.3,29.631H178.76V41.712h12.426V46.1H178.76V58.932h14.33V63.32H173.619Z" transform="translate(238.644 34.693)" fill="#2b2c2c"/>
  </g>
  <g id="Group_34" data-name="Group 34" clip-path="url(#clip-path)">
    <path id="Path_33" data-name="Path 33" d="M202.439,60.571V41.847a11.586,11.586,0,0,0-3.987-.636c-5.257,0-9.477,3.7-9.477,10.286,0,6.01,3.643,9.7,9.538,9.7a10.8,10.8,0,0,0,3.925-.632m-18.721-8.959c0-8.786,6.295-14.677,14.39-14.677a15.529,15.529,0,0,1,4.331.52V24.048h5.089V63.631a20.743,20.743,0,0,1-9.128,1.907c-8.152,0-14.682-4.794-14.682-13.927" transform="translate(252.525 33.055)" fill="#2b2c2c"/>
  </g>
  <g id="Group_35" data-name="Group 35" clip-path="url(#clip-path)">
    <path id="Path_34" data-name="Path 34" d="M197.2,52.476a14.776,14.776,0,0,1-.75-5.2V29.77h5.089V46.354a11.421,11.421,0,0,0,.518,4.041c.691,1.909,2.139,2.83,4.393,2.83a9.481,9.481,0,0,0,6.991-3.41V29.768h5.089V48.662c0,4.564.169,7.05.577,8.437h-4.509l-.867-3.063a13.223,13.223,0,0,1-8.9,3.64,7.746,7.746,0,0,1-7.629-5.2" transform="translate(270.02 40.917)" fill="#2b2c2c"/>
  </g>
  <g id="Group_36" data-name="Group 36" clip-path="url(#clip-path)">
    <path id="Path_35" data-name="Path 35" d="M207.932,44.094c0-8.147,5.547-14.618,13.87-14.618a14.246,14.246,0,0,1,6.991,1.731v4.452a11.5,11.5,0,0,0-6.589-1.966c-5.6,0-9.011,4.334-9.011,10.111,0,6.416,3.41,10.056,8.66,10.056a12.817,12.817,0,0,0,6.532-1.911l1.505,3.586a16.09,16.09,0,0,1-8.724,2.543c-8.553,0-13.233-6.24-13.233-13.984" transform="translate(285.808 40.516)" fill="#2b2c2c"/>
  </g>
  <g id="Group_37" data-name="Group 37" clip-path="url(#clip-path)">
    <path id="Path_36" data-name="Path 36" d="M230.089,44.381a11.011,11.011,0,0,0-4.794.983,4.185,4.185,0,0,0-2.137,3.87,4.409,4.409,0,0,0,4.735,4.68,9.515,9.515,0,0,0,6.646-3.118V44.208Zm4.8,10.172a11.682,11.682,0,0,1-8.147,3.521c-5.027,0-8.781-3.293-8.781-8.553a7.741,7.741,0,0,1,4.623-7.394,17.109,17.109,0,0,1,6.877-1.389l5.084-.171V39.126c0-3.875-2.37-5.552-5.663-5.552a14.21,14.21,0,0,0-7.456,2.139l-1.79-3.524a19.165,19.165,0,0,1,9.88-2.714c6.183,0,10.115,2.942,10.115,9.529v9.942c0,4.685.171,7.171.522,8.555h-4.4Z" transform="translate(299.589 40.516)" fill="#2b2c2c"/>
  </g>
  <g id="Group_38" data-name="Group 38" clip-path="url(#clip-path)">
    <path id="Path_37" data-name="Path 37" d="M233.274,55.522V38.414h-4.683v-4.1h4.683V28.073l5.086-1.615v7.853h8.2l-1.384,4.1h-6.82V54.537c0,2.427.983,3.472,2.771,3.472a8.415,8.415,0,0,0,4.393-1.448l1.674,3.529a13,13,0,0,1-7.221,2.132c-4.22,0-6.7-2.42-6.7-6.7" transform="translate(314.205 36.367)" fill="#2b2c2c"/>
  </g>
  <g id="Group_39" data-name="Group 39" clip-path="url(#clip-path)">
    <path id="Path_38" data-name="Path 38" d="M238.537,36.793h5.086V64.126h-5.086Zm-.7-8.9a3.159,3.159,0,0,1,3.237-3.239,3.193,3.193,0,0,1,3.353,3.239,3.272,3.272,0,0,1-3.353,3.293,3.175,3.175,0,0,1-3.237-3.293" transform="translate(326.916 33.892)" fill="#2b2c2c"/>
  </g>
  <g id="Group_40" data-name="Group 40" clip-path="url(#clip-path)">
    <path id="Path_39" data-name="Path 39" d="M263.172,43.805c0-5.889-2.887-10.113-7.679-10.113-4.858,0-7.748,4.222-7.748,10.113,0,5.837,2.89,10.051,7.686,10.051,4.854,0,7.741-4.215,7.741-10.051m-20.685,0c0-8.088,5.146-14.33,13.005-14.33,7.743,0,12.941,6.243,12.941,14.33,0,8.035-5.146,14.273-13,14.273-7.8,0-12.944-6.238-12.944-14.273" transform="translate(333.305 40.514)" fill="#2b2c2c"/>
  </g>
  <g id="Group_41" data-name="Group 41" clip-path="url(#clip-path)">
    <path id="Path_40" data-name="Path 40" d="M255.386,30.167h4.277l.639,3.35c2.942-2.427,6.01-4.041,9.474-4.041,4.334,0,8.318,2.543,8.318,9.709V57.5h-5.079V40.859c0-3.873-.926-6.877-4.685-6.877-2.776,0-5.431,1.617-7.857,3.7V57.5h-5.089V30.167Z" transform="translate(351.032 40.516)" fill="#2b2c2c"/>
  </g>
  <g id="Group_42" data-name="Group 42" clip-path="url(#clip-path)">
    <path id="Path_41" data-name="Path 41" d="M53.216,24.159a48.692,48.692,0,0,1-2.049,12.668,30.947,30.947,0,0,1-4.806,9.524,33.485,33.485,0,0,1-11.6,9.289c-.266.15-2.116,1.088-10.982,5.5l.1.2h.228V24.4H53.44V23.95H23.656V61.712l.325-.159c8.871-4.424,10.711-5.357,10.992-5.511a33.926,33.926,0,0,0,11.744-9.415A31.686,31.686,0,0,0,51.6,36.962a49.548,49.548,0,0,0,2.061-12.784Z" transform="translate(32.516 32.92)" fill="#ffde26"/>
  </g>
  <g id="Group_43" data-name="Group 43" clip-path="url(#clip-path)">
    <path id="Path_42" data-name="Path 42" d="M31.23,24.172V61.348h.221l.1-.2c-8.862-4.414-10.719-5.359-10.98-5.5a33.686,33.686,0,0,1-11.6-9.292,31.119,31.119,0,0,1-4.806-9.527A48.712,48.712,0,0,1,2.121,24.163l-.221.009V24.4H31.451v-.446H1.658l.012.235A49.732,49.732,0,0,0,3.733,36.969a31.691,31.691,0,0,0,4.88,9.662,34.014,34.014,0,0,0,11.749,9.415c.283.15,2.125,1.092,10.989,5.5l.328.164V24.172Z" transform="translate(2.279 32.919)" fill="#ffde26"/>
  </g>
  <g id="Group_44" data-name="Group 44" clip-path="url(#clip-path)">
    <path id="Path_43" data-name="Path 43" d="M53.5,1.858V1.637H23.656V32.4H53.722V1.637H53.5v.221h-.223v30.09H24.11V2.091H53.5V1.858h0Z" transform="translate(32.516 2.25)" fill="#262626"/>
  </g>
  <g id="Group_45" data-name="Group 45" clip-path="url(#clip-path)">
    <path id="Path_44" data-name="Path 44" d="M31.481,1.858V1.637H1.638V32.4H31.7V1.637h-.221v.221h-.226v30.09H2.092V2.091h29.39V1.858h0Z" transform="translate(2.251 2.25)" fill="#262626"/>
  </g>
  <g id="Group_46" data-name="Group 46" clip-path="url(#clip-path)">
    <path id="Path_45" data-name="Path 45" d="M45.064,104.534l-.9-.477c-1.334-.665-22.15-11.008-23.389-11.68C14.038,88.705,0,81.081,0,54.358V0H90.128V54.355c0,26.725-14.038,34.35-20.779,38.021-1.24.674-22.183,11.08-23.389,11.68Z" fill="#2b2c2c"/>
  </g>
  <g id="Group_47" data-name="Group 47" clip-path="url(#clip-path)">
    <path id="Path_46" data-name="Path 46" d="M53.106,35.46V.82H34.767V35.46H.821V53.228l0,.568H34.767V96.632c4.892,2.441,9.161,4.561,9.161,4.561l.007,0,0,0s4.274-2.12,9.168-4.561V53.8H87.047V35.46H53.106Z" transform="translate(1.128 1.127)" fill="#fff"/>
  </g>
  <g id="Group_48" data-name="Group 48" clip-path="url(#clip-path)">
    <rect id="Rectangle_54" data-name="Rectangle 54" width="33.946" height="34.64" transform="translate(1.952 1.94)" fill="#e53e33"/>
  </g>
  <g id="Group_49" data-name="Group 49" clip-path="url(#clip-path)">
    <rect id="Rectangle_56" data-name="Rectangle 56" width="33.946" height="34.64" transform="translate(54.237 1.947)" fill="#e53e33"/>
  </g>
  <g id="Group_50" data-name="Group 50" clip-path="url(#clip-path)">
    <path id="Path_47" data-name="Path 47" d="M34.765,23.131H.824C1.016,47.969,13.756,55.156,20.582,58.87c.7.378,7.943,4,14.183,7.1Z" transform="translate(1.133 31.794)" fill="#e53e33"/>
  </g>
  <g id="Group_51" data-name="Group 51" clip-path="url(#clip-path)">
    <path id="Path_48" data-name="Path 48" d="M22.84,23.131V65.972c6.24-3.108,13.487-6.725,14.183-7.1,6.827-3.711,19.566-10.9,19.758-35.739Z" transform="translate(31.394 31.794)" fill="#e53e33"/>
  </g>
  <g id="Group_52" data-name="Group 52" clip-path="url(#clip-path)">
    <path id="Path_49" data-name="Path 49" d="M29.195,20.472l.7-.831-.883-1.05-.886,1.05.7.831c.014.42.038,4.091-2.125,5.409a4.985,4.985,0,0,0,1.688-.05,10.957,10.957,0,0,0,.622,2.052,11.083,11.083,0,0,0,.624-2.052,4.979,4.979,0,0,0,1.688.05c-2.166-1.32-2.137-4.989-2.128-5.409" transform="translate(36.699 25.554)" fill="#2b2c2c"/>
  </g>
  <g id="Group_53" data-name="Group 53" clip-path="url(#clip-path)">
    <path id="Path_50" data-name="Path 50" d="M31.519,17.844l.7-.831-.883-1.05-.883,1.05.7.831c.009.42.038,4.094-2.128,5.409a4.969,4.969,0,0,0,1.686-.05,10.924,10.924,0,0,0,.622,2.044,11.086,11.086,0,0,0,.629-2.044,4.969,4.969,0,0,0,1.686.05c-2.166-1.315-2.142-4.989-2.132-5.409" transform="translate(39.9 21.942)" fill="#2b2c2c"/>
  </g>
  <g id="Group_54" data-name="Group 54" clip-path="url(#clip-path)">
    <path id="Path_51" data-name="Path 51" d="M33.851,20.472l.7-.831-.886-1.05-.883,1.05.7.831c.014.42.043,4.091-2.125,5.409a5.01,5.01,0,0,0,1.693-.05,10.712,10.712,0,0,0,.617,2.052,11.343,11.343,0,0,0,.629-2.052,4.969,4.969,0,0,0,1.686.05c-2.168-1.32-2.142-4.989-2.13-5.409" transform="translate(43.098 25.554)" fill="#2b2c2c"/>
  </g>
  <g id="Group_55" data-name="Group 55" clip-path="url(#clip-path)">
    <path id="Path_52" data-name="Path 52" d="M36.179,17.844l.7-.831-.883-1.05-.886,1.05.7.831c.014.42.038,4.094-2.125,5.409a4.973,4.973,0,0,0,1.686-.05,11.049,11.049,0,0,0,.625,2.044,11.049,11.049,0,0,0,.624-2.044,4.979,4.979,0,0,0,1.688.05c-2.163-1.315-2.139-4.989-2.128-5.409" transform="translate(46.298 21.942)" fill="#2b2c2c"/>
  </g>
  <g id="Group_56" data-name="Group 56" clip-path="url(#clip-path)">
    <path id="Path_53" data-name="Path 53" d="M26.867,17.844l.7-.831-.886-1.05-.886,1.05.7.831c.014.42.043,4.094-2.125,5.409a5.01,5.01,0,0,0,1.693-.05,10.678,10.678,0,0,0,.617,2.044,11.086,11.086,0,0,0,.629-2.044,4.969,4.969,0,0,0,1.686.05c-2.166-1.315-2.142-4.989-2.13-5.409" transform="translate(33.499 21.942)" fill="#2b2c2c"/>
  </g>
  <g id="Group_57" data-name="Group 57" clip-path="url(#clip-path)">
    <path id="Path_54" data-name="Path 54" d="M7.152,20.472l.7-.831-.886-1.05-.883,1.05.7.831c.014.42.043,4.091-2.125,5.409a5.01,5.01,0,0,0,1.693-.05,10.712,10.712,0,0,0,.617,2.052,11.344,11.344,0,0,0,.629-2.052,4.985,4.985,0,0,0,1.688.05c-2.168-1.32-2.142-4.989-2.13-5.409" transform="translate(6.397 25.554)" fill="#2b2c2c"/>
  </g>
  <g id="Group_58" data-name="Group 58" clip-path="url(#clip-path)">
    <path id="Path_55" data-name="Path 55" d="M9.481,17.844l.7-.831L9.3,15.963l-.886,1.05.7.831c.014.42.043,4.094-2.13,5.409a5.042,5.042,0,0,0,1.7-.05A10.678,10.678,0,0,0,9.3,25.247,10.834,10.834,0,0,0,9.921,23.2a4.979,4.979,0,0,0,1.688.05c-2.161-1.315-2.139-4.989-2.128-5.409" transform="translate(9.596 21.942)" fill="#2b2c2c"/>
  </g>
  <g id="Group_59" data-name="Group 59" clip-path="url(#clip-path)">
    <path id="Path_56" data-name="Path 56" d="M11.808,20.472l.7-.831-.886-1.05-.883,1.05.7.831c.009.42.038,4.091-2.125,5.409A4.966,4.966,0,0,0,11,25.831a11.176,11.176,0,0,0,.622,2.052,10.991,10.991,0,0,0,.627-2.052,4.988,4.988,0,0,0,1.688.05c-2.168-1.32-2.139-4.989-2.128-5.409" transform="translate(12.8 25.554)" fill="#2b2c2c"/>
  </g>
  <g id="Group_60" data-name="Group 60" clip-path="url(#clip-path)">
    <path id="Path_57" data-name="Path 57" d="M14.133,17.844l.7-.831-.886-1.05-.883,1.05.7.831c.009.42.038,4.094-2.128,5.409a4.969,4.969,0,0,0,1.686-.05,10.923,10.923,0,0,0,.622,2.044,11.086,11.086,0,0,0,.629-2.044,4.969,4.969,0,0,0,1.686.05c-2.166-1.315-2.139-4.989-2.13-5.409" transform="translate(15.999 21.942)" fill="#2b2c2c"/>
  </g>
  <g id="Group_61" data-name="Group 61" clip-path="url(#clip-path)">
    <path id="Path_58" data-name="Path 58" d="M4.824,17.844l.7-.831-.886-1.05-.883,1.05.7.831c.012.42.043,4.094-2.12,5.409a4.979,4.979,0,0,0,1.688-.05,11.014,11.014,0,0,0,.62,2.044A10.958,10.958,0,0,0,5.263,23.2a4.988,4.988,0,0,0,1.688.05c-2.166-1.315-2.139-4.989-2.128-5.409" transform="translate(3.2 21.942)" fill="#2b2c2c"/>
  </g>
  <g id="Group_62" data-name="Group 62" clip-path="url(#clip-path)">
    <path id="Path_59" data-name="Path 59" d="M20.522,26.4l.7-.831-.883-1.05-.886,1.05.7.831c.009.423.038,4.094-2.13,5.4a4.955,4.955,0,0,0,1.691-.047,10.992,10.992,0,0,0,.625,2.044,10.993,10.993,0,0,0,.625-2.044,5.02,5.02,0,0,0,1.688.047c-2.166-1.313-2.139-4.984-2.128-5.4" transform="translate(24.772 33.698)" fill="#2b2c2c"/>
  </g>
  <g id="Group_63" data-name="Group 63" clip-path="url(#clip-path)">
    <path id="Path_60" data-name="Path 60" d="M20.522,34.3l.7-.838-.883-1.042-.886,1.042.7.838c.009.418.038,4.094-2.13,5.407a4.924,4.924,0,0,0,1.691-.05,11.141,11.141,0,0,0,.625,2.052,11.141,11.141,0,0,0,.625-2.052,4.915,4.915,0,0,0,1.688.05C20.484,38.4,20.51,34.72,20.522,34.3" transform="translate(24.772 44.564)" fill="#2b2c2c"/>
  </g>
  <g id="Group_64" data-name="Group 64" clip-path="url(#clip-path)">
    <path id="Path_61" data-name="Path 61" d="M22.675,30.349l.7-.831-.886-1.05-.883,1.05.7.831c.009.42.038,4.1-2.128,5.409a4.994,4.994,0,0,0,1.691-.05,10.665,10.665,0,0,0,.617,2.049,11.069,11.069,0,0,0,.629-2.049,4.969,4.969,0,0,0,1.686.05c-2.166-1.315-2.139-4.989-2.13-5.409" transform="translate(27.741 39.13)" fill="#2b2c2c"/>
  </g>
  <g id="Group_65" data-name="Group 65" clip-path="url(#clip-path)">
    <path id="Path_62" data-name="Path 62" d="M18.337,30.349l.7-.831-.883-1.05-.886,1.05.7.831c.009.42.038,4.1-2.125,5.409a5.01,5.01,0,0,0,1.693-.05,10.665,10.665,0,0,0,.617,2.049,11.034,11.034,0,0,0,.625-2.049,4.988,4.988,0,0,0,1.688.05c-2.166-1.315-2.137-4.989-2.128-5.409" transform="translate(21.774 39.13)" fill="#2b2c2c"/>
  </g>
  <g id="Group_66" data-name="Group 66" clip-path="url(#clip-path)">
    <path id="Path_63" data-name="Path 63" d="M22.675,38.253l.7-.831-.886-1.05-.883,1.05.7.831c.009.42.038,4.094-2.128,5.409a4.994,4.994,0,0,0,1.691-.05,10.712,10.712,0,0,0,.617,2.052,11.119,11.119,0,0,0,.629-2.052,4.969,4.969,0,0,0,1.686.05c-2.166-1.315-2.139-4.989-2.13-5.409" transform="translate(27.741 49.994)" fill="#2b2c2c"/>
  </g>
  <g id="Group_67" data-name="Group 67" clip-path="url(#clip-path)">
    <path id="Path_64" data-name="Path 64" d="M18.337,38.253l.7-.831-.883-1.05-.886,1.05.7.831c.009.42.038,4.094-2.125,5.409a5.01,5.01,0,0,0,1.693-.05,10.712,10.712,0,0,0,.617,2.052,11.083,11.083,0,0,0,.625-2.052,4.988,4.988,0,0,0,1.688.05c-2.166-1.315-2.137-4.989-2.128-5.409" transform="translate(21.774 49.994)" fill="#2b2c2c"/>
  </g>
  <g id="Group_68" data-name="Group 68" clip-path="url(#clip-path)">
    <path id="Path_65" data-name="Path 65" d="M20.522,8.395l.7-.836-.883-1.045-.886,1.045.7.836c.009.418.038,4.091-2.13,5.4a4.883,4.883,0,0,0,1.691-.047,11.133,11.133,0,0,0,.625,2.054,11.133,11.133,0,0,0,.625-2.054,4.874,4.874,0,0,0,1.688.047c-2.166-1.313-2.139-4.987-2.128-5.4" transform="translate(24.772 8.954)" fill="#2b2c2c"/>
  </g>
  <g id="Group_69" data-name="Group 69" clip-path="url(#clip-path)">
    <path id="Path_66" data-name="Path 66" d="M22.675,4.442l.7-.831-.886-1.05-.883,1.05.7.831c.009.42.038,4.091-2.128,5.409A4.963,4.963,0,0,0,21.873,9.8a10.712,10.712,0,0,0,.617,2.052A11.119,11.119,0,0,0,23.119,9.8a4.938,4.938,0,0,0,1.686.052c-2.166-1.318-2.139-4.989-2.13-5.409" transform="translate(27.741 3.52)" fill="#2b2c2c"/>
  </g>
  <g id="Group_70" data-name="Group 70" clip-path="url(#clip-path)">
    <path id="Path_67" data-name="Path 67" d="M18.337,4.442l.7-.831-.883-1.05-.886,1.05.7.831c.009.42.038,4.091-2.125,5.409A4.979,4.979,0,0,0,17.534,9.8a10.712,10.712,0,0,0,.617,2.052A11.083,11.083,0,0,0,18.776,9.8a4.957,4.957,0,0,0,1.688.052C18.3,8.533,18.327,4.862,18.337,4.442" transform="translate(21.774 3.52)" fill="#2b2c2c"/>
  </g>
  <g id="Group_71" data-name="Group 71" clip-path="url(#clip-path)">
    <path id="Path_68" data-name="Path 68" d="M22.675,12.347l.7-.829-.886-1.052-.883,1.052.7.829c.009.425.038,4.091-2.128,5.409a4.963,4.963,0,0,0,1.691-.052,10.705,10.705,0,0,0,.617,2.054,11.11,11.11,0,0,0,.629-2.054,4.938,4.938,0,0,0,1.686.052c-2.166-1.318-2.139-4.984-2.13-5.409" transform="translate(27.741 14.386)" fill="#2b2c2c"/>
  </g>
  <g id="Group_72" data-name="Group 72" clip-path="url(#clip-path)">
    <path id="Path_69" data-name="Path 69" d="M18.337,12.347l.7-.829-.883-1.052-.886,1.052.7.829c.009.425.038,4.091-2.125,5.409a4.979,4.979,0,0,0,1.693-.052,10.705,10.705,0,0,0,.617,2.054,11.075,11.075,0,0,0,.625-2.054,4.957,4.957,0,0,0,1.688.052c-2.166-1.318-2.137-4.984-2.128-5.409" transform="translate(21.774 14.386)" fill="#2b2c2c"/>
  </g>
  <g id="Group_73" data-name="Group 73" clip-path="url(#clip-path)">
    <path id="Path_70" data-name="Path 70" d="M26.82,17.324l.114.43.23.921c.361,1.641.667,2.078,1.467,2.078a.963.963,0,0,0,.952-.639l.173-.575.273-.214c.313,0,.463.33.465,1.052.009.2.078.674.209,1.4a7.291,7.291,0,0,1,.114,1.258l-.173.9a11.8,11.8,0,0,1,.173,1.767,3.647,3.647,0,0,1-.344,1.722,3.556,3.556,0,0,1,.147,1.083l-.09.955a8.18,8.18,0,0,0-.157.995l.074.387.083.344-.083.147-.577-.233-.632-.342-.662-.518c-.56.5-.727.579-2.192.981l-.627.261-.387.195c-.247,0-.363-.4-.363-1.223a6.745,6.745,0,0,1,.173-1.6,3.337,3.337,0,0,0-1.028-.259l-.442.059-.1.01-.159-.278.173-.622.292-.691.689-.831.753-.437,1.028-.2c.62-.121.99-.446.99-.874s-.283-.689-.9-.909l-1.237-.43-1.123-.549c-.686-.408-.8-.458-.969-.458l-.382.506a.8.8,0,0,0,.8.874l.29-.057.3-.085.2.216-.009.128-.059.487a4.036,4.036,0,0,1-.921,1.729l-.256.344A3.938,3.938,0,0,1,21.556,28.8l-.318.23-.23.4-.568.7-.724.658-.577.515-.287.492-.23.142c-.254,0-.489-.261-.629-.712l-.418-.437-.506.083-.4.059H15.624a4.564,4.564,0,0,0-1.579.294l-.3.088-.19-.18-.064-.228a5.6,5.6,0,0,1,.864-2.306,3.071,3.071,0,0,1,.781-.914,1.3,1.3,0,0,0-.8-.983l-.5-.142-.114-.138c0-.152.24-.354.662-.579a3.61,3.61,0,0,1,1.586-.463,2.328,2.328,0,0,1,1.463.61c.781.606.995.717,1.377.717a1.24,1.24,0,0,0,1.2-1.154,2.69,2.69,0,0,0-.755-1.524,3.554,3.554,0,0,1-1.05-2.339,2.889,2.889,0,0,1,.328-1.344l.287-.427.095-.28L18.4,19.3a4.926,4.926,0,0,0-2.023.75l-.582.615.126.223.316.2.062.119-.121.226-.572.75a9.908,9.908,0,0,1-1.213,1.266l-.283.287-.23.43a4.488,4.488,0,0,1-1.268,1.3l-.4.311-.228.406-.375.6-.689.9-.81.8a4.637,4.637,0,0,0-.8,1.779c-.2.636-.389,1.012-.5,1.012L8.582,31.1c-.568-.651-1.059-1.038-1.318-1.038l-.318.145-.779.292L5.1,30.7a2.2,2.2,0,0,0-1.574.864l-.259.2-.152-.335.031-.268.147-.774a6.264,6.264,0,0,1,.577-1.871l.482-.893.14-.465a1.56,1.56,0,0,0-1.515-1.351l-.294-.188.549-.67A3.5,3.5,0,0,1,5.041,24.2a3.932,3.932,0,0,1,1.3.34l.629.261.641.147c.67,0,1.32-.613,2.12-1.985a3.036,3.036,0,0,0,.518-1.477c0-.727-.344-1.173-.914-1.173a1.863,1.863,0,0,0-1.244.544l-.437.89.007.323.009.076-.256.411c-.273,0-.667-.389-1.8-1.757a3.336,3.336,0,0,1-1.061-2.474c-.978-1.24-1.221-1.769-1.221-2.657l.033-.589a2.776,2.776,0,0,1-.86-2l.2-.762A2.935,2.935,0,0,1,2.166,11.2l-.14-.608L1.562,9.522l-.294-.546c0-.337.233-.465,1.242-.712l-.055-.639.081-.689.2-1.066a5.129,5.129,0,0,0,.126-.921,2.925,2.925,0,0,0-.207-.914L2.4,3.372l-.176-.4.2-.157a4.837,4.837,0,0,1,1.819,1.1C5.886,5.281,6.231,5.829,6.454,7.487l.083.577A2.535,2.535,0,0,1,7.746,10.1a3.559,3.559,0,0,1-.572,1.843l-.577.9-.256.945a3.332,3.332,0,0,0,.541,1.729c.444.776.822,1.095,1.282,1.095.757,0,1.425-1.323,1.425-2.823v-.2l-.009-.52.066-.947c.052-.449.081-.729.085-.831l.031-.7.009-.456-.3-.546-.629-.693a4.444,4.444,0,0,1-1.422-2.64A1.468,1.468,0,0,1,8.89,4.725l.613.112v-.2c0-1.268.259-2.2.608-2.2l.138.043.518.461.629.4.18.173.373-.8.4-.549.285-.423.142-.266.24-.214.252.418c.066.2.112.249.606.689l.342.38.233.57.085.233.575-.525.435-.252.313-.15L16,2.795l.23.432a2.179,2.179,0,0,1,.406,1.04l0,.283v.344a1.613,1.613,0,0,1,1.3,1.8,4.061,4.061,0,0,1-1.126,2.462c-.5.584-.553.7-.553,1.109,0,2.128,1.479,3.367,4.089,3.4l1.926.028a9.479,9.479,0,0,1,3.137.518,7.757,7.757,0,0,0,2.163.549l.37-.119.171-.252c0-.4-.705-.731-3.023-1.384-4.744-1.342-6.756-3.255-6.756-6.4A4.414,4.414,0,0,1,22.962,2.3a9.9,9.9,0,0,1,2.876.492l1.185.432.617.119c.4,0,.606-.332.62-1.009l.328-.489c.332,0,.841.411,1.311,1.061A3.74,3.74,0,0,1,30.679,4.8a1.65,1.65,0,0,1-1.007,1.51,2.822,2.822,0,0,1-2.51,1.432c-.833,0-2.016-.465-3.968-1.577a2.824,2.824,0,0,0-1.387-.515.744.744,0,0,0-.836.741c0,.418.318.689,1.161.983A4.082,4.082,0,0,1,24.177,8.5,5.752,5.752,0,0,1,27.2,9.7c2.522.8,4.084,2.519,4.084,4.5a3.093,3.093,0,0,1-3.1,3.3,5.3,5.3,0,0,1-1.361-.173" transform="translate(1.743 1.726)" fill="#2b2c2c"/>
  </g>
  <g id="Group_74" data-name="Group 74" clip-path="url(#clip-path)">
    <path id="Path_71" data-name="Path 71" d="M28.086,29.2l-.109-.691.019-.23.09-.458.031-.375-.207-.862-.344-.461-.287-.551-.057-.237.2-.216.375.169.275.1c.171,0,.268-.278.268-.769a1.754,1.754,0,0,0-.169-1l-.437-.489-.378-.311-.15-.256.242-.207.632.142.131.026.164-.233-.009-.112-.083-.6-.171-.632-.218-.237-.074.01-.717.14-.116.009a2.554,2.554,0,0,1-2.242-1.793l-.572-1.869a3.909,3.909,0,0,0-1.389-1.76l-.57-.309-.522-.062-.159-.142.363-.173.947.083a7.558,7.558,0,0,1,1.555.406,6.135,6.135,0,0,0,1.928.42,2.023,2.023,0,0,0,2.3-2.08,3.668,3.668,0,0,0-1.178-2.543l-.952-.636-.147.152.028.366v.038l-.19.252-.506-.575a2.744,2.744,0,0,0-2.3-1.8l-.254.15.142.418.233.515.088.261-.116.071-.5-.271-.425-.465-.375-.575A2.61,2.61,0,0,0,21,7.942l-.684-.373-.361-.119-.152.152.112.311.292.577-.15.171c-.221,0-.679-.454-1.095-1.064a2.941,2.941,0,0,1-.52-1.622,2.084,2.084,0,0,1,2.128-2.154,4.476,4.476,0,0,1,2.163.722l1.344.836a3.58,3.58,0,0,0,1.581.52l.843-.147.342-.14.135-.164-.076-.126-.171-.055L26.1,5.147l-.776-.283a14.259,14.259,0,0,1-1.439-.722,5.227,5.227,0,0,0-.947-.544l-.38-.278.131-.126.3.112,1.064.4,1.244.432a7.714,7.714,0,0,0,1.914.4.951.951,0,0,0,.947-.952l-.506-1.258-.195-.147-.178.233.028.233.047.337-.572.67-.451-.093-1.871-.6A9.726,9.726,0,0,0,21.383,2.3a3.7,3.7,0,0,0-3.944,3.562c0,2.287,1.605,3.768,5.58,5.127,3.911,1.346,4.462,1.669,4.462,2.678a1.213,1.213,0,0,1-1.242,1.095L25.55,14.7c-.131-.028-.784-.18-1.954-.461a14.6,14.6,0,0,0-3.578-.4c-2.823,0-4.393.492-5.744,1.814l-.841.38-.195-.009-.4-.026h-.052l-.81.518c-.306.484-.468.748-.484.776l-.33.171c-.259,0-.413-.192-.712-.888l-.6-.869-.577-.518-.142-.221.107-.266.411-.75.24-.4c.18,0,.233.176.245.836l.233.774.318.689.259.15c.3,0,.677-.7.776-1.441.083-.62.142-.81.275-.81l.126.062.261.515.37.435.349.2.028,0c.235,0,.321-.15.37-.7l.033-.285-.062-.4L13.43,13.3,13.6,13l.221.119.283.287.575.283.382-.252-.268-.662-.2-.378c-.233-.432-.411-.606-.629-.606l-.3.028-.34.145-.183.066-.138-.114a2.661,2.661,0,0,1,.492-1.178,5.561,5.561,0,0,0,.465-2.253c.1-1.5.294-2.479.5-2.479l.2.442-.017.394-.009.28.131.482c.245,0,.537-.37.769-.959l.145-.591-.028-.133-.577-1.061-.572-.173-.2-.131V3.855l-.057-.344-.116-.29-.142-.311a3.2,3.2,0,0,0-1.154.86l-.458.411-.147-.15.088-.465L12.34,3.4a1.993,1.993,0,0,0-1-1.622l-.178.235-.2.283-.347.406-.285.572-.059.332v.04l0,.107-.133.306-.074-.036-.2-.29L9.553,3.4l-.484-.318-.264-.2L8.7,3.135,8.551,3.6l-.033.458-.026.487,0,.088-.214.347-.337-.14-.411-.121a.718.718,0,0,0-.738.8A2.471,2.471,0,0,0,7.261,7.02l.363.489.306.169L8,7.077l-.088-.489L7.9,6.37l.166-.3c.166,0,.266.183.373.665L8.662,7.8l.233,1.351.34,1.145a7.239,7.239,0,0,0,.492,1.012l.354.553L9.959,12,9.7,11.912,9.353,11.8l-.221-.036c-.465,0-.563.4-.563,2.322a11.537,11.537,0,0,0,.558,3.531l.6,1.52.145.717c0,2.1-2.783,5.385-5.841,6.907a2.356,2.356,0,0,0-1.574,2.356l-.033.378a3.883,3.883,0,0,1,.981-.4c.855-.23,1.019-.335,1.147-.753l.119-.375c.04-.138.114-.19.774-.546l.458-.373.347-.373.107.095-.026.1-.283.822-.036.2a1.556,1.556,0,0,0,.959,1.42,2.578,2.578,0,0,1,.378-1.206l.515-.8a2.194,2.194,0,0,0,.266-1.235l-.066-.9-.019-.228.2-.228.192.085.112.541.275.2c.28,0,.641-.363,1.021-1.007l.209-.76-.04-.392-.085-.43-.007-.088.254-.311.126.05.171.667.37.375.724-.722a2.6,2.6,0,0,0,.264-1.175c0-.617.062-.791.285-.791l.147.071.114.37.2.233.662-.722.088-.271-.259-.392-.323-.662a1.708,1.708,0,0,1,.323-1l.375-.7c.361-.715.5-.9.622-.9l.214.254-.066.237-.112.34.211.211.511-.173a7.713,7.713,0,0,1,.8-.321l.955-.342.577-.09.508.062.665.114.494-.477-.463-.876-.147-.266.036-.112.154-.114c.19,0,.641.487,1.052,1.128,2.474,3.9,3.367,4.844,5.039,5.352,1.688.513,2.13.907,2.13,1.916a3.785,3.785,0,0,1-.9,2.049c-1.249,1.75-1.553,2.458-1.553,3.616l0,.211.316-.14.456-.2.717-.145.408-.587,0-.074-.085-.634,0-.083.261-.608.147-.062.233.176.456.978a1.652,1.652,0,0,0,1.007.864" transform="translate(3.329 2.449)" fill="#ffde26"/>
  </g>
  <g id="Group_75" data-name="Group 75" clip-path="url(#clip-path)">
    <path id="Path_72" data-name="Path 72" d="M3.729,4.545l-.342.577-.055.546a4.694,4.694,0,0,0-.069.693l.283.715.627-.748L4.3,5.654l-.123-.646Z" transform="translate(4.486 6.247)" fill="#ffde26"/>
  </g>
  <g id="Group_76" data-name="Group 76" clip-path="url(#clip-path)">
    <path id="Path_73" data-name="Path 73" d="M3.61,2.941l.406.4a4.555,4.555,0,0,1,.974,3.293c0,.34-.014.572-.085,1.484-.038.477-.059.876-.059,1.19,0,3.564,1.164,6.262,2.7,6.262.482,0,.8-.228,1.247-.921l.264-.207.138.24.062.634.052.541.059.606.085.549,0,.071-.2.271-.525.09-.8.313a2.339,2.339,0,0,0-.748.575L6.865,19l-.185.142c-.166,0-.437-.29-.743-.807a2.717,2.717,0,0,1-.42-.938l.249-.123h.059L6.2,17.3l.228-.026.261-.026.178-.207-.121-.173-1.292-.544a2.046,2.046,0,0,1-.981-.95,3.882,3.882,0,0,1-.52-1.3l.235-.292.2.064.366.116.207-.18-.228-.313A3.457,3.457,0,0,1,3.03,11l.164-.318.214.021.375.059H3.8l.252-.221-.242-.268-.461-.259-.4-.4c-.05-.078-.211-.38-.492-.921l-.4-.776L1.8,7.431,1.62,7.2l.9-.233c.4,0,.646.252.926.95.171.442.363.738.468.738l.081-.337-.121-.857-.085-.636-.059-.4-.347-.173-.254-.285L2.89,5.3l.09-.52A8.032,8.032,0,0,0,3.351,2.9l0-.247Z" transform="translate(2.227 3.651)" fill="#ffde26"/>
  </g>
  <g id="Group_77" data-name="Group 77" clip-path="url(#clip-path)">
    <path id="Path_74" data-name="Path 74" d="M6.04,11.927l-.836-.2L4.66,11.5a2.905,2.905,0,0,0-1.1-.287,1.726,1.726,0,0,0-1.194.487l.254.2.57.406.553.43.473.176a2.7,2.7,0,0,0,1.826-.983" transform="translate(3.249 15.408)" fill="#ffde26"/>
  </g>
  <g id="Group_78" data-name="Group 78" clip-path="url(#clip-path)">
    <path id="Path_75" data-name="Path 75" d="M10.94,20.585l.577-.746c.8-.693,1.178-1.206,1.178-1.615v-.632l.261-.489.171.085.145.344.242.131.418-.332.292-.4.207-.56-.062-.332-.2-.458-.116-.454.256-.3.207.085.226.287.221.1.3-.247.233-.456.088-.256-.264-.259-.368-.176a2.064,2.064,0,0,1-.869-1.843l.055-.313.2-.487.085-.463-.29-.89-.37-.608c-.169-.454-.254-.582-.4-.582l-.147.04-.2.112-.318.171-.375.465-.4.2-.47,1.057c0,.75.081.957,1.069,2.657a3.579,3.579,0,0,1,.591,1.646c0,1.178-1.064,2.023-3.177,2.526l-1.32.313a2.284,2.284,0,0,0-1.76,2.052,2.122,2.122,0,0,1,1.277-.245l.418.007h.074l.677-.375.95-.8.458-.2.373-.2L11.2,18.1l.159.121-.278.492a1.525,1.525,0,0,0-.458,1.109Z" transform="translate(9.424 11.989)" fill="#ffde26"/>
  </g>
  <g id="Group_79" data-name="Group 79" clip-path="url(#clip-path)">
    <path id="Path_76" data-name="Path 76" d="M7.05,12.045l.864.774.587.406.42-.062.259-.052c.473-.093.634-.166.634-.283l-.145-.235-.313-.29-.318-.287-.947-.325a1.844,1.844,0,0,0-1.04.354" transform="translate(9.69 16.07)" fill="#ffde26"/>
  </g>
  <g id="Group_80" data-name="Group 80" clip-path="url(#clip-path)">
    <path id="Path_77" data-name="Path 77" d="M10.976,13.327l.173-.028.261-.031.256.031.121.007a1.258,1.258,0,0,0,1.254-1.111l-.5-.306c-.769,0-1.263.444-1.562,1.439" transform="translate(15.087 16.34)" fill="#ffde26"/>
  </g>
  <g id="Group_81" data-name="Group 81" clip-path="url(#clip-path)">
    <path id="Path_78" data-name="Path 78" d="M6.6,5.443l.309.487c.126,0,.268-.313.565-.822a5.208,5.208,0,0,0,.8-1.731l-.147-.216-.028.009-.318.283a2.579,2.579,0,0,1-.976.522l-.446.484.043.233.14.406Z" transform="translate(8.734 4.345)" fill="#2f2f27"/>
  </g>
  <g id="Group_82" data-name="Group 82" clip-path="url(#clip-path)">
    <path id="Path_79" data-name="Path 79" d="M6.452,3.942l.482.259.209.28-.031.18-.021.61a.488.488,0,0,1-.568.511l-.278-.316-.629-.715a2.671,2.671,0,0,1-.432-1.3V3.377l.171-.214.318.15Z" transform="translate(7.126 4.348)" fill="#2f2f27"/>
  </g>
  <g id="Group_83" data-name="Group 83" clip-path="url(#clip-path)">
    <path id="Path_80" data-name="Path 80" d="M7.158,4.965H7l-.33-.028-.347-.2-.411-.114-.43.359a4.026,4.026,0,0,0,.38,1.282l.373.919c.332.81.651,1.154,1.071,1.154.38,0,.43-.37.681-1.007.579-1.448.893-1.66.893-2.173l-.387-.446-.275-.064-.456.294Z" transform="translate(7.538 6.348)" fill="#2f2f27"/>
  </g>
  <g id="Group_84" data-name="Group 84" clip-path="url(#clip-path)">
    <path id="Path_81" data-name="Path 81" d="M6.97,5.071l-.463.085H6.139l-.152.088-.05.14.138.689.114.608.439.461L7.11,6.6l.062-.634L7.229,5.3l-.085-.178L7,5.064Z" transform="translate(8.161 6.961)" fill="#ffde26"/>
  </g>
  <g id="Group_85" data-name="Group 85" clip-path="url(#clip-path)">
    <path id="Path_82" data-name="Path 82" d="M49.43,17.324l.112.43.235.921c.359,1.641.665,2.078,1.465,2.078a.963.963,0,0,0,.952-.639l.173-.575.271-.209c.309,0,.477.344.5,1.047a13.828,13.828,0,0,0,.169,1.4,8.116,8.116,0,0,1,.119,1.334l-.173.822.055.349a5.443,5.443,0,0,1,.126,1.054,3.48,3.48,0,0,1-.354,2.085,3.54,3.54,0,0,1,.154,1.023,9.012,9.012,0,0,1-.095,1.014l-.119.864.033.518.112.344-.112.147-.577-.233-.629-.342-.662-.518a2.379,2.379,0,0,1-1.3.719,5.448,5.448,0,0,0-1.491.522l-.4.195c-.223,0-.378-.435-.378-1.066a4.753,4.753,0,0,1,.2-1.757,3.794,3.794,0,0,0-1.047-.259l-.427.059-.123.012-.131-.273a3.531,3.531,0,0,1,.463-1.32,2.6,2.6,0,0,1,1.408-1.268l1.033-.2c.62-.121.985-.446.985-.874s-.271-.686-.9-.909L47.88,23.4l-1.156-.549L46.1,22.47l-.321-.081-.408.494a.867.867,0,0,0,.836.886l.285-.057.271-.085.226.306a3.687,3.687,0,0,1-.665,1.824l-.344.43-.259.344A3.846,3.846,0,0,1,44.166,28.8l-.316.23-.233.4-.57.7-.722.658-.577.515-.294.492-.218.154c-.259,0-.494-.273-.641-.724l-.416-.437-.506.083-.4.059H38.268a4.473,4.473,0,0,0-1.612.294l-.292.088-.23-.442a5.3,5.3,0,0,1,1.617-3.187,1.247,1.247,0,0,0-.774-.983l-.525-.142-.078-.138c0-.185.2-.366.655-.579a3.053,3.053,0,0,1,1.515-.463,2.291,2.291,0,0,1,1.505.61c.781.6.995.717,1.372.717a1.245,1.245,0,0,0,1.2-1.154,2.677,2.677,0,0,0-.762-1.524,3.706,3.706,0,0,1-1.033-2.446,2.73,2.73,0,0,1,.605-1.665l.119-.309L41,19.3a3.01,3.01,0,0,0-1.2.351c-.864.4-1.387.765-1.387.99l.145.247.292.2.062.119-.123.226c-.05.064-.252.313-.575.75A6.59,6.59,0,0,1,37,23.453l-.294.287-.226.43a4.926,4.926,0,0,1-1.242,1.3l-.4.311-.259.406a8.691,8.691,0,0,1-1.061,1.5l-.774.8a5.712,5.712,0,0,0-.836,1.779c-.24.7-.389,1.012-.5,1.012l-.218-.176c-.556-.639-1.059-1.038-1.308-1.038l-.332.145-.781.292-1.033.2a2.2,2.2,0,0,0-1.61.864l-.233.2-.171-.354.024-.249c.009-.026.062-.29.147-.774a6.24,6.24,0,0,1,.577-1.871l.522-.893.14-.465c0-.665-.617-1.2-1.558-1.351l-.285-.209.575-.648A3.3,3.3,0,0,1,27.63,24.2a3.8,3.8,0,0,1,1.313.34l.634.261.641.147c.667,0,1.323-.613,2.118-1.985a2.987,2.987,0,0,0,.522-1.484c0-.727-.337-1.166-.909-1.166a1.729,1.729,0,0,0-1.223.544l-.473.921.012.292.017.152-.252.335c-.216,0-.473-.211-.966-.8l-.81-.955a3.276,3.276,0,0,1-1.095-2.474,4.192,4.192,0,0,1-1.218-2.657l.038-.589a2.544,2.544,0,0,1-.838-1.99l.176-.774a3.151,3.151,0,0,1-.546-1.121l-.142-.608-.456-1.069-.294-.532c0-.3.292-.492,1.014-.667l.228-.059-.055-.639.081-.689.2-1.066.119-.94a2.781,2.781,0,0,0-.176-.9L25,3.372l-.171-.38.226-.173.29.09a11.219,11.219,0,0,1,2.79,2.218,4.234,4.234,0,0,1,1.009,2.937,2.448,2.448,0,0,1,1.209,2.182,3.086,3.086,0,0,1-.572,1.7c-.359.539-.544.836-.577.9l-.264.971a3.326,3.326,0,0,0,.551,1.7c.427.757.814,1.095,1.27,1.095.755,0,1.437-1.308,1.437-2.74l0-.283V12.8l.095-.684.045-.831.059-.7.024-.387c0-.28-.062-.363-.938-1.311a4.262,4.262,0,0,1-1.444-2.75A1.455,1.455,0,0,1,31.5,4.725l.613.112V4.492l.024-.606.173-.746c.138-.6.2-.705.411-.705l.138.043.518.461.636.4.166.173.375-.8.406-.549.283-.423.176-.266.242-.214.221.418.259.373.373.316a2.077,2.077,0,0,1,.627,1.183l.579-.525.465-.252.3-.147.128.173.23.432c.368.6.4.681.4,1.085l-.007.237v.344a1.574,1.574,0,0,1,1.3,1.8,3.939,3.939,0,0,1-1.1,2.47c-.5.584-.572.769-.572,1.211,0,2.035,1.524,3.265,4.113,3.3l1.895.028a9.4,9.4,0,0,1,3.139.518,7.739,7.739,0,0,0,2.17.549l.534-.359c0-.413-.7-.743-3.016-1.4-4.744-1.339-6.763-3.258-6.763-6.4a4.418,4.418,0,0,1,4.647-4.307,10.02,10.02,0,0,1,2.859.489l1.18.432.615.119c.4,0,.56-.256.622-1.009l.354-.489c.3,0,.886.47,1.315,1.061a3.834,3.834,0,0,1,.743,1.928,1.637,1.637,0,0,1-1,1.47,2.81,2.81,0,0,1-2.505,1.432A9.608,9.608,0,0,1,45.8,6.162a2.585,2.585,0,0,0-1.375-.515c-.52,0-.85.285-.85.741,0,.423.306.681,1.156.983,1.372.484,1.66.639,2.047,1.126A5.736,5.736,0,0,1,49.8,9.7c2.629.843,4.089,2.465,4.089,4.54a3.052,3.052,0,0,1-3.068,3.253,5.35,5.35,0,0,1-1.394-.169" transform="translate(32.821 1.726)" fill="#2b2c2c"/>
  </g>
  <g id="Group_86" data-name="Group 86" clip-path="url(#clip-path)">
    <path id="Path_83" data-name="Path 83" d="M50.694,29.2l-.09-.53.033-.392a8.115,8.115,0,0,0,.095-1.118l-.211-.577-.344-.461-.313-.784.154-.223.128.028.264.142.285.1c.176,0,.261-.271.261-.81a1.561,1.561,0,0,0-.577-1.448l-.4-.311-.114-.24.207-.226.34.052.321.093.114.026.145-.242-.01-.1-.078-.6c-.1-.632-.2-.867-.382-.867l-.055.007-.748.14-.126.009a2.626,2.626,0,0,1-2.227-1.793l-.549-1.869a3.866,3.866,0,0,0-1.384-1.76l-.6-.309-.515-.062-.164-.14.313-.178a8.045,8.045,0,0,1,2.548.492,6.185,6.185,0,0,0,1.926.42c1.439,0,2.308-.75,2.308-1.992a3.9,3.9,0,0,0-.551-1.914A4.591,4.591,0,0,0,49.345,10.5l-.233-.093-.14.147.026.37v.038l-.185.252-.508-.575a2.72,2.72,0,0,0-2.261-1.8l-.3.185.152.382.256.515.071.249-.128.083-.487-.271-.432-.463L44.8,8.948a2.712,2.712,0,0,0-1.149-1.007l-.719-.373-.37-.119-.131.131.128.332.264.57-.14.178c-.2,0-.565-.363-1.076-1.064a2.79,2.79,0,0,1-.549-1.622A2.125,2.125,0,0,1,43.2,3.822a4.453,4.453,0,0,1,2.149.722l1.38.836A3.539,3.539,0,0,0,48.3,5.9a2.684,2.684,0,0,0,.814-.147l.375-.14.1-.171-.245-.173a8.337,8.337,0,0,1-2.854-1.126,6.152,6.152,0,0,0-.947-.544l-.392-.306.121-.071.169.033,1.251.456,1.213.432a7.514,7.514,0,0,0,1.93.4.882.882,0,0,0,.928-.921l-.183-.8-.5-.636-.178.306.012.159.04.366-.541.641-.473-.093-1.871-.6A9.27,9.27,0,0,0,44.017,2.3a3.7,3.7,0,0,0-3.97,3.562c0,2.289,1.579,3.728,5.616,5.127,3.913,1.361,4.428,1.669,4.428,2.7a1.171,1.171,0,0,1-1.254,1.071l-.674-.059c-.169-.028-.819-.19-1.954-.461a14.227,14.227,0,0,0-3.578-.4c-2.852,0-4.227.435-5.718,1.814l-.867.38-.195-.009L35.395,16l-.81.518-.463.776-.328.171c-.3,0-.456-.195-.738-.888l-.57-.869-.608-.518-.142-.211.142-.275.256-.4.147-.351.026-.259.2-.14c.19,0,.226.128.233.836l.23.774.316.689.261.15c.3,0,.672-.7.772-1.441.085-.61.145-.81.275-.81s.173.074.413.577l.344.435.349.2h.028c.237,0,.323-.147.37-.7l.033-.285-.062-.4-.036-.278.171-.3.216.119.287.287.579.283.4-.28-.285-.634-.2-.378c-.264-.484-.38-.606-.6-.606l-.3.028-.375.145-.223.066-.09-.114a2.625,2.625,0,0,1,.484-1.178A6.4,6.4,0,0,0,36.6,8.49l.147-1.353c.085-.831.176-1.126.347-1.126l.116.062.085.43v.344l.093.762.482-.385.285-.575.145-.757c0-.667-.278-.952-1.183-1.2L36.943,4.6l-.031-.259V3.855l-.057-.344-.112-.29L36.6,2.91l-.23.14a3.024,3.024,0,0,0-.924.719l-.456.408-.147-.121.119-.492.012-.085a2.143,2.143,0,0,0-.99-1.7l-.2.235-.2.283-.344.406-.318.852v.093l0,.1-.14.309-.064-.028-.226-.29L32.2,3.4l-.52-.318-.259-.2a2.412,2.412,0,0,0-.29,1.444v.24l-.223.418-.347-.14-.427-.121a.765.765,0,0,0-.724.838,2.5,2.5,0,0,0,.463,1.465l.653.674.093-.617-.093-.489-.014-.218.173-.3c.161,0,.261.183.366.665L31.275,7.8,31.5,9.153l.349,1.145a6.877,6.877,0,0,0,.487,1.012l.359.553L32.571,12l-.264-.085-.344-.116-.207-.036c-.48,0-.579.387-.579,2.3a11.61,11.61,0,0,0,.558,3.552l.6,1.52.147.717c0,2.106-2.847,5.466-5.844,6.907-1.168.56-1.513,1.145-1.612,2.733a5.534,5.534,0,0,1,1.009-.4c.848-.242,1.031-.356,1.152-.753l.114-.375c.047-.159.157-.237.746-.546l.461-.373.344-.37.123.154-.007.04-.318.822-.033.2a1.574,1.574,0,0,0,.957,1.42l.083-.342a3.234,3.234,0,0,1,.287-.864l.551-.8c.195-.292.233-.482.233-1.225l-.033-.9-.014-.228.195-.233.195.09.09.541.273.2c.28,0,.639-.354,1.019-1.007l.207-.686-.095-.9-.007-.173.216-.226.135.05.207.667.38.375c.439,0,.9-.912.947-1.874.021-.606.1-.817.283-.817l.145.074.116.37.2.233.4-.349.261-.373.083-.306-.259-.356-.318-.6a3.717,3.717,0,0,1,.7-1.757c.465-.81.53-.9.641-.9l.195.247-.064.249-.112.344.223.207.522-.173.779-.321c.532-.185.864-.306.976-.342l.589-.09.5.062.665.114.465-.456-.18-.494-.256-.4-.176-.256.036-.121.159-.114c.223,0,.672.465,1.071,1.128,2.251,3.681,3.35,4.844,5.006,5.352,1.731.518,2.137.886,2.137,1.916a3.769,3.769,0,0,1-.9,2.049c-1.147,1.6-1.553,2.531-1.553,3.59l0,.237.311-.14.463-.2.715-.145.408-.606,0-.055-.05-.634-.007-.1.387-.651.223.173.458.978a1.64,1.64,0,0,0,1,.864" transform="translate(34.404 2.449)" fill="#ffde26"/>
  </g>
  <g id="Group_87" data-name="Group 87" clip-path="url(#clip-path)">
    <path id="Path_84" data-name="Path 84" d="M25.926,5.668l-.028.463-.009.278c0,.468.074.672.249.672l.62-.753.152-.774-.152-.549-.423-.461c-.247,0-.359.321-.408,1.123" transform="translate(35.584 6.247)" fill="#ffde26"/>
  </g>
  <g id="Group_88" data-name="Group 88" clip-path="url(#clip-path)">
    <path id="Path_85" data-name="Path 85" d="M26.216,2.941l.408.4a4.49,4.49,0,0,1,.985,2.949l-.014.48L27.511,8.12l-.028,1.128c0,3.766,1.095,6.328,2.7,6.328a1.706,1.706,0,0,0,1.24-.926l.233-.207.14.24.062.634.05.541.093.606.081.563c0,.292-.055.328-.75.418l-.8.313a2.933,2.933,0,0,0-.748.575L29.472,19l-.185.142c-.169,0-.392-.256-.71-.807a2.736,2.736,0,0,1-.423-.933l.249-.131.062,0,.344.026.259-.026.233-.026.171-.218-.119-.161-1.294-.544a2.334,2.334,0,0,1-.95-.95,2.983,2.983,0,0,1-.522-1.254l.223-.335.214.064.337.116.15-.059.093-.138-.23-.3a3.489,3.489,0,0,1-1.731-2.455l.159-.321.214.014.408.059.259-.221-.259-.268c-.719-.356-.9-.565-1.353-1.584A6.534,6.534,0,0,0,24.229,7.2l.9-.233c.4,0,.641.252.917.95.176.442.37.738.48.738l.076-.332-.121-.862-.085-.636-.062-.4-.316-.173L25.528,5.3l.057-.52.176-.662a5.6,5.6,0,0,0,.2-1.218V2.656Z" transform="translate(33.303 3.651)" fill="#ffde26"/>
  </g>
  <g id="Group_89" data-name="Group 89" clip-path="url(#clip-path)">
    <path id="Path_86" data-name="Path 86" d="M28.652,11.927a4.17,4.17,0,0,1-1.375-.43,2.62,2.62,0,0,0-1.083-.287,1.782,1.782,0,0,0-1.225.487l.261.2.575.406.551.43.484.176c.563,0,1.038-.259,1.812-.983" transform="translate(34.321 15.408)" fill="#ffde26"/>
  </g>
  <g id="Group_90" data-name="Group 90" clip-path="url(#clip-path)">
    <path id="Path_87" data-name="Path 87" d="M33.55,20.577l.577-.746c.8-.693,1.178-1.206,1.178-1.615v-.632l.252-.489.18.085.14.344.247.128c.207,0,.354-.147.708-.731l.209-.57-.069-.323-.2-.458-.114-.454.252-.3.214.085.226.287.152.1.366-.247.233-.456.085-.261-.233-.254-.4-.176a2.052,2.052,0,0,1-.864-1.783l.085-.373.176-.487.085-.48L36.746,9.9,36.4,9.3c-.169-.427-.264-.568-.411-.568l-.363.138-.29.171-.406.465-.4.2a1.383,1.383,0,0,0-.47,1.078c0,.62.133.955,1.073,2.636a3.641,3.641,0,0,1,.584,1.634c0,1.178-1.192,2.142-3.149,2.538-2.334.482-2.838.862-3.1,2.365a2.118,2.118,0,0,1,1.277-.245l.418.007h.066l.684-.375.95-.8.456-.2.375-.2.119-.036.157.126-.275.487-.437.947Z" transform="translate(40.502 11.997)" fill="#ffde26"/>
  </g>
  <g id="Group_91" data-name="Group 91" clip-path="url(#clip-path)">
    <path id="Path_88" data-name="Path 88" d="M29.659,12.041l.862.774.589.406.418-.062.259-.052c.487-.1.641-.166.641-.294l-.126-.223-.344-.29-.311-.287-.909-.318a1.961,1.961,0,0,0-1.078.347" transform="translate(40.767 16.074)" fill="#ffde26"/>
  </g>
  <g id="Group_92" data-name="Group 92" clip-path="url(#clip-path)">
    <path id="Path_89" data-name="Path 89" d="M33.583,13.327l.173-.028.285-.031.233.031.157.007L35,13.18l.546-.662.114-.323-.494-.306c-.786,0-1.273.442-1.579,1.439" transform="translate(46.161 16.34)" fill="#ffde26"/>
  </g>
  <g id="Group_93" data-name="Group 93" clip-path="url(#clip-path)">
    <path id="Path_90" data-name="Path 90" d="M29.206,5.443l.316.487c.123,0,.313-.413.615-.917a4.538,4.538,0,0,0,.743-1.636l-.147-.216L30.7,3.17l-.318.29-.947.515-.477.484L29,4.693l.247.5Z" transform="translate(39.808 4.345)" fill="#2f2f27"/>
  </g>
  <g id="Group_94" data-name="Group 94" clip-path="url(#clip-path)">
    <path id="Path_91" data-name="Path 91" d="M28.286,3.306l-.323-.14-.171.2,0,.081.112.489a2.374,2.374,0,0,0,.38.8l.439.729.62.4h.021l.147-.114.1-.57.135-.525.017-.123L29.549,4.2l-.489-.261Z" transform="translate(38.201 4.352)" fill="#2f2f27"/>
  </g>
  <g id="Group_95" data-name="Group 95" clip-path="url(#clip-path)">
    <path id="Path_92" data-name="Path 92" d="M29.763,4.969h-.15l-.335-.028-.351-.2-.4-.114-.425.437a3.963,3.963,0,0,0,.37,1.2l.373.919c.316.807.648,1.154,1.078,1.154.373,0,.674-.309.909-.921l.318-1.3.53-.852-.686-.651-.161.031-.437.294Z" transform="translate(38.621 6.343)" fill="#2f2f27"/>
  </g>
  <g id="Group_96" data-name="Group 96" clip-path="url(#clip-path)">
    <path id="Path_93" data-name="Path 93" d="M29.583,5.071l-.456.085h-.351l-.15.088-.083.14.145.689.114.608.366.461.558-.546.059-.634.057-.658-.085-.178L29.6,5.064Z" transform="translate(39.233 6.961)" fill="#ffde26"/>
  </g>
  <g id="Group_97" data-name="Group 97" clip-path="url(#clip-path)">
    <path id="Path_94" data-name="Path 94" d="M26.98,40.355a4.252,4.252,0,0,1,.375,1.351l.059,1.209c.043,1.213.446,1.814,1.2,1.814l.634-.2.321-.313.123-.038.309.37-.033.468a6.615,6.615,0,0,0,.121,1.327l.083,1.156a3.182,3.182,0,0,1-.256,1.4,5.579,5.579,0,0,1,.316,1.741,2.306,2.306,0,0,1-.351,1.394,3.834,3.834,0,0,1,.145.983,7.214,7.214,0,0,1-.109,1.092,5.66,5.66,0,0,0-.119,1.377v.074l-.169.271-.354-.228-.418-.306c-.2,0-.261.1-.553.969a4.134,4.134,0,0,1-.7,1.064l-.52.833-.169.6-.176.147-.036,0c-.477,0-1.014-1.019-1.574-2.937-.157-.541-.354-.784-.648-.784l-.5.328-.169.4-.157.119c-.226,0-.579-.425-.8-.95a3.652,3.652,0,0,1-.285-1.327c0-.9.67-1.572,2.676-2.707a2.22,2.22,0,0,0,1.209-2.237,2.186,2.186,0,0,0-1.038-1.99,2.319,2.319,0,0,0-1.28-.636l-.489.411.532.568c.437.161.636.311.636.515a2.861,2.861,0,0,1-.492,1.04,2.709,2.709,0,0,1-.921.952,2.624,2.624,0,0,1-1.377,1.869,3.191,3.191,0,0,1-.579,1.061l-.608.784-.43.89c-.064.437-.107.515-.275.515-.226,0-.7-.4-1.164-1l-.373-.957a1.472,1.472,0,0,1-.978.347l-.779.2a2.212,2.212,0,0,1-.662.294l-.173-.266-.031-.636a4.5,4.5,0,0,1,.864-2.562,2.828,2.828,0,0,0-1.41-.75l-.214-.1.273-.537.515-.57a2.858,2.858,0,0,1,1.672-.608,5.2,5.2,0,0,1,1.641.411l.689.142.489-.568a7.649,7.649,0,0,0-.833-2.657,5.261,5.261,0,0,1-.57-1.9,2.745,2.745,0,0,1,1.059-2.327l-.634-.176-.89.29-.66.615.23.247.254.425a3.3,3.3,0,0,1-1.406,2.284A2.512,2.512,0,0,1,15.5,46.483a2.816,2.816,0,0,1-.632,1.332A5,5,0,0,0,13.8,49.8l-.235.439-.66-.5-.456-.551a2.644,2.644,0,0,1-.313-.917l-.413.066-.425,0-.287-.009a3.6,3.6,0,0,0-1.646.351l-.245.112c-.185,0-.335-.389-.335-.874a4.591,4.591,0,0,1,.959-2.833L9.2,44.56l-.228-.2-.313-.173-.171-.188c0-.15.418-.553.921-.874A2.616,2.616,0,0,1,10.8,42.6c.477,0,.724.128,1.311.639l.888.522L13.4,43.5l.15-.432A3.1,3.1,0,0,0,12.17,41.11a3.2,3.2,0,0,0-1.719-.549,1.941,1.941,0,0,0-1.8,1.04l-.311.655-.28.242c-.183,0-.283-.083-.933-.843l-.748-.86-.465-.743-.14-.38-.285-.233a3.76,3.76,0,0,1-1.24-2.386l-.085-.375a4.766,4.766,0,0,1-1.126-2.857l.066-.392c-.416-.418-.461-.515-.781-1.615a3.941,3.941,0,0,0-.665-1.5L1.549,30.1l.662-.351.582-.069.575.04-.043-.786a5.674,5.674,0,0,1,.157-1.313l.085-.6-.059-.5-.088-.427-.059-.249.171-.14.38.126a7.31,7.31,0,0,1,1.237.748A4.4,4.4,0,0,1,6.92,29.289l-.014.221-.069.425.207.465.316.435.465,1.13c0,.266-.059.387-.522,1.057a2.208,2.208,0,0,0-.494,1.287,3.852,3.852,0,0,0,.579,1.819c.335.6.734.928,1.1.928.643,0,.924-.568,1.023-2.109.05-.8.133-1.52.233-2.182l.031-.394-.287-.56-.864-1c-.822-.959-1.073-1.453-1.073-2.142a1.253,1.253,0,0,1,1.275-1.346l.344.038v-.226l.14-.781c.18-.622.408-1.1.534-1.1l.278.147.518.2.57.287a2.637,2.637,0,0,1,.463-1.007c.37-.48.793-.862.94-.862l.465.344.549.577.323.546.112.256.344-.2.463-.259.544-.259.3-.15c.1,0,.154.176.368,1.128a6.772,6.772,0,0,1,.2,1.27,1.432,1.432,0,0,1,1.349,1.636,4.331,4.331,0,0,1-1.439,2.9l-.328.693c0,2.545.879,3.343,4.068,3.685a20.309,20.309,0,0,1,4.889,1.033,9.756,9.756,0,0,0,2.408.53c.541,0,.848-.2.848-.549,0-.534-.387-.7-2.671-1.19-5.336-1.123-7.428-2.94-7.428-6.459a4.276,4.276,0,0,1,4.379-4.388A6.983,6.983,0,0,1,26,26.407c1.446.841,1.75.981,2.082.981.385,0,.541-.252.541-.869l.37-.6.888.6a2.069,2.069,0,0,1,.665,1.636,1.971,1.971,0,0,1-1.641,2.021l-.254.287a2.371,2.371,0,0,1-2.056.893,4.787,4.787,0,0,1-2.557-.838l-1.375-.976a2.574,2.574,0,0,0-1.451-.6.863.863,0,0,0-.938.943,1.3,1.3,0,0,0,1.012,1.24l1.292.4a6.689,6.689,0,0,1,1.24.518l.641-.057a5.387,5.387,0,0,1,2.429.608l.525.233.719.2a4.418,4.418,0,0,1,2.963,4.07,3.126,3.126,0,0,1-3.45,3.293Z" transform="translate(2.129 33.013)" fill="#2b2c2c"/>
  </g>
  <g id="Group_98" data-name="Group 98" clip-path="url(#clip-path)">
    <path id="Path_95" data-name="Path 95" d="M22.59,56.968l.173-.347.4-.435a2.133,2.133,0,0,0,.527-1.484l-.157-.933-.121-.508.28-.351.221.142.427.484.689.435.031-.4.028-.473a3.385,3.385,0,0,0-.632-1.947l-.337-.57.161-.209.116.062.5.292L25.164,50a2.676,2.676,0,0,0-.591-1.61l-.344-.425-.059-.169.252-.207.356.145.221.083c.223,0,.309-.316.309-1.171l-.009-.351-.031-.522c-.036-.606-.088-.717-.349-.717h-.228c-1.4,0-2.059-.888-2.417-3.282-.261-1.731-.907-2.954-1.7-3.22-.473-.157-.639-.259-.639-.389L20.206,38l.541.15a8.152,8.152,0,0,0,2.959.689,2.367,2.367,0,0,0,2.465-2.3,3.94,3.94,0,0,0-1.311-2.795l-.717-.43-.055,0-.15.045.064.418.112.294.028.119L24,34.3l-.209-.116-.518-.779a2.73,2.73,0,0,0-1.971-1.13l-.389.275.173.337.261.456-.028.116-.114.116-.031,0c-.135,0-.2-.064-.831-.776a3.692,3.692,0,0,0-2.123-1.154l-.209.09-.059.112.2.318.325.442-.161.109c-.169,0-.537-.237-1.225-.779a3.259,3.259,0,0,1-1.553-2.562,1.887,1.887,0,0,1,1.809-1.987,3.553,3.553,0,0,1,1.928.7l1.413,1.059a3.706,3.706,0,0,0,2.263.748l.5-.112.2-.192-.259-.131a3.367,3.367,0,0,1-1.209-.513l-1.437-1.095a9.751,9.751,0,0,0-1.121-.779c-.757-.4-.907-.489-.907-.579l.161-.083.252.062.753.318a8.236,8.236,0,0,1,1.206.717c1.539,1.026,2.32,1.361,3.227,1.361a1.425,1.425,0,0,0,1.5-1.441l-.119-.5-.147-.285L25.38,26.5l-.083.116-.088.605-.088.2-.2.283-.53.2c-.442,0-.94-.235-2.289-1.092a7.1,7.1,0,0,0-3.564-1.325,3.73,3.73,0,0,0-3.74,3.733c0,2.88,1.752,4.189,7.278,5.388,2.1.456,3.02,1.076,3.02,2,0,.86-.686,1.391-1.779,1.391l-.781-.052c-.188-.04-1.173-.306-2.963-.81a14.839,14.839,0,0,0-3.842-.534c-2.168,0-3.626.643-4.616,2.03L10.8,38.9l-.24-.114-.406-.318-1.028-.392-.613.247-.294.2c-.159,0-.456-.356-.679-.829a4.615,4.615,0,0,1-.492-1.961l.211-.484.221.23.233.833c.123.473.389.836.587.836l.411-.344.24-.4c.178-.525.223-.6.363-.6.169,0,.254.1.366.632l.192.492.344.515.3.152c.252,0,.484-.427.484-.893l0-.119-.04-.539.152-.268.2.138.492.4.413.15.275-.147.123-.223-.408-.527a3.606,3.606,0,0,1-.577-1.142l-.268-.382-.19.062-.378.145-.256.114-.1.017-.223-.192.577-.689.378-.774c.019-.482.1-.867.2-.867l.083-1a11.006,11.006,0,0,1,.43-1.987l.083-.171.185.454-.007.147-.019.29.171.556.4-.5.259-.665.112-.534a.861.861,0,0,0-.8-.966l-.207.038-.178.057-.306-.361.021-.413-.026-.577-.116-.6-.028-.29-.259.142-.321.259-.456.37-.378.318-.211.085c-.221,0-.245-.055-.245-.5v-.112c0-.361-.157-.646-.748-1.339l-.145-.171-.116.2-.316.52-.318.807-.055.515-.131.261-.273-.2a2.228,2.228,0,0,0-1.237-.836l-.055.2-.173.606-.031.546V27.4L5.8,27.65H5.788L5.617,27.5l-.349-.09c-.534,0-.879.287-.879.753,0,.342.121.6.651,1.4l.613.643.133-.413-.057-.344-.081-.442.138-.247c.259,0,.527.743.639,1.779l.112,1.069.347,1.147a2.914,2.914,0,0,0,.746,1.064l.446.492-.152.173-.584-.2-.24-.028c-.575,0-.767.328-.767,1.32a5.476,5.476,0,0,0,1.7,3.635l1.32,1.069a3.088,3.088,0,0,1,1.18,2.066c0,.845-.924,1.672-2.5,2.249l-.955.337c-.729.271-1.033.748-1.32,2.135l.791-.15.131,0,.425.009.67-.551v-.259l.259-.264.4-.2.318-.259.159-.062.159.173-.059.259-.152.993a2.409,2.409,0,0,0,.47,1.6l.083-.373.494-.776a3.857,3.857,0,0,0,.753-1.75l-.007-.126-.085-.66.14-.316.2-.083.294.287.2.254.427-.577.142-.606-.085-.37-.09-.328.121-.188.145-.055.169.055.259.173.233.09.4-.318.406-.826-.2-.245a2.066,2.066,0,0,1-.95-1.539l.083-.416.29-.776.233-.605.083-.036.157.223-.064.332-.128.544.3.321.48-.112a5.806,5.806,0,0,1,1.978-.582l1.045.373.268.121.166-.121.055-.142-.173-.373-.2-.408.161-.142c.449,0,1.154,1.422,1.828,3.688.527,1.786.679,1.968,2.386,2.937,1.441.814,1.992,1.624,1.992,2.935a16.488,16.488,0,0,1-1.1,5.115,4.8,4.8,0,0,0-.34,1.534,5.042,5.042,0,0,0,.285,1.372l.2.665Z" transform="translate(6.033 33.494)" fill="#ffde26"/>
  </g>
  <g id="Group_99" data-name="Group 99" clip-path="url(#clip-path)">
    <path id="Path_96" data-name="Path 96" d="M11.046,43.429a4.687,4.687,0,0,1,.549-.983,2.805,2.805,0,0,0,.629-1.408v-.461c0-.432.076-.632.247-.632l.15.088.147.233.207.114.323-.245.337-1.023L13.6,38.79l-.026-.318.237-.252.252.259.218.23.24-.173.23-.344.176-.261.038-.145-.214-.256a2.348,2.348,0,0,1-.8-2.044,9.434,9.434,0,0,0-.14-1.581c-.014-.055-.19-.468-.522-1.235l-.347-1.04-.361-.342a1.441,1.441,0,0,0-1.372,1.551,7.183,7.183,0,0,0,.617,2.334,6.823,6.823,0,0,1,.7,2.386c0,1.054-.423,1.52-1.883,2.04a3.591,3.591,0,0,0-2.707,2.966l.294-.119.4-.142.461-.116.779-.544.119-.4.169-.207.261-.114.259-.114.055.114-.116.375-.057.667a2.022,2.022,0,0,0,.492,1.467" transform="translate(10.904 43.003)" fill="#ffde26"/>
  </g>
  <g id="Group_100" data-name="Group 100" clip-path="url(#clip-path)">
    <path id="Path_97" data-name="Path 97" d="M3.684,25.191l.062.325-.119.743-.052.582a4.639,4.639,0,0,0,.256,1.52l.18.655L4,29.137l-.109.207L3.6,29.161l-1.061-.435-.492.062.14.311.437,1.069.606.921.625.435.176.169.09.188L4,31.987l-.575.021-.159.119a4.44,4.44,0,0,0,.245.86l.287.838.5.458.511.375.242.325-.1.164-.283.028-.152.235A2.546,2.546,0,0,0,5.1,36.529c.446.6.76.807,1.263.807h.432l.332.261-.275.256-.518.347.142.316.233.311.546.444.418-.264.933-.634c.995-.252,1.211-.356,1.211-.594l-.121-.33a2.668,2.668,0,0,1-.427-1.406l-.226-.61-.24.23-1,.61c-.995,0-2.2-1.56-2.79-3.631A5.731,5.731,0,0,1,4.8,31.092a8.172,8.172,0,0,1,.211-1.757c.195-.841.3-1.313.316-1.41l.038-.387a3.433,3.433,0,0,0-1.681-2.346" transform="translate(2.812 34.626)" fill="#ffde26"/>
  </g>
  <g id="Group_101" data-name="Group 101" clip-path="url(#clip-path)">
    <path id="Path_98" data-name="Path 98" d="M3.845,26.876a5.117,5.117,0,0,0-.408,1.878l.252.6.157-.14.316-.577.2-.354.2-.425Z" transform="translate(4.724 36.942)" fill="#ffde26"/>
  </g>
  <g id="Group_102" data-name="Group 102" clip-path="url(#clip-path)">
    <path id="Path_99" data-name="Path 99" d="M4.942,32.635l.142.142.228.233c.563.584.646.639.919.639L7.3,33.354l.2-.2-.287-.318L6.9,32.552l-.765-.423a2.123,2.123,0,0,0-1.19.506" transform="translate(6.793 44.162)" fill="#ffde26"/>
  </g>
  <g id="Group_103" data-name="Group 103" clip-path="url(#clip-path)">
    <path id="Path_100" data-name="Path 100" d="M7.753,34.937l.577.287.458.29.461.057.347-.057.6-.23.577-.207.261-.216-.323-.152-.427-.145a2.7,2.7,0,0,0-1.069-.325,1.916,1.916,0,0,0-1.465.7" transform="translate(10.657 47.062)" fill="#ffde26"/>
  </g>
  <g id="Group_104" data-name="Group 104" clip-path="url(#clip-path)">
    <path id="Path_101" data-name="Path 101" d="M10.909,38.707c.195-.458.328-.541.983-.57.729-.047,1.437-1.372,1.437-2.261l-.069-.171-.192.1-.43.254-.838.375a1.953,1.953,0,0,0-1.047,1.574Z" transform="translate(14.779 49.079)" fill="#ffde26"/>
  </g>
  <g id="Group_105" data-name="Group 105" clip-path="url(#clip-path)">
    <path id="Path_102" data-name="Path 102" d="M5.92,27.228l.285.4.625.451.18-.245.112-.442.033-.477c0-.38-.166-.525-.95-.729l-.4-.145-.344-.176-.116.078.028.131.142.432Z" transform="translate(7.341 35.555)" fill="#2f2f27"/>
  </g>
  <g id="Group_106" data-name="Group 106" clip-path="url(#clip-path)">
    <path id="Path_103" data-name="Path 103" d="M8.072,25.875l-.458.318-.575.173-.546.4.055.565.316.717.038,0,.138-.154.373-.67.632-.689.2-.484.014-.045-.128-.14Z" transform="translate(8.925 35.554)" fill="#2f2f27"/>
  </g>
  <g id="Group_107" data-name="Group 107" clip-path="url(#clip-path)">
    <path id="Path_104" data-name="Path 104" d="M7.888,27.485l.456-.23.223-.064.392.47a3.788,3.788,0,0,1-.615,1.406c-.373.689-.662,1.152-.957,1.152-.411,0-1-.658-1.565-1.755l-.221-.8.461-.556.33.093.259.176.734.223Z" transform="translate(7.699 37.257)" fill="#2f2f27"/>
  </g>
  <g id="Group_108" data-name="Group 108" clip-path="url(#clip-path)">
    <path id="Path_105" data-name="Path 105" d="M6.658,27.592l-.321-.059-.047,0-.273.313.527,1.244.214.121c.185,0,.318-.354.416-.928l.085-.432.012-.078-.2-.242-.066,0" transform="translate(8.271 37.838)" fill="#ffde26"/>
  </g>
  <g id="Group_109" data-name="Group 109" clip-path="url(#clip-path)">
    <path id="Path_106" data-name="Path 106" d="M46.251,40.015a2.5,2.5,0,0,0,1.783,1.095l.774-.116.382-.057.2.183-.15.544-.169.511-.114.608-.285.518-.408.37-.114.121v.382a1.555,1.555,0,0,1-.774,1.486l-.2.142-.059.233a7.427,7.427,0,0,1-.285,1l-.549.8a5.137,5.137,0,0,0-.717,1.187l-.4.366-.615-.772L44.4,48.8l-.34.23-.553.366-.456.347-.316.323-.164.083c-.147,0-.3-.247-.437-.719l-.287-.95-.121-.926a2.037,2.037,0,0,1,.2-1.031,3.429,3.429,0,0,0-1.033.2l-.252.055L40.5,46.6l.109-.43.38-.978a2.438,2.438,0,0,1,1.966-1.448l.738.154.437.088.6-.544-.23-.38c-.05-.024-.394-.123-1.035-.316A2.377,2.377,0,0,1,42.2,41.8c-.4-.456-.546-.587-.693-.587l-.171.2.028.382.009.18a5.281,5.281,0,0,1-.812,2.61l-.807,1.465a3.511,3.511,0,0,0-.546,1.757c0,.577.247,1.092.572,1.18l.437.112.14.093.085.164-.147.266-.515.655a2.469,2.469,0,0,1-1.408,1.069,2.788,2.788,0,0,1-1.926,1.665l-.121.2a2.329,2.329,0,0,1-1.584,1.152h-.112a2.234,2.234,0,0,1-1.009,1.465l-.655.489-.145.259-.413.4c-.3,0-.558-.283-.741-.833l-.254.169-.549.373a6.31,6.31,0,0,1-1.009.29,2.692,2.692,0,0,0-1.47.717l-.256.432-.116.055-.368-.454a6.986,6.986,0,0,1-.268-1.615,3.517,3.517,0,0,1,1.387-2.733v-.247a2.7,2.7,0,0,1,2.994-2.659l.287,0,.976.062.093,0a2.373,2.373,0,0,0,1.553-.643c.7-.575.9-.924.9-1.572a4.4,4.4,0,0,0-.278-1.159,4.765,4.765,0,0,1-.214-1.349,4.7,4.7,0,0,1,2.056-3.479l.534-.653-.083-.121-.368.223-.689.43-.463.235-.508.2-.242.252.066.261.055.214-.145.337-.4.66a2.445,2.445,0,0,1-1.18,1.149c-.323.945-.788,1.425-1.465,1.524-.541,1.1-1.019,1.472-1.983,1.581a3.5,3.5,0,0,1-.867,1.33l-.37.456-.354.432-.653-.432-.261-.347-.256-.456-.283-.218-.183.014L26.4,49.5l-1.152.662-.344.518-.135.085c-.264,0-.418-.568-.418-1.513a2.918,2.918,0,0,1,.413-1.769l.8-1.121.173-.437-.145-.373-.456-.347-.605-.078-.15-.093.09-.195.717-.634a3.161,3.161,0,0,1,1.665-.613,2.859,2.859,0,0,1,1.505.494l.831.549.406.121c.385,0,.674-.233.95-.755a2.807,2.807,0,0,0,.375-1.332,1.786,1.786,0,0,0-1.85-1.859,2.4,2.4,0,0,0-1.489.575l-.287.313-.233.518-.207.2c-.147,0-.468-.418-.746-.95l-.4-1.035A4.706,4.706,0,0,1,25.467,39l.045-.781a2.843,2.843,0,0,1-.527-1.779,3.206,3.206,0,0,1,.2-1.009,2.184,2.184,0,0,1-.313-1.282l.028-.363.088-.4.057-.347c-.278-.366-.359-.608-.634-1.871a3.846,3.846,0,0,0-.37-1.211l-.09-.169c0-.169.4-.321.862-.321l.408.033-.126-.587.211-1.142a2.289,2.289,0,0,0,.18-.705l-.131-.879-.223-.57-.076-.3.14-.078a4.859,4.859,0,0,1,2.491,1.408,3.081,3.081,0,0,1,1.118,2.621l-.05.629a2.565,2.565,0,0,1,1.123,1.869,1.508,1.508,0,0,1-.582,1.18,2.494,2.494,0,0,0-.947,2.17c0,1.527.456,2.348,1.306,2.348.736,0,1.306-.8,1.4-1.987l.083-1.09.147-1.038.085-.75c0-.387-.254-.879-1-1.75a3.186,3.186,0,0,1-1.08-2.2,1.441,1.441,0,0,1,1.441-1.529l.558.159a2.683,2.683,0,0,1,.318-1.3c.218-.553.461-.945.572-.945l.171.116.378.316.287.2.254.259a2.8,2.8,0,0,1,.9-1.465l.632-.518.209.145.34.456.492.551a1.519,1.519,0,0,1,.344.886l.287-.171.456-.256.351-.23.178-.09.14.209.166.655.375.748.147.741-.007.18.195-.009c.568,0,1.059.672,1.059,1.448a4.164,4.164,0,0,1-1.881,3.047l-.121.762c0,2.294.6,2.776,4.122,3.3a20.405,20.405,0,0,1,2.36.489c.112.036.867.283,2.27.748a5.694,5.694,0,0,0,1.7.373l.667-.347c0-.392-.577-.743-2.337-1.439l-2.507-.976c-2.545-.995-3.747-2.55-3.747-4.837a4.552,4.552,0,0,1,4.666-4.661,9.509,9.509,0,0,1,3.4.727,8.621,8.621,0,0,0,2.111.691c.351,0,.541-.245.594-.743.047-.437.161-.608.4-.608.351,0,.734.321,1.012.86a3.48,3.48,0,0,1,.373,1.5,1.647,1.647,0,0,1-1.41,1.755,2.8,2.8,0,0,1-2.318,1.185c-1.145,0-1.712-.223-3.666-1.441a2.473,2.473,0,0,0-1.513-.549,1.08,1.08,0,0,0-1.192,1c0,.532.42.874,1.38,1.128a1.514,1.514,0,0,1,.95.489l.48-.074a5.108,5.108,0,0,1,3.058,1.339,4.9,4.9,0,0,1,3.343,4.065,3.421,3.421,0,0,1-3.248,3.367,10.712,10.712,0,0,1-2.223-.347" transform="translate(32.923 32.925)" fill="#2b2c2c"/>
  </g>
  <g id="Group_110" data-name="Group 110" clip-path="url(#clip-path)">
    <path id="Path_107" data-name="Path 107" d="M44.462,47.41l.119-.316.116-.4.313-.492a2.309,2.309,0,0,0,.437-1.427l-.15-.56-.085-.261.059-.133.114-.085.019,0,.294.2.29.23.351-.546.05-.287-.254-.81-.09-.294.161-.18.387.249.218.112c.178,0,.306-.183.439-.636l.121-.446-.1-.133-.1.009-.335.031a2.43,2.43,0,0,1-1.619-.779l-.8-.978-.748-.95-.636-.43-.171-.235.273-.183a6.781,6.781,0,0,1,1.484.532,9.019,9.019,0,0,0,2.921.639,2.5,2.5,0,0,0,2.5-2.47A3.665,3.665,0,0,0,48.9,34.011l-.534-.351-.159.169.093.323.052.266-.138.2c-.176,0-.37-.3-.522-.814-.192-.644-.568-1.023-1.441-1.46l-.909-.332-.093.131.112.337.235.549v.028l-.159.176c-.188,0-.228-.05-.651-.691a3.264,3.264,0,0,0-1.3-.983L43,31.448h-.017l-.185.109.128.266.04.159-.138.159a3.15,3.15,0,0,1-1.13-.931,2.873,2.873,0,0,1-.743-1.722,2.229,2.229,0,0,1,2.225-2.08l.741.15,1,.515,1.187.774a4.667,4.667,0,0,0,2.168.786,2.986,2.986,0,0,0,.907-.183l.463-.285-.017-.024-.1-.057-.632-.052a5.466,5.466,0,0,1-1.783-.814l-1.323-.857-1.18-.492-.147-.15.133-.112.323.064,1.1.313a7.489,7.489,0,0,1,1.325.6,6.1,6.1,0,0,0,2.553.921,1.084,1.084,0,0,0,1.154-1.08l-.112-.822-.171-.37-.145-.112-.131.23.014.2.012.169c0,.53-.207.722-.793.722a8.333,8.333,0,0,1-2.583-.772,8.2,8.2,0,0,0-3.077-.75A4.031,4.031,0,0,0,40,29.708c0,1.743,1.154,3.073,3.517,4.041l2.446,1.009c2.018.831,2.764,1.427,2.764,2.218,0,.655-.61,1.073-1.562,1.073a6.433,6.433,0,0,1-1.864-.416A17.016,17.016,0,0,0,40.212,36.6a6.2,6.2,0,0,0-4.863,1.866l-.4.223-.408-.164-.632-.207-.691.382-.287.375-.256.173-.812-.784-.285-.748-.059-.786.028-.541.093-.565.078-.492.145-.114.214.444-.007.185-.009.131c0,.819.328,1.567.679,1.567.285,0,.53-.5.736-1.5l.221-.313c.114,0,.185.147.271.577l.427.917.332.233c.235,0,.385-.354.5-1.18l.252-.52.121.064.2.316.318.283.335.121.268-.121.2-.235-.173-.252a2.846,2.846,0,0,1-.52-.952l-.256-.658-.147-.2-.085-.026-.171.026-.6.169-.19.031-.133-.138.233-.321a4.21,4.21,0,0,0,1.323-2.963,2.958,2.958,0,0,1,.575-1.7l.185-.178.169.259-.095.4-.062.349.007.112.055.173.321-.119.342-.4.38-1.18-.233-.66-.439-.306-.2.019-.2.017-.28-.173.047-.221.036-.316-.173-.719-.147-.347-.085-.287-.2.145-.432.256-.344.321c-.406.494-.435.515-.6.515l-.161-.109.014-.121.083-.6a2.724,2.724,0,0,0-.8-1.676,2.581,2.581,0,0,0-.921,1.814v.347l-.138.2H32.9l-.2-.152-.347-.454-.463-.38-.226-.2-.119.23a3.024,3.024,0,0,0-.4,1.38l-.133.5-.185-.064c-.442-.247-.475-.261-.665-.261a.854.854,0,0,0-.869.919l.356.959c.259.47.66.893.826.893l.066-.176v-.057l-.031-.484L30.45,29l0-.05.128-.157q.4,0,.684,2.282A4.486,4.486,0,0,0,32.38,33.87l.233.306-.112.1-.38-.147-.309-.093-.667.7-.264,1.643-.2,2.3a6.2,6.2,0,0,0,.173,1.724,7.551,7.551,0,0,1,.2,1.363,3.7,3.7,0,0,1-2.852,3.612l-1.843.546a2.547,2.547,0,0,0-1.869,2.5,1.361,1.361,0,0,1,.838-.342l.544-.085.487-.145.318-.323.484-.541.458-.328.121.166-.2.475-.211.743a1.785,1.785,0,0,0,.473,1.13l.112-.347.437-.6a3.205,3.205,0,0,0,.689-1.292c.007-.449.047-.594.159-.594l.154.275.093.176.176.109.223-.109.461-.408.285-.518.15-.546,0-.373.09-.176.313.321.185.15h.017l.256-.123.575-1.076-.026-.532-.121-.435,0-.038.142-.166.47.61.256.285.525-.489.256-.373.088-.292-.088-.287-.237-.344-.052-.29a2.85,2.85,0,0,1,.43-1.344l.378-.724.159-.18.1.154-.026.313v.458l.249.15.3-.059.712-.256.665-.321a3.818,3.818,0,0,1,2.03-.75,3.44,3.44,0,0,1,1.363.406l.3.09.249-.147.085-.221-.121-.356-.171-.423.133-.131.216.152c.088.138.311.518.658,1.147A3.448,3.448,0,0,0,42.938,41.4l1.263.29c.394.078.5.235.5.727a2.52,2.52,0,0,1-1.149,2.149l-1.04.665a1.9,1.9,0,0,0-.689,1.451,7.906,7.906,0,0,0,.2,1.477l.2-.2.492-.287.43-.432.23-.632.228-.577.335-.463.157.446,0,.069v.112a2.191,2.191,0,0,0,.373,1.216" transform="translate(33.672 33.497)" fill="#ffde26"/>
  </g>
  <g id="Group_111" data-name="Group 111" clip-path="url(#clip-path)">
    <path id="Path_108" data-name="Path 108" d="M25.732,46.412c0-1.368.492-1.966,2.474-2.966,3.908-1.985,6.024-3.809,6.024-5.191a6.654,6.654,0,0,0-.349-1.548,4.838,4.838,0,0,1-.247-1.249,3.509,3.509,0,0,1,1.192-2.2l.546-.492.525-.912-.009-.133-.007-.166.413-.4.264-.026.2-.062.252.147.14.233.2.228.185.114.221-.081.347-.109.23.247a4.469,4.469,0,0,1-1.04,2.3c-1.107,1.5-1.463,2.306-1.463,3.255a3.113,3.113,0,0,0,.627,1.952l.121.211-.207.366-.166.23-.539.463-.271-.237-.112-.309-.166-.152L35,40.044l-.112.321v.489l-.2.575-.406.427-.185.15-.245-.233-.173-.572-.14-.147-.2.411a2.059,2.059,0,0,1-.344,1.2l-.4.368-.366.216-.18-.095-.2-.435-.123-.085c-.121,0-.2.226-.249.658-.1,1.04-.318,1.505-.893,1.9a1.618,1.618,0,0,0-.715.81,1.842,1.842,0,0,1-.347-1.142l.114-.551.185-.48-.1-.131-.145.116-.373.29a1.11,1.11,0,0,0-.712.978,1.471,1.471,0,0,1-1.327,1.292c-.969.2-1.033.223-1.384.549Z" transform="translate(35.369 42.704)" fill="#ffde26"/>
  </g>
  <g id="Group_112" data-name="Group 112" clip-path="url(#clip-path)">
    <path id="Path_109" data-name="Path 109" d="M25.7,25.034v.29l0,.432-.064.458-.112.651a2.331,2.331,0,0,0,.406,1.394l.294.964-.126.18-.14-.083L25.727,29c-.188-.252-.359-.318-.831-.318l-.5.033a6.255,6.255,0,0,1,.344,1.007c.235.94.271,1.012.776,1.47s.563.527.563.686l-.2.235-.188-.031-.112-.009-.3.6.185.731.2.344.29.285.114.3L25.9,34.6l-.264-.095-.2-.055-.185.237.04.432.176.741.321.549.427.342.579.261.081.228-.192.2-.3-.057-.287-.028-.311.242.052.446.119.461c.121.487.278.748.449.748l.211-.114a3.592,3.592,0,0,1,1.779-.606,5.454,5.454,0,0,1,1.384.147l.278.069.095-.33.064-.513.112-.9.085-.66v-.37l-.233.2a1.712,1.712,0,0,1-1.3.6c-1.315,0-2.078-1.486-2.078-4.084a28.007,28.007,0,0,1,.451-4.315l.09-.8A3.141,3.141,0,0,0,25.7,25.034" transform="translate(33.538 34.41)" fill="#ffde26"/>
  </g>
  <g id="Group_113" data-name="Group 113" clip-path="url(#clip-path)">
    <path id="Path_110" data-name="Path 110" d="M25.941,27.437l-.062.437-.078.43-.033.432v.285l.266-.256.252-.233.389-.881-.1-.411-.4-.416Z" transform="translate(35.419 36.87)" fill="#ffde26"/>
  </g>
  <g id="Group_114" data-name="Group 114" clip-path="url(#clip-path)">
    <path id="Path_111" data-name="Path 111" d="M24.7,32.926l.662.518a1.249,1.249,0,0,0,1.152.572l.408-.055.366-.114.292-.085.228-.15-.577-.489-.689-.4-.662-.18Z" transform="translate(33.955 44.733)" fill="#ffde26"/>
  </g>
  <g id="Group_115" data-name="Group 115" clip-path="url(#clip-path)">
    <path id="Path_112" data-name="Path 112" d="M26.339,37.1A1.894,1.894,0,0,1,28.367,35.4c.556,0,.876.112.876.3,0,.145-.242.344-.776.627-.052.031-.33.183-.833.465a13.219,13.219,0,0,1-1.263.629Z" transform="translate(36.204 48.661)" fill="#ffde26"/>
  </g>
  <g id="Group_116" data-name="Group 116" clip-path="url(#clip-path)">
    <path id="Path_113" data-name="Path 113" d="M31.271,34.025l.75-.2.513.028.347-.23.4-.287c.579-.392.606-.42.606-.544,0-.164-.23-.237-.717-.237-.9,0-1.453.423-1.9,1.467" transform="translate(42.983 44.752)" fill="#ffde26"/>
  </g>
  <g id="Group_117" data-name="Group 117" clip-path="url(#clip-path)">
    <path id="Path_114" data-name="Path 114" d="M27.72,25.811l.406.259.577.318c.439.18.6.247.6.416l-.057.33-.085.4-.437.494c-.195,0-.392-.3-.717-.864l-.456-1.147-.019-.112.123-.114" transform="translate(37.843 35.449)" fill="#2f2f27"/>
  </g>
  <g id="Group_118" data-name="Group 118" clip-path="url(#clip-path)">
    <path id="Path_115" data-name="Path 115" d="M30.085,25.983l-.629.318-.615.173-.247.318v.028l.028.494.024.487.3.285H29l.2-.085.287-.632.665-.67.283-.482.066-.183-.166-.164Z" transform="translate(39.303 35.56)" fill="#2f2f27"/>
  </g>
  <g id="Group_119" data-name="Group 119" clip-path="url(#clip-path)">
    <path id="Path_116" data-name="Path 116" d="M28.438,27.078l.435.321.378.1.686-.185.373-.169.221-.064.416.549a3.053,3.053,0,0,1-.753,1.5l-.316.662-.627.492c-.337,0-.5-.192-1.014-1.218a3.549,3.549,0,0,1-.515-1.527l.385-.513Z" transform="translate(38.103 37.141)" fill="#2f2f27"/>
  </g>
  <g id="Group_120" data-name="Group 120" clip-path="url(#clip-path)">
    <path id="Path_117" data-name="Path 117" d="M28.182,28.084l.028.546.418.494c.268,0,.458-.4.558-1.014l.066-.4-.344-.268-.15.009h-.2l-.123-.009-.252.508" transform="translate(38.734 37.721)" fill="#ffde26"/>
  </g>
  <g id="Group_121" data-name="Group 121" clip-path="url(#clip-path)">
    <path id="Path_118" data-name="Path 118" d="M14.539,31.432h2.807v5.775h3.315V31.491h8.349v5.715h3.312V31.491h2.816V16.577h-3.22l-.119-.171a1.793,1.793,0,0,0-1.56-.874,1.718,1.718,0,0,0-1.513,1.045H26.4a1.687,1.687,0,0,0-1.553-1.045,1.735,1.735,0,0,0-1.636,1.045H20.722a1.684,1.684,0,0,0-1.6-1.038,1.56,1.56,0,0,0-1.539,1.038H14.539V31.432Z" transform="translate(19.984 21.349)" fill="#2b2c2c"/>
  </g>
  <g id="Group_122" data-name="Group 122" clip-path="url(#clip-path)">
    <rect id="Rectangle_130" data-name="Rectangle 130" width="18.298" height="12.538" transform="translate(35.725 39.151)" fill="#e53e33"/>
  </g>
  <g id="Group_123" data-name="Group 123" clip-path="url(#clip-path)">
    <path id="Path_119" data-name="Path 119" d="M16.35,17.694a.87.87,0,1,0,.871.871.875.875,0,0,0-.871-.871" transform="translate(21.276 24.321)" fill="#ffde26"/>
  </g>
  <g id="Group_124" data-name="Group 124" clip-path="url(#clip-path)">
    <path id="Path_120" data-name="Path 120" d="M16.416,17.881l-.753.748.753.76.753-.76Zm0,1.741a.989.989,0,0,1,0-1.978.989.989,0,1,1,0,1.978" transform="translate(21.21 24.252)" fill="#2b2c2c"/>
  </g>
  <g id="Group_125" data-name="Group 125" clip-path="url(#clip-path)">
    <path id="Path_121" data-name="Path 121" d="M22.4,17.694a.87.87,0,1,0,.871.871.874.874,0,0,0-.871-.871" transform="translate(29.589 24.321)" fill="#ffde26"/>
  </g>
  <g id="Group_126" data-name="Group 126" clip-path="url(#clip-path)">
    <path id="Path_122" data-name="Path 122" d="M22.47,17.881l-.76.748.76.76.753-.76Zm0,1.741a.989.989,0,1,1,.985-.993.992.992,0,0,1-.985.993" transform="translate(29.521 24.252)" fill="#2b2c2c"/>
  </g>
  <g id="Group_127" data-name="Group 127" clip-path="url(#clip-path)">
    <path id="Path_123" data-name="Path 123" d="M16.35,20.566a.875.875,0,0,0-.871.871.889.889,0,0,0,.907.869.855.855,0,0,0,.836-.869.878.878,0,0,0-.871-.871" transform="translate(21.276 28.269)" fill="#ffde26"/>
  </g>
  <g id="Group_128" data-name="Group 128" clip-path="url(#clip-path)">
    <path id="Path_124" data-name="Path 124" d="M16.415,20.752l-.753.753a.773.773,0,0,0,.788.75l.717-.75Zm.036,1.738A1,1,0,0,1,15.43,21.5a.985.985,0,1,1,1.971,0,.968.968,0,0,1-.95.985" transform="translate(21.209 28.204)" fill="#2b2c2c"/>
  </g>
  <g id="Group_129" data-name="Group 129" clip-path="url(#clip-path)">
    <path id="Path_125" data-name="Path 125" d="M22.4,20.566a.87.87,0,1,0,.871.871.874.874,0,0,0-.871-.871" transform="translate(29.589 28.269)" fill="#ffde26"/>
  </g>
  <g id="Group_130" data-name="Group 130" clip-path="url(#clip-path)">
    <path id="Path_126" data-name="Path 126" d="M22.47,20.752l-.76.753.76.75.753-.75Zm0,1.738a.985.985,0,1,1,.985-.985.991.991,0,0,1-.985.985" transform="translate(29.521 28.204)" fill="#2b2c2c"/>
  </g>
  <g id="Group_131" data-name="Group 131" clip-path="url(#clip-path)">
    <path id="Path_127" data-name="Path 127" d="M16.995,20.611A5.5,5.5,0,0,0,21.5,22.822a5.175,5.175,0,0,0,4.253-2.211,5.8,5.8,0,0,0-8.762,0" transform="translate(23.36 25.583)" fill="#ffde26"/>
  </g>
  <g id="Group_132" data-name="Group 132" clip-path="url(#clip-path)">
    <path id="Path_128" data-name="Path 128" d="M17.359,20.228a5.382,5.382,0,0,1,3.507-1.337,5.172,5.172,0,0,1,3.486,1.363,4.439,4.439,0,0,1-3.5,1.486,4.9,4.9,0,0,1-3.491-1.513" transform="translate(23.86 25.966)" fill="#2b2c2c"/>
  </g>
  <g id="Group_133" data-name="Group 133" clip-path="url(#clip-path)">
    <path id="Path_129" data-name="Path 129" d="M17.984,19.618a3.523,3.523,0,0,0,1.983.634,3.59,3.59,0,0,0,2.109-.634A4.8,4.8,0,0,0,20,19.124a4.21,4.21,0,0,0-2.011.494" transform="translate(24.719 26.286)" fill="#ffde26"/>
  </g>
  <g id="Group_134" data-name="Group 134" clip-path="url(#clip-path)">
    <rect id="Rectangle_143" data-name="Rectangle 143" width="18.811" height="0.643" transform="translate(35.471 39.785)" fill="#2b2c2c"/>
  </g>
  <g id="Group_135" data-name="Group 135" clip-path="url(#clip-path)">
    <path id="Path_130" data-name="Path 130" d="M15,16.821H33.73v.558H15Zm-.078.636H33.806V16.74H14.919v.717Z" transform="translate(20.507 23.01)" fill="#2c2f2c"/>
  </g>
  <g id="Group_136" data-name="Group 136" clip-path="url(#clip-path)">
    <path id="Path_131" data-name="Path 131" d="M16.152,17.035v1.8a.751.751,0,0,0,.772.76.7.7,0,0,0,.793-.76V17.066c0-.681-.275-1.109-.727-1.109l-.347.093-.207.112-.173.235-.112.321" transform="translate(22.201 21.933)" fill="#ffde26"/>
  </g>
  <g id="Group_137" data-name="Group 137" clip-path="url(#clip-path)">
    <path id="Path_132" data-name="Path 132" d="M18.533,18.515v.318a.749.749,0,0,0,.774.753.7.7,0,0,0,.8-.753V17.065c0-.677-.28-1.107-.724-1.107-.518,0-.845.418-.845,1.08" transform="translate(25.474 21.935)" fill="#ffde26"/>
  </g>
  <g id="Group_138" data-name="Group 138" clip-path="url(#clip-path)">
    <path id="Path_133" data-name="Path 133" d="M20.843,17.035v1.8a.755.755,0,0,0,.781.76.7.7,0,0,0,.788-.76V17.066c0-.681-.28-1.109-.724-1.109l-.351.093-.2.112-.18.235-.114.321" transform="translate(28.649 21.933)" fill="#ffde26"/>
  </g>
  <g id="Group_139" data-name="Group 139" clip-path="url(#clip-path)">
    <rect id="Rectangle_149" data-name="Rectangle 149" width="1.71" height="2.204" transform="translate(37.945 54.139)" fill="#ffde26"/>
  </g>
  <g id="Group_140" data-name="Group 140" clip-path="url(#clip-path)">
    <rect id="Rectangle_151" data-name="Rectangle 151" width="1.71" height="0.698" transform="translate(37.945 56.841)" fill="#ffde26"/>
  </g>
  <g id="Group_141" data-name="Group 141" clip-path="url(#clip-path)">
    <rect id="Rectangle_153" data-name="Rectangle 153" width="1.71" height="2.204" transform="translate(49.609 54.139)" fill="#ffde26"/>
  </g>
  <g id="Group_142" data-name="Group 142" clip-path="url(#clip-path)">
    <rect id="Rectangle_155" data-name="Rectangle 155" width="1.71" height="0.698" transform="translate(49.609 56.841)" fill="#ffde26"/>
  </g>
</svg>
